<svg xmlns="http://www.w3.org/2000/svg" width="579" height="663" viewBox="0 0 579 663" fill="none"><circle cx="179" cy="217" r="177" fill="#F24A00"/><circle cx="209" cy="486" r="177" fill="#65A98F"/><circle cx="402" cy="343" r="177" fill="#FF8C00"/><path d="M272.2 320.56C268.7 321.14 252.8 323.56 248.2 324.28C247.421 324.476 246.598 324.398 245.87 324.06C245.142 323.721 244.552 323.142 244.2 322.42C242.791 319.783 240.706 317.567 238.16 316C238.54 319.001 239.114 321.974 239.88 324.9C218.64 327.22 197.54 329.42 176.32 330.9C175.84 328.9 176.32 327.08 175.94 324.9C172.72 328.9 173.48 331.24 171.02 331.46C164.895 332.092 158.807 333.04 152.78 334.3C153.38 330.12 154.16 326.1 155.14 322.12C155.34 321.36 155.96 321.32 156.54 321.44C160.36 322.24 164.06 321.14 167.8 320.8C184.84 319.26 187.06 317.86 227.68 315.48C232.86 315.18 242.26 315.2 257.8 313.72C260.68 313.44 263.58 313.22 266.48 312.98C267.06 312.98 267.76 312.8 268.08 313.4C269.59 315.706 270.965 318.096 272.2 320.56Z" fill="#65A98F"/><path d="M264.12 306C262.436 306.515 260.68 306.752 258.92 306.7C255.76 307.18 252.56 307.28 249.36 307.5C220.6 309.5 192.22 310.44 159.56 317.5C158.479 317.893 157.322 318.03 156.18 317.9C156.92 314.54 157.66 311.28 158.38 308.02C159.34 303.74 159.14 303.72 163.42 303.7C169.58 303.7 175.7 302.74 181.84 302.38C185.56 302.16 256.22 297.86 257.24 297.72C258.075 297.51 258.959 297.633 259.705 298.062C260.451 298.491 261.001 299.193 261.24 300.02C262 302 263.06 303.86 264.12 306Z" fill="#65A98F"/><path d="M159.3 298.94C160.02 285.7 159.42 286.3 163.4 286.14C203.12 284.44 204.06 285.34 217.9 284.74C225.9 284.4 233.9 284.16 241.78 283.62C243.927 283.653 246.071 283.465 248.18 283.06C248.427 282.95 248.703 282.923 248.967 282.984C249.231 283.046 249.467 283.192 249.64 283.4L254.82 290.52C254.56 291.14 254.08 290.98 253.72 291C245.72 291.5 237.72 291.88 229.86 292.48C159.78 297.7 163.46 299.78 159.3 298.94Z" fill="#65A98F"/><path d="M160.76 282C160.758 279.632 161.02 277.271 161.54 274.96C162.2 270.62 162.3 270.68 166.76 270.44C174.9 270.04 183.04 269.52 191.18 269.34C200.5 269.14 222.84 268.16 232.1 267.04C235.04 266.68 237.98 266.46 240.92 266C241.34 266 241.74 266 241.96 266.38C243.954 269.672 245.514 273.208 246.6 276.9C244.14 277.08 241.84 277.36 239.56 277.42C232.86 277.6 205.88 278.68 199.08 278.92C190.72 279.2 182.34 279.5 174.02 280.52C169.66 280.98 165.28 281.3 160.76 282Z" fill="#65A98F"/><path d="M192.86 261.16C194.38 260.06 194.98 259.02 200 252.74C200.36 252.402 200.791 252.15 201.262 252.001C201.733 251.852 202.231 251.811 202.72 251.88C206.72 251.72 210.52 251.88 214.44 251.56C218.36 251.24 221.88 251.22 225.58 250.82C226.154 250.682 226.76 250.76 227.28 251.04C230.893 253.617 234.322 256.444 237.54 259.5C235.711 260.046 233.825 260.382 231.92 260.5C215.92 262.5 203.48 262.5 196.08 263.04C188.68 263.58 181.34 263.76 174.08 264.66C170.58 265.1 167.06 265.3 163.4 265.86C163.682 263.973 164.416 262.182 165.54 260.64C166.933 258.348 168.761 256.351 170.92 254.76C172.1 252.36 174.22 252.46 176.42 252.48C179.62 252.48 182.84 252.34 186.02 252.16C188.76 252 189 253.66 192.86 261.16Z" fill="#65A98F"/><path d="M239.14 340.44C237.443 340.556 235.763 340.044 234.42 339C233.957 338.648 233.409 338.428 232.832 338.361C232.255 338.294 231.67 338.383 231.14 338.62C223.64 341.38 215.84 341 208.04 341.04C200.8 341.04 193.8 339.3 186.64 338.72C183.66 338.5 179.28 338.9 178.46 338.52C177.64 338.14 176.76 337.6 176.9 336.64C177.04 335.68 178.1 335.94 178.8 335.94C198.32 335.82 237.48 331.5 240.1 331.26C241.06 331.26 241.48 331.26 241.7 332.24C242.88 337.68 244.76 340.48 239.14 340.44Z" fill="#65A98F"/><path d="M138.98 189.1C138.999 190.823 138.743 192.538 138.22 194.18C137.88 195.24 137.42 196.32 136.08 196.44C134.74 196.56 134.3 195.52 133.82 194.58C133.22 193.32 132.64 192.04 132.08 190.76C132.031 190.546 131.929 190.347 131.783 190.182C131.638 190.017 131.453 189.891 131.246 189.815C131.04 189.74 130.817 189.717 130.6 189.749C130.382 189.782 130.176 189.868 130 190C126.48 191.86 122.68 190.46 124.74 187.48C126.8 184.5 128.54 184 128 182.26C127.757 180.941 127.663 179.6 127.72 178.26C127.72 177.38 127.56 176.4 128.56 175.96C129.043 175.746 129.577 175.671 130.1 175.745C130.623 175.82 131.115 176.04 131.52 176.38C132.294 176.896 133.012 177.493 133.66 178.16C135.34 180.16 136.08 177.02 140.78 176.48C142.14 176.32 142.78 176.78 142.78 178.3C142.78 182.02 140.78 182.62 142.3 185C143.02 186.12 143.56 187.36 144.3 188.54C144.486 188.805 144.577 189.124 144.558 189.447C144.54 189.77 144.414 190.078 144.2 190.32C143.964 190.609 143.633 190.804 143.267 190.87C142.9 190.936 142.521 190.869 142.2 190.68C141.22 190.24 140.24 189.72 138.98 189.1Z" fill="#65A98F"/><path d="M241.26 149.32L246.42 150.24C246.884 150.275 247.329 150.44 247.704 150.716C248.079 150.992 248.368 151.367 248.54 151.8C248.84 152.8 248.1 153.44 247.42 153.98C246.625 154.655 245.752 155.233 244.82 155.7C242.82 156.6 243.98 157.96 244.32 161.22C244.446 161.672 244.432 162.152 244.278 162.595C244.125 163.038 243.839 163.424 243.46 163.7C243.006 163.925 242.489 163.989 241.994 163.88C241.499 163.771 241.057 163.495 240.74 163.1C239.74 162.08 238.74 160.96 237.86 159.9C236.66 160.9 235.86 161.64 234.88 162.36C234.513 162.656 234.068 162.838 233.599 162.884C233.13 162.93 232.657 162.838 232.24 162.62C231.826 162.4 231.492 162.056 231.283 161.637C231.075 161.217 231.004 160.742 231.08 160.28C231.08 156.56 231.08 156.56 228.48 154.06C227.94 153.648 227.544 153.077 227.346 152.427C227.149 151.778 227.161 151.083 227.38 150.44C227.88 149.12 229.14 148.98 230.34 149.18C231.512 149.51 232.766 149.385 233.85 148.828C234.933 148.272 235.766 147.325 236.18 146.18C236.791 145.187 237.531 144.28 238.38 143.48C238.589 143.191 238.889 142.98 239.233 142.882C239.576 142.783 239.942 142.802 240.273 142.935C240.604 143.069 240.881 143.309 241.06 143.618C241.239 143.927 241.309 144.287 241.26 144.64C241.24 146.2 241.26 147.76 241.26 149.32Z" fill="#65A98F"/><path d="M169.8 336.82C169.306 338.823 168.567 340.758 167.6 342.58C166.68 344.72 165.6 346.78 164.5 348.86C164.35 349.325 164.11 349.755 163.794 350.126C163.477 350.498 163.09 350.803 162.655 351.024C162.22 351.245 161.746 351.378 161.259 351.415C160.772 351.452 160.283 351.393 159.82 351.24C152.78 350.12 150.84 345.24 151.96 339.24C152.06 338.74 152.28 338.38 152.84 338.32C171.26 336.4 168.82 336.56 169.8 336.82Z" fill="#65A98F"/><path d="M335.7 408.68C334.88 410.96 333.7 411.88 332.26 411.46C331.494 411.081 330.879 410.453 330.516 409.679C330.153 408.906 330.063 408.032 330.26 407.2C330.58 405.64 331.6 405.2 333.98 405.5C333.486 403.717 332.605 402.064 331.4 400.66C330.9 400.02 330.4 399.38 329.86 398.78C329.363 398.269 329.084 397.583 329.084 396.87C329.084 396.157 329.363 395.471 329.86 394.96C330.463 394.164 331.216 393.495 332.077 392.991C332.939 392.486 333.891 392.156 334.88 392.02C335.19 391.953 335.51 391.954 335.819 392.021C336.129 392.089 336.42 392.222 336.674 392.411C336.928 392.601 337.138 392.842 337.291 393.12C337.444 393.397 337.536 393.704 337.56 394.02C340.06 404.3 338.86 403.76 339.56 409.56C339.66 410.5 339.56 411.26 338.64 411.56C337.72 411.86 337 411.36 336.54 410.46C336.22 409.82 336.26 409.12 335.7 408.68Z" fill="#65A98F"/><path d="M250.84 330C254.3 329.34 268.08 326.88 271.96 326.18C273.82 325.86 273.96 326.06 274.72 328.18C275.16 329.64 274.72 330.18 273.26 330.68C268.594 332.581 264.176 335.039 260.1 338L250.84 330Z" fill="#65A98F"/><path d="M323.8 338C323.112 338.627 322.384 339.208 321.62 339.74C320.14 340.68 318.84 340.08 319.16 338.42C319.4 337.608 319.342 336.737 318.997 335.964C318.653 335.19 318.044 334.565 317.28 334.2C316.899 333.843 316.581 333.424 316.34 332.96C315.26 331.32 315.44 330.68 317.34 330.32C317.969 330.262 318.568 330.02 319.062 329.626C319.556 329.231 319.924 328.701 320.12 328.1C320.503 327.187 321 326.327 321.6 325.54C322.5 324.36 324.02 324.52 324.22 325.92C324.319 327.159 324.876 328.316 325.782 329.166C326.688 330.017 327.878 330.499 329.12 330.52C329.485 330.536 329.832 330.679 330.102 330.925C330.372 331.171 330.547 331.504 330.597 331.865C330.647 332.227 330.568 332.594 330.375 332.904C330.182 333.214 329.887 333.446 329.54 333.56C329.23 333.687 328.95 333.877 328.717 334.117C328.483 334.357 328.302 334.643 328.184 334.956C328.065 335.269 328.013 335.604 328.03 335.938C328.046 336.273 328.131 336.6 328.28 336.9C328.92 338.9 327.68 340.9 325.78 339.58L323.8 338Z" fill="#65A98F"/><path d="M261.84 340.3L275.34 332.3C275.804 333.583 276.589 334.726 277.62 335.62C278.46 336.4 278.24 337.28 277.86 338.32C276.62 341.78 273.44 343.08 270.8 344.96C270.583 345.143 270.328 345.272 270.052 345.338C269.777 345.404 269.49 345.406 269.214 345.342C268.939 345.277 268.682 345.15 268.464 344.969C268.246 344.788 268.074 344.559 267.96 344.3C267.815 344.052 267.612 343.844 267.368 343.694C267.124 343.544 266.846 343.457 266.56 343.44C264.656 343.005 262.977 341.888 261.84 340.3Z" fill="#65A98F"/><path d="M203.16 246.58C203.937 244.755 204.605 242.885 205.16 240.98C205.84 239.16 207.84 238.38 209.44 237.44C210.74 236.68 211.76 237.74 212.72 238.44C215.204 240.051 217.601 241.794 219.9 243.66C220.599 244.126 221.093 244.841 221.28 245.66C215.32 246 209.48 246.42 203.16 246.58Z" fill="#65A98F"/><path d="M300.82 416.34C300.82 413.74 302 412.34 304.02 412.34C305.04 412.449 305.986 412.923 306.683 413.676C307.38 414.429 307.781 415.41 307.81 416.435C307.839 417.461 307.496 418.462 306.843 419.254C306.19 420.046 305.272 420.574 304.26 420.74C302 420.6 300.82 419.16 300.82 416.34Z" fill="#65A98F"/><path d="M336.82 421.56C336.82 423.4 334.62 426.18 333.14 426.24C331.66 426.3 329.66 423.34 329.66 420.96C329.665 420.54 329.754 420.125 329.921 419.74C330.089 419.354 330.331 419.006 330.635 418.716C330.938 418.425 331.297 418.198 331.689 418.048C332.082 417.897 332.5 417.827 332.92 417.84C333.917 417.863 334.869 418.257 335.59 418.945C336.312 419.633 336.75 420.566 336.82 421.56Z" fill="#65A98F"/><path d="M310.2 397.62C310.708 397.661 311.204 397.801 311.658 398.033C312.112 398.265 312.516 398.584 312.846 398.972C313.177 399.36 313.428 399.81 313.585 400.295C313.741 400.78 313.801 401.292 313.76 401.8C313.771 402.768 313.407 403.704 312.743 404.409C312.079 405.114 311.167 405.534 310.2 405.58C306.26 405.48 305.08 397.72 310.2 397.62Z" fill="#65A98F"/><path d="M185.48 247.52C182.635 247.476 179.792 247.67 176.98 248.1C179.159 244.576 181.818 241.372 184.88 238.58C185.94 240.14 184.22 241.44 184.5 242.88C184.78 244.32 185.12 245.8 185.48 247.52Z" fill="#65A98F"/><path d="M342.62 432.24C341.835 432.17 341.104 431.809 340.571 431.228C340.038 430.648 339.742 429.888 339.74 429.1C339.76 428.147 340.119 427.233 340.754 426.521C341.388 425.81 342.255 425.349 343.2 425.22C345.54 425.22 346.52 425.68 346.56 427.02C346.64 429.5 344.62 432.18 342.62 432.24Z" fill="#65A98F"/><path d="M318.34 411.56C322.52 411.56 321.44 418.14 318.16 418.18C317.318 418.16 316.515 417.816 315.92 417.22C315.324 416.625 314.98 415.822 314.96 414.98C314.931 414.527 314.998 414.073 315.158 413.647C315.317 413.222 315.564 412.835 315.883 412.512C316.202 412.189 316.586 411.938 317.01 411.773C317.433 411.609 317.886 411.537 318.34 411.56Z" fill="#65A98F"/><path d="M296.6 412.34C296.681 413.246 296.475 414.153 296.012 414.936C295.549 415.718 294.852 416.335 294.02 416.7C293.751 416.876 293.437 416.972 293.116 416.976C292.795 416.981 292.479 416.895 292.205 416.727C291.93 416.56 291.709 416.318 291.567 416.03C291.424 415.742 291.366 415.42 291.4 415.1C291.453 413.177 292.027 411.303 293.06 409.68C293.64 408.7 295.62 409.16 296.28 410.3C296.555 410.943 296.665 411.644 296.6 412.34Z" fill="#65A98F"/><path d="M297.22 384.26C298.102 384.297 298.934 384.681 299.534 385.329C300.134 385.978 300.452 386.837 300.42 387.72C300.42 389.34 299 390.92 297.72 390.88C296.833 390.695 296.036 390.214 295.458 389.516C294.881 388.819 294.557 387.946 294.54 387.04C294.521 386.678 294.576 386.317 294.703 385.977C294.829 385.638 295.024 385.328 295.276 385.068C295.527 384.807 295.829 384.601 296.164 384.462C296.498 384.323 296.858 384.254 297.22 384.26Z" fill="#65A98F"/><path d="M295.12 369.86C294.284 369.635 293.543 369.145 293.01 368.464C292.476 367.782 292.178 366.946 292.16 366.08C292.221 365.288 292.586 364.55 293.179 364.021C293.772 363.492 294.546 363.212 295.34 363.24C299.32 363.46 298.42 370 295.12 369.86Z" fill="#65A98F"/><path d="M290.36 368C289.98 369.22 289.98 370.56 288.52 370.84C287.06 371.12 286.52 369.96 286.04 368.72C285.763 367.474 285.676 366.193 285.78 364.92C285.763 364.593 285.871 364.272 286.083 364.023C286.295 363.774 286.595 363.615 286.92 363.58C287.408 363.464 287.922 363.52 288.373 363.739C288.825 363.957 289.188 364.325 289.4 364.78C289.808 365.825 290.13 366.902 290.36 368Z" fill="#65A98F"/><path d="M296.32 401.8C296.319 401.017 296.606 400.26 297.126 399.674C297.645 399.088 298.362 398.713 299.14 398.62C299.502 398.579 299.869 398.611 300.218 398.714C300.568 398.817 300.893 398.989 301.175 399.22C301.457 399.452 301.689 399.737 301.858 400.06C302.027 400.383 302.13 400.737 302.16 401.1C302.177 401.949 301.867 402.772 301.293 403.397C300.719 404.023 299.927 404.404 299.08 404.46C298.387 404.394 297.737 404.095 297.236 403.612C296.734 403.129 296.412 402.49 296.32 401.8Z" fill="#65A98F"/><path d="M295.2 381.76C295.2 383.6 294.4 384.6 292.9 384.6C289.42 384.6 289.54 378.4 292.72 378.44C294 378.46 295.2 380 295.2 381.76Z" fill="#65A98F"/><path d="M316.5 427.32C315.783 427.265 315.105 426.977 314.567 426.5C314.029 426.024 313.661 425.385 313.52 424.68C313.644 423.996 313.969 423.364 314.453 422.866C314.938 422.367 315.56 422.024 316.24 421.88C316.985 422.014 317.674 422.364 318.222 422.887C318.769 423.41 319.151 424.082 319.32 424.82C319.273 425.524 318.951 426.181 318.423 426.65C317.895 427.118 317.204 427.359 316.5 427.32Z" fill="#65A98F"/><path d="M327.44 399.12C327.44 401.02 326.64 402.08 325.22 402.08C324.58 402.001 323.993 401.687 323.571 401.199C323.15 400.711 322.925 400.084 322.94 399.44C322.94 397.44 324.02 395.9 325.34 395.94C326.66 395.98 327.44 397.32 327.44 399.12Z" fill="#65A98F"/><path d="M319.4 404.3C319.4 405.36 319.68 406.6 318.14 406.62C316.6 406.64 316.66 405.68 316.54 404.62C316.42 403.56 315.84 401.74 317.66 401.6C319.48 401.46 319.26 403.2 319.4 404.3Z" fill="#65A98F"/><path d="M219.02 208C221.02 206.82 221.48 207.16 221.66 209.2C222.04 213.76 221.52 218.36 222.14 222.92C222.184 223.566 222.07 224.213 221.809 224.805C221.547 225.397 221.146 225.917 220.64 226.32C216.64 230.32 209.86 234.7 205.84 238.32C203.06 240.78 201.84 244.32 199.84 247.3C198.42 249.56 197.24 251.94 196 254.16C195.26 254.16 195.1 253.78 194.88 253.44C192.22 249.44 189.54 245.44 187.18 241.24C185.94 238.98 185.78 236.48 184.8 234.22C184.735 233.993 184.718 233.755 184.748 233.521C184.779 233.287 184.858 233.062 184.98 232.86C186.98 228.3 188.98 224.26 184.98 221.28C184.24 220.72 183.68 219.94 182.98 219.28C182.569 219.009 182.272 218.596 182.147 218.12C182.021 217.644 182.076 217.138 182.3 216.7C182.8 215.6 183.4 214.58 184.78 214.58C186.64 214.821 188.531 214.622 190.3 214C190.92 213.72 191.54 214.22 192.16 214.36C193.628 214.862 195.207 214.941 196.717 214.587C198.228 214.233 199.608 213.462 200.7 212.36C201.951 211.132 203.089 209.793 204.1 208.36C204.62 207.58 205.06 207.56 205.82 208.06C206.947 208.852 208.272 209.313 209.647 209.39C211.022 209.468 212.391 209.16 213.6 208.5C214.38 208.1 215.24 207.88 215.98 207.44C216.206 207.249 216.471 207.111 216.757 207.035C217.043 206.959 217.342 206.948 217.632 207.001C217.923 207.055 218.198 207.172 218.438 207.345C218.678 207.518 218.877 207.741 219.02 208Z" fill="#FF8C00"/><path d="M370 403.14C366.34 403.14 364 403.8 363.4 401.14C362.202 396.052 361.419 390.875 361.06 385.66C361.06 384.26 360.26 383 360.3 381.56C360.34 380.12 360.74 379.66 361.88 379.42C369.88 377.74 377.58 375.12 385.68 374.12C387.292 373.922 388.889 373.614 390.46 373.2C392.46 372.64 393.24 373.2 393.68 375.2C394.5 378.92 394.52 382.7 395 386.46C395.448 389.272 395.695 392.113 395.74 394.96C395.828 395.572 395.794 396.195 395.64 396.794C395.486 397.393 395.216 397.956 394.844 398.45C394.472 398.944 394.007 399.36 393.474 399.674C392.942 399.988 392.352 400.194 391.74 400.28C384.613 401.987 377.327 402.946 370 403.14Z" fill="#65A98F"/><path d="M273.86 374.62C273.968 375.436 273.837 376.265 273.482 377.007C273.126 377.75 272.563 378.372 271.86 378.8C268.16 381.74 263.86 383.84 260.34 386.98C256.82 390.12 252.34 392.66 248.34 395.58C246.22 397.14 245.08 396.62 243.12 394.8C239.36 391.28 238.88 386.04 236.04 382.08C235.54 381.38 235.8 380.48 235.88 379.68C235.96 378.88 236.26 378.58 237.04 378.2C238.787 377.008 240.373 375.596 241.76 374C247.56 368.98 253.28 363.84 259.1 358.84C261.6 356.7 263.1 356.84 265.64 358.72C268.034 360.659 270.001 363.072 271.415 365.809C272.83 368.546 273.662 371.546 273.86 374.62Z" fill="#65A98F"/><path d="M353.22 331.32C352.063 331.319 350.924 331.037 349.9 330.5C342.831 327.458 336.99 322.125 333.32 315.36L332.98 314.74C331.38 312.44 331.38 312.04 333.26 310C336.785 306.188 340.596 302.651 344.66 299.42C351.92 293.64 352.94 291.84 356.48 294.96C359.695 297.477 362.519 300.456 364.86 303.8C366.205 305.618 366.93 307.819 366.93 310.08C366.93 312.341 366.205 314.542 364.86 316.36C358 326.22 358 331.74 353.22 331.32Z" fill="#65A98F"/><path d="M396.42 404.46C396.466 402.817 396.791 401.194 397.38 399.66C398.953 395.96 400.185 392.124 401.06 388.2C401.34 386.88 401.72 386.2 403.54 386.56C405.308 386.929 407.132 386.929 408.9 386.56C413.953 385.33 419.227 385.33 424.28 386.56C426.042 387.103 427.657 388.041 429.002 389.303C430.346 390.564 431.385 392.116 432.04 393.84C432.542 395.037 432.686 396.355 432.456 397.632C432.225 398.91 431.629 400.094 430.74 401.04C425.98 407.102 420.1 412.195 413.42 416.04C412.53 416.609 411.477 416.868 410.425 416.777C409.373 416.687 408.38 416.252 407.6 415.54C402.66 411.8 396.92 410.22 396.42 404.46Z" fill="#65A98F"/><path d="M395.8 286.18C395.892 287.614 395.466 289.033 394.6 290.18C392.236 294.257 389.49 298.101 386.4 301.66C385.317 303.011 383.83 303.98 382.157 304.426C380.484 304.873 378.712 304.772 377.1 304.14C371.244 302.506 366.117 298.93 362.56 294C362.014 293.296 361.617 292.489 361.392 291.627C361.167 290.765 361.12 289.867 361.252 288.986C361.385 288.105 361.695 287.26 362.164 286.503C362.633 285.746 363.251 285.092 363.98 284.58C369.414 280.283 375.119 276.342 381.06 272.78C385.72 270.14 387.52 270.22 391.06 274.3C394.105 277.506 395.802 281.759 395.8 286.18Z" fill="#65A98F"/><path d="M174 471.44C175.14 476.24 164.26 479.62 159.44 483.98C157.719 485.599 155.496 486.58 153.14 486.76C152.226 486.843 151.305 486.704 150.456 486.356C149.606 486.008 148.853 485.46 148.26 484.76C145.78 481.46 143.48 478.02 141.18 474.58C140.397 473.17 139.927 471.608 139.8 470C139.77 469.576 139.876 469.154 140.103 468.794C140.33 468.434 140.665 468.156 141.06 468C148.58 464 156.36 457.12 159.78 455.2C162.82 453.48 164.5 454.14 167.56 457.6C170.471 460.574 172.601 464.223 173.76 468.22C173.921 469.286 174.002 470.362 174 471.44Z" fill="#FF8C00"/><path d="M177.88 431.72C177.937 432.527 177.782 433.336 177.431 434.065C177.081 434.794 176.546 435.42 175.88 435.88C164.96 443.72 165.4 444.96 157.26 448.44C156.103 448.783 154.871 448.775 153.718 448.42C152.565 448.064 151.543 447.375 150.78 446.44L146.58 440.64C143.8 436.86 143.84 434.92 147.04 431.38C149.704 428.362 152.821 425.778 156.28 423.72C165.64 418.28 168.28 413.4 172.68 419.72C174.578 422.729 176.16 425.926 177.4 429.26C177.746 430.033 177.91 430.874 177.88 431.72Z" fill="#FF8C00"/><path d="M268 481.26C268.007 482.315 267.793 483.36 267.373 484.328C266.953 485.295 266.336 486.165 265.56 486.88C261.089 491.915 255.35 495.658 248.94 497.72C245.34 498.86 241.86 496.22 238.94 494.04C238.069 493.395 237.413 492.502 237.056 491.478C236.699 490.454 236.659 489.347 236.94 488.3C237.166 485.003 238.589 481.902 240.94 479.58C242.5 478.18 243.86 476.56 245.3 475.04C246.442 473.783 247.897 472.852 249.518 472.342C251.138 471.832 252.864 471.763 254.52 472.14C258.044 472.933 261.447 474.191 264.64 475.88C265.647 476.373 266.495 477.139 267.089 478.09C267.683 479.041 267.999 480.139 268 481.26Z" fill="#FF8C00"/><path d="M398.52 418.96C398.444 420.211 398.083 421.429 397.467 422.521C396.85 423.612 395.993 424.549 394.96 425.26C390.96 428.12 386.64 430.6 382.48 433.26C379.82 434.96 375.78 439.04 373.9 433.92C372.134 429.863 371.033 425.547 370.64 421.14C370.618 419.415 371.055 417.716 371.905 416.216C372.756 414.715 373.989 413.467 375.48 412.6C377.48 411.28 379.34 409.98 381.36 408.82C388.84 404.56 397.06 408.18 398.2 416.7C398.44 417.428 398.548 418.194 398.52 418.96Z" fill="#65A98F"/><path d="M378.46 306.48C381.92 307.28 386 306.1 390.12 306.12C393.94 306.12 395.4 307.4 395.7 311.24C395.843 316.314 395 321.367 393.22 326.12C392.4 328.76 389.56 329.68 386 329.06C381.72 328.32 375.06 325.82 370.9 324.74C370.321 324.662 369.765 324.459 369.273 324.144C368.781 323.828 368.364 323.409 368.051 322.915C367.739 322.421 367.538 321.865 367.464 321.285C367.389 320.706 367.442 320.117 367.62 319.56C368.096 317.098 368.764 314.677 369.62 312.32C371.18 307.54 372.68 306.5 378.46 306.48Z" fill="#65A98F"/><path d="M146 454C146.023 454.644 145.858 455.28 145.524 455.831C145.19 456.382 144.702 456.823 144.12 457.1C139.3 460.16 134.96 463.9 130.12 466.94C129.734 467.256 129.286 467.488 128.804 467.618C128.323 467.749 127.819 467.777 127.326 467.7C126.833 467.622 126.362 467.441 125.944 467.169C125.526 466.897 125.17 466.539 124.9 466.12C122.548 462.444 120.418 458.63 118.52 454.7C118.091 454.006 117.951 453.17 118.131 452.374C118.31 451.578 118.794 450.883 119.48 450.44C122.72 447.78 125.96 445.1 129.12 442.44C133.84 438.44 135.34 434.96 137.8 438.64C140.68 442.92 144 446.98 145.54 452.04C145.823 452.656 145.98 453.322 146 454Z" fill="#FF8C00"/><path d="M145.68 134.76C146.01 134.805 146.325 134.921 146.605 135.101C146.885 135.28 147.122 135.519 147.3 135.8C150.48 140.04 158.76 151 159.68 152.26C160.139 152.711 160.423 153.311 160.481 153.951C160.54 154.592 160.369 155.233 160 155.76C159.26 156.86 159.12 158.26 158 159.3C156.88 160.34 156.36 160.24 155.46 159.5C139.66 146.2 144.82 150.08 137.24 145.5C136.828 145.311 136.462 145.034 136.168 144.689C135.874 144.343 135.66 143.937 135.54 143.5C135.54 142.98 135.36 142.46 136.08 142.22C139.12 141.2 140.92 138.7 142.82 136.34C143.124 135.856 143.546 135.458 144.046 135.181C144.547 134.905 145.109 134.76 145.68 134.76Z" fill="#FF8C00"/><path d="M151.72 357.86C150.486 359.626 148.932 361.145 147.14 362.34C146.76 362.571 146.314 362.669 145.872 362.619C145.43 362.568 145.018 362.371 144.7 362.06C143.98 361.36 144.22 360.6 144.56 359.8C146.14 356.04 148.98 353.12 151.22 349.8C151.46 349.46 151.84 349.08 152.24 349.28C153.188 349.554 154.176 349.662 155.16 349.6C158.14 350.02 159.16 351.72 158.22 354.54C157.812 355.787 157.197 356.957 156.4 358C154.88 359.8 153.72 360 151.72 357.86Z" fill="#FF8C00"/><path d="M286.76 352.8C283.86 355 283.18 354.94 280.76 352.5C279.84 351.54 278.76 351.76 278.38 353.02C278.305 353.676 278.025 354.292 277.58 354.78C277.183 354.722 276.812 354.547 276.516 354.276C276.22 354.005 276.012 353.651 275.92 353.26C275.36 351.36 274.66 349.52 273.92 347.68C273.76 346.408 274.039 345.119 274.712 344.028C275.385 342.936 276.411 342.108 277.62 341.68C279.02 341.48 278.7 343.28 281.62 345.68C282.14 346.14 282.7 346.8 282.42 347.48C281.78 348.92 282.76 349.32 283.7 349.58C285.42 350 286 351.34 286.76 352.8Z" fill="#FF8C00"/><path d="M310.56 332.92V337.28C310.56 338.14 310.44 339.28 309.12 339.28C307.8 339.28 306.64 339.6 306 337.88C305.057 334.94 303.9 332.072 302.54 329.3C302.375 329.069 302.269 328.801 302.232 328.519C302.196 328.238 302.23 327.952 302.331 327.686C302.432 327.421 302.597 327.184 302.811 326.998C303.026 326.812 303.283 326.682 303.56 326.62C305.118 326.151 306.59 325.436 307.92 324.5C308.94 323.68 310.04 324.5 310.24 326.08C310.548 328.346 310.655 330.635 310.56 332.92Z" fill="#65A98F"/><path d="M202.68 207.04C200.16 211.74 196.86 213.04 191.8 211.46C190.936 211.114 190.011 210.945 189.08 210.962C188.149 210.979 187.231 211.183 186.38 211.56C184.64 212.36 183.82 212.32 180.38 212C180.38 215 180.06 218 181.5 220.82C182.581 222.659 183.192 224.736 183.279 226.867C183.367 228.999 182.927 231.119 182 233.04C181.825 233.545 181.532 234.001 181.145 234.37C180.757 234.738 180.287 235.008 179.774 235.157C179.26 235.306 178.719 235.329 178.194 235.225C177.67 235.122 177.178 234.893 176.76 234.56C174.728 233.536 172.44 233.133 170.18 233.4C168.6 233.4 167.04 233.4 165.46 233.64C163.88 233.88 163.88 232.58 163.16 232C161.128 230.266 159.485 228.122 158.337 225.71C157.19 223.298 156.564 220.671 156.5 218C156.527 217.058 156.865 216.151 157.46 215.42C155.382 212.018 154.243 208.126 154.16 204.14C154.064 201.617 154.54 199.105 155.551 196.792C156.562 194.478 158.083 192.423 160 190.78C160.31 190.562 160.54 190.248 160.656 189.887C160.771 189.526 160.766 189.138 160.64 188.78C159.84 183.98 159 179.1 162.74 175.04C165.803 171.528 170.1 169.329 174.74 168.9C176.101 168.772 177.422 168.371 178.625 167.722C179.827 167.073 180.887 166.188 181.74 165.12C183.672 162.963 186.06 161.265 188.731 160.147C191.402 159.03 194.288 158.522 197.18 158.66C199.817 158.728 202.377 159.569 204.54 161.08C205.41 161.832 206.433 162.387 207.537 162.708C208.642 163.029 209.802 163.108 210.94 162.94C215.46 161.92 219.32 163.5 222.04 168.7C222.82 170.22 222.74 172.98 226.24 175.1C229.427 177.051 231.748 180.146 232.73 183.752C233.711 187.358 233.278 191.202 231.52 194.5C230.2 196.84 229.52 197.24 226.72 196.88C222.72 196.36 224.9 200.5 223.64 204.08C223 205.9 222.1 207.64 219.22 207.4C214.82 207.06 209.04 209.4 205.8 205.02C204.42 203.14 203.54 205.44 202.68 207.04ZM174.44 195.56C174.488 195.38 174.474 195.188 174.399 195.017C174.324 194.846 174.193 194.706 174.027 194.62C173.862 194.534 173.671 194.506 173.488 194.543C173.305 194.579 173.14 194.677 173.02 194.82C171.82 196.2 171.76 202.14 174.58 203.58C175.04 203.8 175.48 203.94 175.82 203.46C176.16 202.98 175.82 202.68 175.5 202.42C174.754 201.608 174.291 200.577 174.18 199.48C173.939 198.172 174.029 196.825 174.44 195.56ZM163.66 216.18C163.55 216.195 163.448 216.246 163.369 216.323C163.29 216.401 163.237 216.502 163.219 216.611C163.201 216.721 163.219 216.833 163.27 216.932C163.32 217.03 163.401 217.11 163.5 217.16C166.38 218.74 167.12 221.42 167.5 224.28C167.522 224.388 167.581 224.485 167.667 224.555C167.753 224.624 167.86 224.662 167.97 224.662C168.08 224.662 168.187 224.624 168.273 224.555C168.359 224.485 168.418 224.388 168.44 224.28C168.575 223.037 168.445 221.779 168.059 220.59C167.672 219.401 167.039 218.307 166.2 217.38C165.923 216.971 165.541 216.644 165.094 216.433C164.647 216.222 164.152 216.134 163.66 216.18ZM219.18 183.52C219.016 183.5 218.851 183.538 218.713 183.628C218.575 183.718 218.473 183.854 218.425 184.012C218.377 184.169 218.387 184.339 218.451 184.491C218.516 184.642 218.633 184.766 218.78 184.84C219.971 185.508 220.991 186.442 221.762 187.57C222.532 188.697 223.031 189.988 223.22 191.34C223.38 191.96 224.42 192.22 224.36 191.18C224.254 189.849 223.883 188.553 223.268 187.368C222.653 186.183 221.807 185.133 220.78 184.28C220.336 183.87 219.778 183.605 219.18 183.52Z" fill="#65A98F"/><path d="M329.08 391.22C327.8 393.8 327.78 393.82 325.22 392.58C324.666 392.199 324.006 392.004 323.334 392.022C322.662 392.04 322.013 392.27 321.48 392.68C321.129 392.954 320.696 393.103 320.25 393.103C319.804 393.103 319.371 392.954 319.02 392.68C317.58 391.26 316.4 392.54 315.34 392.48C314.28 392.42 313.14 392.02 313.06 390.62C312.98 389.22 313.94 388.74 315.06 388.8C315.773 388.938 316.512 388.811 317.138 388.443C317.764 388.075 318.234 387.49 318.46 386.8C318.684 386.299 318.779 385.749 318.736 385.201C318.693 384.653 318.512 384.125 318.212 383.665C317.911 383.205 317.5 382.828 317.015 382.569C316.531 382.309 315.989 382.176 315.44 382.18C313.44 382.18 312.9 381.4 313.44 379.42C314.077 377.604 314.526 375.728 314.78 373.82C314.766 373.466 314.879 373.118 315.1 372.84C318.3 370.24 315.4 367.34 315.48 364.58C315.48 363.72 314.54 363.88 313.94 364.02C312.857 364.363 311.693 364.354 310.615 363.995C309.537 363.635 308.601 362.944 307.94 362.02C307.852 361.871 307.726 361.748 307.575 361.664C307.424 361.58 307.253 361.537 307.08 361.54C303.72 361.54 303.08 360.06 303.26 356.72C303.287 355.185 303.886 353.716 304.94 352.6C305.277 352.189 305.733 351.894 306.246 351.754C306.758 351.614 307.301 351.637 307.8 351.82C308.302 352.045 308.864 352.098 309.399 351.972C309.934 351.845 310.412 351.546 310.76 351.12C311.389 350.486 312.144 349.989 312.975 349.662C313.806 349.334 314.696 349.182 315.589 349.216C316.482 349.25 317.358 349.469 318.162 349.858C318.966 350.248 319.68 350.8 320.26 351.48C320.759 352.224 321.462 352.809 322.285 353.163C323.108 353.518 324.016 353.628 324.9 353.48C325.397 353.392 325.91 353.454 326.372 353.657C326.835 353.859 327.227 354.195 327.5 354.62C328.905 356.544 330.806 358.05 333 358.98C333.46 359.243 333.84 359.625 334.101 360.086C334.361 360.547 334.492 361.07 334.48 361.6C334.689 363.096 335.352 364.493 336.38 365.6C338.502 368.114 339.886 371.167 340.38 374.42C340.9 377.82 341.22 380.88 339.16 383.64C338.336 384.904 337.633 386.244 337.06 387.64C336.491 389.011 335.451 390.134 334.127 390.805C332.803 391.476 331.282 391.652 329.84 391.3L329.08 391.22ZM336.14 371.96C336.199 371.382 336.131 370.798 335.941 370.249C335.751 369.7 335.443 369.198 335.04 368.78C334.34 368.04 333.04 368.78 333.46 369.5C333.833 370.252 334.053 371.07 334.108 371.908C334.163 372.746 334.051 373.586 333.78 374.38C333.716 374.579 333.733 374.795 333.826 374.982C333.92 375.169 334.083 375.312 334.28 375.38C334.74 375.58 335.02 375.28 335.26 374.9C335.735 373.998 336.034 373.014 336.14 372V371.96ZM315.12 353.84C314.975 353.933 314.868 354.075 314.819 354.24C314.77 354.405 314.781 354.582 314.852 354.739C314.922 354.896 315.046 355.023 315.202 355.097C315.357 355.17 315.534 355.186 315.7 355.14C316.324 354.951 316.987 354.937 317.619 355.099C318.25 355.261 318.825 355.594 319.28 356.06C319.376 356.136 319.493 356.182 319.615 356.192C319.738 356.201 319.86 356.174 319.967 356.114C320.074 356.055 320.161 355.964 320.217 355.855C320.273 355.745 320.294 355.622 320.28 355.5C320.204 355.138 320.052 354.796 319.835 354.496C319.618 354.196 319.34 353.946 319.02 353.76C318.44 353.371 317.755 353.171 317.057 353.185C316.36 353.199 315.683 353.428 315.12 353.84ZM333.28 381.36C333.237 381.457 333.231 381.566 333.262 381.667C333.293 381.769 333.36 381.855 333.45 381.911C333.54 381.967 333.647 381.989 333.752 381.972C333.857 381.955 333.952 381.901 334.02 381.82C334.429 381.421 334.703 380.903 334.804 380.34C334.904 379.777 334.826 379.196 334.58 378.68C334.543 378.601 334.482 378.536 334.405 378.495C334.329 378.454 334.241 378.44 334.155 378.453C334.069 378.467 333.99 378.508 333.929 378.57C333.869 378.633 333.83 378.714 333.82 378.8C333.734 379.67 333.553 380.529 333.28 381.36Z" fill="#65A98F"/><path d="M296.8 463.14C295.08 460.88 293.74 458.9 295.36 456.04C297.36 452.6 298.88 448.96 300.76 445.48C301.477 444.173 301.878 442.716 301.93 441.226C301.982 439.736 301.684 438.254 301.06 436.9C299.94 434.16 299.46 431.2 298.18 428.5C297.6 427.26 298.18 426.74 299.76 426.6C306.6 426.04 313.96 430.8 321.24 428.1C321.506 428.069 321.774 428.069 322.04 428.1C321.977 432.742 320.357 437.229 317.44 440.84C307.62 452.5 306 454.54 296.8 463.14Z" fill="#65A98F"/><path d="M387.08 464.26C392.76 452.26 392.46 452.88 392.76 452.38C392.937 452.003 393.22 451.686 393.576 451.469C393.932 451.252 394.344 451.144 394.76 451.16C395.168 451.206 395.552 451.377 395.86 451.649C396.167 451.921 396.384 452.281 396.48 452.68C397.92 456.8 397.94 457.88 398.78 458.68C400.06 456.3 401.28 453.9 402.58 451.58C403.88 449.26 405.44 449.12 406.96 451.34C409.335 455.154 411.185 459.271 412.46 463.58C413.22 465.82 410.04 466.12 404.18 469.58C400.9 471.58 397.56 473.48 394.4 475.58C390.22 478.46 388.56 478.1 386.08 473.76C384.329 470.988 383.128 467.905 382.54 464.68C382.4 463.72 381.96 462.46 383.24 461.9C384.52 461.34 385.24 462.14 385.94 462.96C386.291 463.418 386.672 463.852 387.08 464.26Z" fill="#65A98F"/><path d="M154.36 263.64C154.36 262.56 153.88 262.48 150.74 257.38C150.299 256.754 150.014 256.031 149.908 255.273C149.803 254.514 149.881 253.741 150.136 253.019C150.39 252.297 150.814 251.646 151.371 251.12C151.929 250.595 152.604 250.211 153.34 250C154.32 249.64 155.06 249.3 154.5 248C154.337 247.621 154.253 247.213 154.253 246.8C154.253 246.387 154.337 245.979 154.5 245.6C156.38 241.6 158.9 238.28 163.88 238.08C164.874 238.093 165.853 237.845 166.72 237.36C166.964 237.196 167.244 237.093 167.536 237.058C167.828 237.023 168.124 237.058 168.4 237.16C170.4 237.92 172.58 237.16 174.64 237.74C174.78 237.764 174.923 237.755 175.059 237.713C175.194 237.672 175.318 237.599 175.42 237.5C177.06 235.02 179.42 235.84 181.66 236.14C181.988 236.135 182.307 236.247 182.56 236.456C182.813 236.665 182.983 236.957 183.04 237.28C183.157 237.657 183.138 238.062 182.989 238.427C182.839 238.792 182.568 239.093 182.22 239.28C181.86 239.48 181.56 239.76 181.2 239.94C173.96 243.74 168.56 249.64 163.36 255.72C160.91 258.802 159.71 262.693 160 266.62C160.12 272.3 153.82 269.52 154.36 263.64Z" fill="#65A98F"/><path d="M306.22 292.94C307.48 289.64 305.48 287.12 305.4 286.06C305.4 285.32 305.1 284.48 305.86 284.06C306.218 283.856 306.632 283.774 307.041 283.828C307.449 283.883 307.828 284.069 308.12 284.36C310.342 285.87 312.424 287.577 314.34 289.46C314.846 290.061 315.32 290.689 315.76 291.34C316.76 288.48 318.74 282.84 318.92 282.36C319.033 282.025 319.257 281.738 319.556 281.549C319.854 281.36 320.209 281.279 320.56 281.32C320.885 281.322 321.199 281.431 321.456 281.63C321.713 281.829 321.897 282.106 321.98 282.42C322.445 283.803 322.721 285.243 322.8 286.7C323.64 294.94 323.38 295.8 324.22 297.38C324.365 297.601 324.462 297.85 324.502 298.112C324.542 298.373 324.526 298.64 324.454 298.894C324.381 299.148 324.255 299.384 324.084 299.585C323.913 299.786 323.7 299.948 323.46 300.06C310.34 308.96 313 307.3 310 308.42C309.648 308.574 309.252 308.596 308.885 308.483C308.517 308.369 308.203 308.126 308 307.8C306.25 305.206 304.325 302.733 302.24 300.4C301.36 299.3 300.38 298.3 299.5 297.22C298 295.4 298.56 293.76 300.86 293.22C302.626 292.889 304.429 292.794 306.22 292.94Z" fill="#65A98F"/><path d="M332 278.32C332.176 275.245 332.755 272.205 333.72 269.28C333.94 268.32 334.32 267.58 335.3 267.44C336.28 267.3 336.82 268.1 337.3 268.92C337.78 269.74 338.34 270.92 339.1 272.48C340.86 264.7 340.82 264.86 340.98 264.32C341.26 263.44 341.46 262.48 342.66 262.32C343.129 262.28 343.6 262.39 344.002 262.634C344.405 262.879 344.719 263.245 344.9 263.68C352.78 276.42 354.58 276.68 351.08 279.88C347.92 282.76 344.44 285.18 341.08 287.74C338.66 289.58 337.34 292.18 335.6 289.54C334.443 288.072 333.043 286.814 331.46 285.82C329.332 284.021 327.473 281.927 325.94 279.6C325.644 279.309 325.467 278.918 325.445 278.503C325.422 278.089 325.556 277.681 325.82 277.36C327.12 275.72 329.38 278.74 332 278.32Z" fill="#65A98F"/><path d="M317.08 461.3C316.72 457.3 317.82 453.52 316.34 450.08H315.68V461.16C315.278 461.458 314.818 461.669 314.33 461.78C313.842 461.89 313.336 461.898 312.845 461.802C312.354 461.706 311.888 461.508 311.477 461.222C311.067 460.936 310.72 460.568 310.46 460.14C310.292 459.903 310.139 459.655 310 459.4C306.98 454.58 307.58 458.2 300.54 463.4C299.96 463.84 299.34 464.36 298.54 463.86C298.88 462.68 299.88 462.14 300.54 461.38C306.54 455.52 311.78 449.06 317.28 442.82C320.721 438.912 322.824 434.007 323.28 428.82C323.262 428.436 323.391 428.06 323.639 427.766C323.888 427.473 324.238 427.285 324.62 427.24C324.845 427.199 325.066 427.139 325.28 427.06C329.78 425.92 331.14 427.32 330.06 431.9C329.206 434.585 327.849 437.083 326.06 439.26C325.116 440.803 324.025 442.249 322.8 443.58C318.14 448.2 320.34 454.2 319.42 457.92C319.101 459.304 318.263 460.514 317.08 461.3Z" fill="#65A98F"/><path d="M184.4 127.26C184.92 131.38 183.8 136.12 183.36 140.92C183.22 142.34 182.32 143.56 182.88 145.24C183.3 146.46 180.24 147.9 179.1 147.06C178.884 146.871 178.616 146.751 178.331 146.715C178.046 146.679 177.756 146.73 177.5 146.86C176.26 147.38 175.5 146.86 175.36 145.62C175.061 144.143 174.88 142.645 174.82 141.14C174.82 134.84 173.9 128.6 173.7 122.34C173.6 119.12 174.12 118.64 177.34 118.34C178.738 118.326 180.133 118.233 181.52 118.06C183.52 117.68 184.3 118.44 184.38 120.52C184.46 122.6 184.4 124.52 184.4 127.26Z" fill="#65A98F"/><path d="M192 457.7C191.829 455.733 192.096 453.752 192.78 451.9C195.58 437.9 202.06 420.52 205.68 407.5C207.539 401.849 209.881 396.369 212.68 391.12C217.736 380.496 221.942 369.488 225.26 358.2C226.382 353.794 226.96 349.267 226.98 344.72C226.98 343.14 227.16 341.58 227.22 340.02C227.22 339.46 227.22 338.88 227.94 338.8C228.66 338.72 228.94 339.36 228.94 339.96C228.94 343.24 228.94 346.5 228.8 349.76C227.94 361.56 222.8 372.06 218.6 382.82C215.98 389.48 212.6 395.82 209.72 402.4C207.38 407.8 206.12 413.56 204.32 419.16C194.32 450.76 196.6 444.28 193.54 455.46C193.32 456.28 193.38 457.38 192 457.7Z" fill="#65A98F"/><path d="M231.38 450.56C231.352 451.09 231.192 451.605 230.917 452.058C230.641 452.512 230.257 452.89 229.8 453.16C225.891 455.909 221.701 458.236 217.3 460.1C216.928 460.262 216.539 460.383 216.14 460.46C215.719 460.593 215.267 460.598 214.843 460.473C214.419 460.349 214.042 460.1 213.76 459.76C212.08 457.76 215.52 455.24 216.62 453.64C217.611 452.575 218.458 451.385 219.14 450.1C220.14 447.3 222.64 446.22 224.66 444.56C224.986 444.307 225.376 444.15 225.786 444.107C226.196 444.065 226.61 444.139 226.98 444.32C229.163 445.79 230.729 448.01 231.38 450.56Z" fill="#65A98F"/><path d="M186.44 466.88C183.908 466.847 181.385 466.586 178.9 466.1C178.066 465.962 177.283 465.609 176.627 465.076C175.971 464.543 175.465 463.848 175.16 463.06C175.071 462.907 175.018 462.737 175.005 462.561C174.992 462.384 175.019 462.208 175.084 462.044C175.15 461.88 175.252 461.733 175.383 461.614C175.514 461.496 175.67 461.409 175.84 461.36C179.612 459.632 183.693 458.68 187.84 458.56C189.908 458.281 192.012 458.673 193.84 459.68C194.39 459.947 194.855 460.361 195.184 460.876C195.512 461.392 195.691 461.989 195.7 462.6C195.728 463.273 195.552 463.938 195.195 464.509C194.838 465.081 194.317 465.53 193.7 465.8C191.396 466.718 188.911 467.087 186.44 466.88Z" fill="#65A98F"/><path d="M214 408.4C214.88 408.4 215.22 409.14 215.42 409.78C217.26 415.78 215.16 410.28 224.4 441.5C224.6 442.2 225.46 443.22 224.4 443.66C223.34 444.1 222.9 442.84 222.6 442.06C219.08 432.4 215.66 418.92 213.4 410.06C213.24 409.38 212.96 408.66 214 408.4Z" fill="#65A98F"/><path d="M293.04 333.52C293.217 332.868 293.522 332.259 293.938 331.726C294.353 331.194 294.871 330.75 295.46 330.42C295.776 330.259 296.142 330.23 296.48 330.338C296.817 330.447 297.098 330.685 297.26 331C298.911 333.741 300.368 336.595 301.62 339.54C301.803 340.098 301.781 340.703 301.557 341.246C301.334 341.788 300.923 342.233 300.4 342.5C299.44 343.16 298.58 342.38 298.04 341.64C296.396 339.461 294.887 337.183 293.52 334.82C293.327 334.399 293.167 333.965 293.04 333.52Z" fill="#65A98F"/><path d="M216.76 231.48C214.54 231.48 212.54 230.02 212.54 228.4C212.649 227.417 213.118 226.509 213.856 225.852C214.595 225.194 215.551 224.834 216.54 224.84C217.417 224.756 218.292 225.022 218.974 225.58C219.655 226.139 220.089 226.943 220.18 227.82C220.201 228.286 220.129 228.752 219.968 229.19C219.807 229.628 219.56 230.029 219.241 230.37C218.922 230.711 218.539 230.985 218.113 231.176C217.687 231.366 217.227 231.47 216.76 231.48Z" fill="#65A98F"/><path d="M186.22 228.66C186.22 226.26 187.68 225.22 189.98 225.92C193.88 227.08 195.3 231.2 191.76 232.24C191.16 232.405 190.531 232.442 189.915 232.347C189.3 232.252 188.711 232.029 188.188 231.691C187.665 231.353 187.219 230.908 186.88 230.386C186.541 229.863 186.316 229.275 186.22 228.66Z" fill="#65A98F"/><path d="M307.72 371.64C311.38 371.64 310.7 377.24 308.02 377.2C307.308 377.045 306.665 376.663 306.189 376.111C305.712 375.559 305.429 374.867 305.38 374.14C305.355 373.819 305.397 373.496 305.504 373.192C305.61 372.888 305.779 372.61 305.999 372.374C306.219 372.139 306.486 371.953 306.782 371.826C307.079 371.7 307.398 371.636 307.72 371.64Z" fill="#65A98F"/><path d="M430 229.32C430.605 228.902 431.032 228.275 431.2 227.56C430.68 227.56 352.66 280.54 341.58 288.22C322.16 301.68 303.86 317.12 283.22 329C280.868 330.548 278.623 332.251 276.5 334.1C257.16 293.22 262.5 304.94 256.86 294.46C254.86 290.72 252.86 286.82 250.86 283.06C247.6 277.38 243.58 271.8 240.86 265.78C234.42 251.78 223.36 245.78 210.14 237.16C210.14 237.16 216.86 228.96 218.94 226.5C220.079 225.072 220.623 223.259 220.46 221.44V209.02C220.46 208.52 220.66 207.62 221.12 207.36C222.555 206.432 223.746 205.175 224.595 203.693C225.444 202.21 225.926 200.546 226 198.84C231.22 197.92 234 193.12 234.64 187.9C235.26 183.12 230.84 175.78 225.84 174.54C226.14 170.72 224.92 167.12 220.36 163.24C216.68 160.14 212.58 160.2 208.24 162.28C204.7 156.96 199.42 155.38 193.1 155.84C186.78 156.3 182.16 159.24 180.7 165.5C178.829 165.357 176.951 165.357 175.08 165.5C167.38 166.76 162.18 170.42 159.2 176.66C158.586 177.726 158.275 178.939 158.299 180.169C158.324 181.399 158.684 182.599 159.34 183.64C159.92 184.58 160.24 185.28 161.34 187.2C155.34 188.9 152.16 192.86 150.5 198.96C148.96 204.6 151.14 209.32 155.18 213.58C154.524 214.694 153.956 215.858 153.48 217.06C151.78 222.86 155.48 230.8 161.48 233.72C163.16 234.58 163.2 235.42 162.96 236.44C154.66 237.42 151.1 238.76 152.2 246.44C152.2 246.64 152.2 246.58 152.06 246.66C150.319 247.185 148.783 248.236 147.663 249.668C146.542 251.1 145.892 252.844 145.8 254.66C145.8 259.28 147.8 261.48 152.12 263.12C151.72 268.32 154.76 269.76 159.92 270.4C155.92 305 156.4 302.4 155.74 305.9C149.54 339.76 147.24 342.14 149.4 347.58C146.388 350.907 144.154 354.863 142.86 359.16C142.2 361.3 143.7 362.98 145.68 362.16C147.383 361.355 148.97 360.326 150.4 359.1C151.312 358.148 152.129 357.11 152.84 356C153.34 357.72 154.26 359.56 155.62 358.74C156.98 357.92 156.78 357.9 159.62 351.04H159.76C161.24 351.22 162.1 350.34 162.4 348.38C162.585 347.21 162.936 346.072 163.44 345C172.42 326.32 172.62 326.06 175.62 320.76C176.16 324.76 175.62 325.8 175.2 336.5C175.2 338.02 175.68 338.86 177 339.18C177.28 339.302 177.528 339.486 177.725 339.718C177.923 339.95 178.065 340.224 178.14 340.52C192.34 398.7 188.14 383.76 191.68 393.9C187.54 396.36 185.68 397.34 183.54 398.84C176.38 403.68 98.9601 458.08 92.7601 462.52C91.8001 463.2 91.5601 463.8 91.6001 463.9C91.6401 464 91.9401 464.04 93.2401 463.14C94.5401 462.24 188.5 398 192.52 395.74C194.12 399.74 195.08 399.6 193.74 405.28C184.52 444.48 185.2 440.76 183.64 451.88C183.628 453.063 183.749 454.244 184 455.4L182.74 455.72C178.18 456.9 180.44 455.88 176.48 457.04C175.105 457.343 173.805 457.921 172.66 458.74C170.02 461.02 169.94 463.46 173.34 464.6C178.846 466.668 184.733 467.527 190.6 467.12C192.204 467.063 193.725 466.388 194.843 465.237C195.961 464.085 196.591 462.545 196.6 460.94C196.742 459.921 197.118 458.949 197.7 458.1C199.22 455.44 198.2 457.02 203.56 438.36C204.52 435.04 205.34 432.66 207.44 426.22L216 448.4C213.62 452.4 211.74 455.4 209.88 458.74C208.58 461.12 210.06 462.26 212.68 461.88C213.579 461.697 214.443 461.373 215.24 460.92C220.048 458.804 224.723 456.4 229.24 453.72C229.789 453.447 230.219 452.984 230.451 452.417C230.683 451.851 230.7 451.219 230.5 450.64C229.56 447.8 228.02 444.34 227.88 443.12C226.86 434.34 229.04 442.3 223.14 420.74C216.84 397.7 216.9 398.4 217.14 397.58C220.14 389.86 222.92 382.86 225.62 376.16C225.952 375.371 226.482 374.682 227.16 374.16C259.46 350 250 357.32 264.52 347.48C264.84 347.26 265 346.68 265.18 346.24C264.7 346.216 264.22 346.305 263.78 346.5C231.78 368.5 235.6 365.96 227.64 372.38C228.294 368.841 230.285 365.69 233.2 363.58C234.9 362.36 263.04 342.86 263.04 342.86C265.84 344.56 267.78 347.52 271.66 346.56C271.9 346.56 271.66 345.8 274.24 353.08C275.54 356.58 275.76 356.46 278.24 353.48C279.568 355.09 280.983 356.626 282.48 358.08C284.36 360.54 283.32 361.7 283.86 363.4C285.86 369.8 287.74 376.46 290 382.84C295.22 397.56 291.36 411.16 290.68 419.28C290.444 420.427 290.526 421.616 290.918 422.719C291.309 423.823 291.994 424.798 292.9 425.54C294 426.34 294.3 427.12 295.24 429.7C299.9 442.28 300.38 439.84 298.72 443.22C296.62 447.48 295.84 449.64 294.6 452.66C293.439 454.755 293.083 457.201 293.6 459.54C292.655 459.178 291.677 458.91 290.68 458.74C289.92 458.74 288.94 458.9 288.78 459.22C288.623 459.565 288.542 459.94 288.542 460.32C288.542 460.699 288.623 461.074 288.78 461.42C289.98 463.725 291.896 465.578 294.24 466.7C297.7 468.3 297.88 465.48 299.28 464.7C300.68 463.92 302.74 462.86 304.3 461.78C305.649 460.741 306.938 459.626 308.16 458.44L310.16 463.4C308.6 464.36 306 465.68 306.78 467.52C307.081 468.111 307.6 468.561 308.228 468.774C308.856 468.987 309.542 468.946 310.14 468.66C311.961 468.097 313.734 467.388 315.44 466.54C317.18 465.62 318.7 464.54 318.4 462.34C318.39 462.122 318.461 461.908 318.6 461.74C318.838 461.251 319.052 460.75 319.24 460.24C320.2 458 320.2 457.9 320.12 451.7V447.38C320.158 446.446 320.479 445.547 321.04 444.8C324.171 441.226 326.461 436.996 327.74 432.42C328.453 430.454 328.612 428.33 328.2 426.28C328.08 425.88 328.34 425.58 328.6 425.26C328.979 424.857 329.241 424.36 329.36 423.82C332.36 428.5 333.26 430 334.9 432.32C335.548 433.397 336.454 434.296 337.536 434.935C338.619 435.574 339.844 435.933 341.1 435.98C341.531 436.008 341.937 436.193 342.24 436.5C343.555 437.622 345.257 438.183 346.981 438.063C348.705 437.943 350.313 437.152 351.46 435.86C351.671 435.531 351.815 435.164 351.884 434.78C351.953 434.395 351.944 434.001 351.86 433.62C351.58 432.8 347.32 432.62 346.44 432.54C348.3 426.96 348 429.08 340.98 415.76C340.616 414.977 340.425 414.124 340.42 413.26C340.3 399.92 341.84 392.82 335.34 390.78C336.44 387.08 336.52 385.64 337.2 385.14C338.335 384.287 339.184 383.109 339.634 381.762C340.084 380.416 340.114 378.964 339.72 377.6C339.522 376.76 339.592 375.879 339.92 375.08C340.563 373.277 340.675 371.327 340.242 369.462C339.81 367.597 338.851 365.896 337.48 364.56C337.096 364.153 336.876 363.619 336.86 363.06C336.884 361.832 336.587 360.62 335.997 359.543C335.408 358.466 334.547 357.561 333.5 356.92C332.306 356.477 331.052 356.221 329.78 356.16C328.44 350.82 326.5 350.04 322.48 350.86C321.39 349.706 320.145 348.71 318.78 347.9C317.465 347.379 316.037 347.207 314.636 347.4C313.234 347.593 311.906 348.144 310.78 349C310.521 349.18 310.227 349.305 309.918 349.367C309.608 349.429 309.289 349.427 308.98 349.36C308.278 349.113 307.53 349.024 306.789 349.099C306.048 349.173 305.333 349.41 304.694 349.791C304.054 350.173 303.507 350.691 303.09 351.307C302.673 351.924 302.396 352.625 302.28 353.36C301.9 356.7 301.88 359.5 304.28 361.88C302.28 366.38 303.02 364.94 300.88 369.56C298.08 364.42 294 356.36 291.42 354.2C287.58 350.98 288.36 348.58 283.62 346.38C281.62 345.48 280.4 343.16 278.9 341.52C278.869 339.451 278.304 337.426 277.26 335.64C277.2 335.44 429.68 229.46 430 229.32ZM218.12 211.48C217.24 221.18 219.48 224.26 215.88 228.14C213.42 230.8 210.88 233.66 208.18 236.14C207.259 236.997 206.149 237.625 204.939 237.973C203.73 238.32 202.456 238.377 201.22 238.14C196.7 237.4 192.12 236.88 187.62 236.14C185.993 235.644 184.423 234.973 182.94 234.14C185.96 229.4 186.14 224.88 182.06 219.56C181.58 218.94 181.66 219.02 182.18 212.46C183.2 213.114 184.399 213.431 185.608 213.366C186.817 213.301 187.976 212.858 188.92 212.1C189.229 211.983 189.571 211.983 189.88 212.1C197.04 214.1 200.66 212.7 204.2 206.1L204.56 205.62C208.56 209.02 211.08 209 215.28 206.48C218 207.24 218.38 208.74 218.12 211.48ZM200.84 240.1L203.52 240.36C202.58 244.36 204.7 240.74 195.24 255.34C190.66 250.531 187.311 244.684 185.48 238.3C201.24 240.42 199.7 240.14 199.7 240.3C199.708 241.316 199.774 242.331 199.9 243.34C200.04 244.04 201 244.88 201.06 243.34C201.045 242.257 200.972 241.175 200.84 240.1ZM154.64 219.52C154.444 218.633 154.588 217.706 155.043 216.92C155.499 216.135 156.233 215.549 157.1 215.28C157.274 215.241 157.436 215.161 157.571 215.046C157.707 214.931 157.813 214.785 157.88 214.62C158.1 213.9 157.66 213.54 154.6 209.82C148.78 202.7 153.8 191.14 161.08 188.92C162.88 188.36 163.82 188.06 162.8 186.78C157.72 180.44 159.7 176.64 165.42 171.46C168.525 168.77 172.421 167.162 176.52 166.88C177.592 166.848 178.66 167.031 179.66 167.42C181.52 168.02 181.84 167.98 182.48 166.04C183.062 163.48 184.528 161.206 186.62 159.62C191.22 156.58 199.26 156.5 203.48 159.44C206.7 161.68 207.08 165.78 209.3 163.9C210.307 163.076 211.522 162.549 212.811 162.376C214.1 162.203 215.412 162.391 216.6 162.92C218.528 163.644 220.241 164.846 221.577 166.413C222.913 167.981 223.83 169.862 224.24 171.88C224.435 172.702 224.435 173.558 224.24 174.38C223.66 177.38 225.86 175.36 228.5 177.94C229.673 179.102 230.707 180.398 231.58 181.8C232.779 184.119 233.176 186.771 232.709 189.339C232.242 191.908 230.938 194.25 229 196C228.04 196.72 227 197.54 225.68 196.26C225.503 196.183 225.313 196.143 225.12 196.143C224.927 196.143 224.737 196.183 224.56 196.26C223.56 197.36 225.66 201.16 221.24 205.74C220.923 205.977 220.573 206.166 220.2 206.3C220.2 205.92 220.04 204.3 217.32 203.64C216.254 203.34 215.131 203.307 214.05 203.544C212.969 203.782 211.962 204.281 211.12 205C210.82 205.44 210.7 205.82 210.8 205.94C210.9 206.06 211.92 205.78 214.92 204.88L214.68 205.32C213.908 206.449 212.727 207.233 211.386 207.506C210.046 207.778 208.652 207.518 207.5 206.78C205.74 205.48 204.72 203.68 203.98 203.82C203.24 203.96 203.12 205.82 200.62 209.22C198.62 211.9 193.48 212.38 191.02 211.38C190.43 211.041 189.874 210.646 189.36 210.2C190.219 209.585 191.192 209.146 192.222 208.91C193.252 208.673 194.318 208.642 195.36 208.82C195.96 208.92 196.74 208.96 196.52 208.38C196.328 207.972 196.004 207.641 195.6 207.44C194.18 207.175 192.717 207.246 191.328 207.645C189.94 208.044 188.663 208.761 187.6 209.74C187.26 210.06 187.16 210.6 187.1 211.74C186.861 211.998 186.573 212.205 186.253 212.351C185.932 212.497 185.587 212.578 185.235 212.589C184.884 212.6 184.533 212.541 184.205 212.416C183.876 212.291 183.575 212.102 183.32 211.86C181.76 210.7 180.3 209.36 178.9 208.16C176.7 206.26 176.78 206.9 178.4 209.12C183.54 216.2 177.14 216.26 182.3 223.4C183.104 224.724 183.558 226.232 183.62 227.78C183.759 228.588 183.71 229.417 183.476 230.203C183.243 230.988 182.832 231.71 182.275 232.311C181.718 232.913 181.03 233.378 180.265 233.671C179.499 233.964 178.676 234.076 177.86 234C176.38 233.923 174.915 233.661 173.5 233.22C171.125 232.361 168.547 232.236 166.1 232.86C165.318 233.067 164.504 233.128 163.7 233.04C158.12 230.7 155.16 226.32 154.64 219.52ZM172.78 235.02C172.947 235.141 173.077 235.306 173.155 235.497C173.233 235.688 173.255 235.897 173.22 236.1C173.191 236.304 173.103 236.495 172.969 236.651C172.834 236.807 172.658 236.921 172.46 236.98C171.279 237.357 170.028 237.465 168.799 237.296C167.57 237.126 166.395 236.683 165.36 236C165.215 235.893 165.099 235.75 165.026 235.586C164.952 235.421 164.922 235.24 164.94 235.06C164.954 234.881 165.016 234.71 165.117 234.562C165.219 234.415 165.358 234.297 165.52 234.22C166.686 233.67 167.982 233.453 169.263 233.595C170.545 233.736 171.762 234.229 172.78 235.02ZM156.78 268.36C151.86 266.58 154.34 262.88 153.66 261.9C153.554 261.78 153.426 261.682 153.281 261.614C153.137 261.545 152.98 261.506 152.82 261.5C151.812 261.382 150.847 261.021 150.01 260.447C149.172 259.874 148.486 259.105 148.012 258.207C147.538 257.31 147.289 256.31 147.287 255.295C147.285 254.28 147.529 253.279 148 252.38C148.73 251.093 149.717 249.969 150.9 249.08C151.44 248.62 152.5 248.9 153.26 248.84C154.02 248.78 154.66 248.84 155 248.6C155.34 248.36 155.18 247.64 155 247.14C151.14 238.38 160.62 236.84 170.02 238.82C171.241 239.121 172.531 238.959 173.639 238.364C174.748 237.769 175.596 236.784 176.02 235.6C177.029 235.716 178.045 235.756 179.06 235.72C180.023 235.532 180.972 235.278 181.9 234.96C182.1 234.96 181.9 234.62 183.52 236.96C183.52 236.96 169.52 249.98 165.14 254.3C162.56 256.78 162.48 259.04 160.22 269.1C158.72 268.84 157.7 268.7 156.7 268.36H156.78ZM155.2 358C154.86 358 154.7 357.54 154.48 356.84C154.26 356.14 153.58 354.22 153.02 354.14C152.46 354.06 152.1 354.68 151.52 355.34C150.94 356 150.74 356.94 150.08 357.54C148.712 358.758 147.262 359.88 145.74 360.9C144.52 361.74 143.12 361 144.76 357.86L149.7 348.36C154.84 351.02 152.76 350.36 158.02 351.22C155.86 357.34 155.72 358 155.2 358ZM190.34 465.3C184.48 465.701 178.605 464.792 173.14 462.64C171.9 462 172.7 459.8 175.64 458.98C178.58 458.16 180.9 457.72 184.16 456.98C184.66 456.86 184.56 456.88 194.68 460.7C194.721 461.296 194.639 461.895 194.44 462.459C194.241 463.023 193.929 463.54 193.522 463.978C193.115 464.417 192.623 464.767 192.076 465.008C191.529 465.249 190.938 465.376 190.34 465.38V465.3ZM226.34 445.18C231.48 452.34 228.34 452.76 212.64 460.04C212.489 460.1 212.323 460.111 212.165 460.072C212.008 460.033 211.866 459.946 211.761 459.822C211.655 459.699 211.59 459.546 211.576 459.384C211.561 459.222 211.598 459.06 211.68 458.92C215.46 453.34 217.68 448.38 218.74 447.98C226.64 444.84 226.18 445.1 226.38 445.26L226.34 445.18ZM217.1 403.76C227.3 442.22 224.98 432.92 226.08 441.76C226.153 442.198 226.058 442.648 225.813 443.019C225.568 443.39 225.192 443.655 224.76 443.76C215.2 447.42 218.98 449.94 210.76 429.9C210.76 429.9 211.32 430.92 207.78 423.14L215 401.34C215.041 401.212 215.125 401.102 215.238 401.029C215.351 400.956 215.486 400.924 215.62 400.94C215.75 400.946 215.875 400.991 215.979 401.069C216.082 401.148 216.16 401.256 216.2 401.38C216.74 402.58 216.94 403.1 217.14 403.84L217.1 403.76ZM216.64 394.96C216.02 396.76 204.64 428.96 202.08 436.54C200.08 442.68 198.48 449.1 196.62 455.3C195.74 458.3 195.44 458.3 192.62 457.58C187.84 456.36 184.42 455.46 185.58 450.08C189.1 433.7 195.88 408.52 201.32 365.72C201.78 362 201.92 358.18 202.06 354.46C202.06 352.08 202.34 349.92 201.92 349.66C201.5 349.4 200.88 350.5 200.84 351.32C200.08 365.875 198.248 380.354 195.36 394.64C195.36 394.86 195.36 394.64 194.96 396.42C187.26 377.26 185.38 358.94 180.4 339.84C190.68 341.12 205.38 343.32 217.94 342.88C219.756 342.773 221.529 342.282 223.142 341.441C224.755 340.6 226.172 339.427 227.3 338C228.4 336.7 229.18 336.84 229.98 338.16C230.553 339.136 231.391 339.93 232.396 340.45C233.401 340.97 234.532 341.195 235.66 341.1C235.194 344.67 234.384 348.186 233.24 351.6C225.16 375.16 227.42 363.76 216.68 395.04L216.64 394.96ZM261.6 341.68L231.8 362.86C234.62 355.82 237.36 348.86 237.48 341.1C240.94 339.62 241.16 339.26 240.4 335.56C234.8 308.54 232.62 312.38 234.8 310.76C263.88 344 262 341.56 261.64 341.76L261.6 341.68ZM266.34 342.52C257.5 335.12 250.54 326 243.22 318C235.681 310.237 229.113 301.587 223.66 292.24C221.978 289.567 220.086 287.032 218 284.66C217.86 284.5 217 284.12 216.72 284.3C216.44 284.48 218.16 287.4 219.74 289.82C217.968 289.073 216.105 288.562 214.2 288.3C214.2 288.48 214.88 289.24 215.08 289.36C216.387 290.081 217.769 290.657 219.2 291.08C219.805 291.232 220.37 291.515 220.854 291.909C221.337 292.303 221.729 292.798 222 293.36C226.62 300.94 230.32 306.24 230.62 307.18C233.88 316.775 236.551 326.56 238.62 336.48C238.96 338.12 238.5 338.76 236.82 338.94C231.18 339.58 231.7 335.24 228.98 334.94C228.459 334.938 227.944 335.057 227.476 335.285C227.008 335.514 226.599 335.848 226.28 336.26C224.943 337.759 223.299 338.953 221.46 339.761C219.62 340.568 217.629 340.97 215.62 340.94C202.8 340.94 194.8 339.58 176.7 337.12C178.14 312.7 178.3 320.1 176.7 298.14C176.57 294.048 176.021 289.98 175.06 286C173.32 278.66 173.68 277.02 173.48 263.42C173.48 263.42 173.48 263.18 173.08 262.9C172.654 263.5 172.355 264.18 172.2 264.9C172.06 272.22 170.72 279.72 173.46 286.9C174.512 290.509 175.084 294.241 175.16 298C175.66 303.3 175.98 308.78 176.3 314.22C176.426 315.056 176.377 315.908 176.156 316.724C175.936 317.54 175.549 318.301 175.02 318.96C173.824 320.583 172.811 322.334 172 324.18C168.26 331.64 163.36 339.26 160.54 349.34C157.58 349.46 154.82 349.58 152.38 347.8C151.71 347.418 151.165 346.85 150.81 346.165C150.455 345.48 150.306 344.708 150.38 343.94C154.5 316.32 155.06 319.72 157.46 305.32C158.34 299.96 158.48 294.42 159.14 289C160.26 279.92 160.6 270.62 163.3 261.76C164.122 259.048 165.671 256.613 167.78 254.72C173.78 249.18 179.54 243.18 184.44 238.72C186.44 245.26 189.04 251.2 193.88 256.04C195.4 257.56 195.66 257.54 196.82 255.7C203.16 245.7 203.72 245.7 204.68 240.98C205 239.3 208.12 237.44 209.54 238.46C213.24 241.1 216.8 244.02 220.6 246.46C225.111 249.424 229.195 252.99 232.74 257.06C236.14 260.92 242.4 272.44 243.7 274.16C244.027 274.542 244.291 274.974 244.48 275.44C245.551 278.365 247.04 281.121 248.9 283.62C251.175 286.953 253.086 290.52 254.6 294.26C258.1 301.86 257.52 298.26 266.04 316.66C268.04 320.82 267.54 320.04 276.26 337.46C276.94 338.82 277.5 340.34 275.5 341.46C275.178 341.686 274.883 341.948 274.62 342.24C271.32 345.04 269.78 345.46 266.38 342.6L266.34 342.52ZM294.98 465.4C292.597 464.135 290.62 462.221 289.28 459.88C290.93 459.868 292.559 460.248 294.033 460.988C295.507 461.729 296.785 462.809 297.76 464.14C297.74 464.5 297.36 466.58 295.02 465.48L294.98 465.4ZM316.62 463.98C315.664 465.009 314.506 465.831 313.22 466.395C311.933 466.959 310.545 467.253 309.14 467.26C309.023 467.253 308.91 467.214 308.813 467.147C308.717 467.08 308.641 466.987 308.593 466.88C308.546 466.773 308.529 466.654 308.544 466.538C308.559 466.421 308.606 466.311 308.68 466.22C310.544 464.182 313.093 462.901 315.84 462.62C316.015 462.578 316.198 462.593 316.363 462.662C316.529 462.732 316.668 462.853 316.759 463.007C316.851 463.162 316.891 463.341 316.873 463.52C316.855 463.699 316.781 463.867 316.66 464L316.62 463.98ZM319.4 447.78C319.4 448.76 319 455.34 318.86 457.64C318.868 458.101 318.783 458.559 318.61 458.986C318.437 459.413 318.179 459.801 317.852 460.126C317.525 460.451 317.136 460.707 316.708 460.878C316.279 461.048 315.821 461.131 315.36 461.12C314.629 461.389 313.843 461.474 313.072 461.365C312.301 461.257 311.569 460.96 310.94 460.5C310.467 460.107 310.091 459.61 309.841 459.048C309.592 458.486 309.475 457.874 309.5 457.26C309.5 456.74 309.34 457.02 318.56 447.26C319.58 447.76 319.44 447.66 319.44 447.86L319.4 447.78ZM326 433.6C324.907 436.386 323.374 438.979 321.46 441.28C315.26 448.12 308.72 454.84 302.38 461.28C299.88 463.84 299.48 464.48 297.12 462.26C296.011 461.458 295.218 460.292 294.878 458.966C294.538 457.64 294.673 456.237 295.26 455L303.68 435.64C304.24 434.3 304.2 433.46 304.06 433.4C303.92 433.34 302.94 434.4 301.92 436.58C301.517 437.532 301 438.432 300.38 439.26L295.74 426.46C298.922 427.048 302.145 427.383 305.38 427.46C324.12 428.88 318.72 428.48 327.56 427.08C327.258 429.3 326.735 431.484 326 433.6ZM316 427.14C309.88 426.62 299.5 426 294.8 425.4C292.8 425.16 291.36 422.7 291.54 420.12C291.662 418.704 291.855 417.296 292.12 415.9C292.62 412.96 292.64 412.96 293.8 400.38C307.5 393.42 306.42 393.84 306.62 394.04C309.06 396.66 311.46 396.74 314.42 394.28C314.63 394.017 314.892 393.8 315.19 393.643C315.487 393.485 315.814 393.39 316.149 393.364C316.485 393.338 316.822 393.381 317.141 393.49C317.459 393.599 317.752 393.773 318 394C318.447 394.328 318.93 394.604 319.44 394.82C318.611 397.457 318.434 400.257 318.925 402.977C319.417 405.698 320.561 408.259 322.26 410.44C323.916 412.596 325.262 414.972 326.26 417.5C326.98 419.3 328 420.96 328.96 422.8C326 427.46 321.54 427.6 316 427.14ZM293.66 397.44C298.4 395.58 300.9 391.66 303.96 387.44L306.66 392.22L293.56 399.58C293.58 398.56 293.64 398.5 293.68 397.44H293.66ZM322.76 407.44C323.06 409.24 322.98 409.2 322.64 409.76C320.48 405.32 318.88 401 320.22 396.18C320.857 394.729 321.707 393.381 322.74 392.18L323.66 392.32C323.78 393.1 324.1 393.68 323.9 394.22C322.289 398.419 321.901 402.989 322.78 407.4L322.76 407.44ZM351.24 434.18C350.852 434.883 350.311 435.49 349.656 435.956C349.001 436.421 348.25 436.733 347.458 436.867C346.666 437.002 345.854 436.956 345.082 436.733C344.31 436.51 343.598 436.116 343 435.58C344.22 434.52 344.86 433.94 345.6 433.32C346.34 432.7 346.32 433.06 351.26 434.14L351.24 434.18ZM344.42 424.18C346.52 428.36 347.52 429.04 344.42 432.52C341.6 435.64 338.42 435.14 336.42 432.06C333.24 427.14 329.88 421.82 326.84 416.42C324.981 413.195 323.806 409.621 323.39 405.922C322.973 402.223 323.324 398.478 324.42 394.92C324.568 394.564 324.748 394.222 324.96 393.9C325.82 394.46 326.3 394.56 326.62 395C333.307 404.257 339.265 414.02 344.44 424.2L344.42 424.18ZM340 402.6V413.62C334.5 406.34 333.34 399.88 327.44 394.64L327.66 394.5C329.66 393.1 330.84 393.2 332.22 394.9C333.275 396.234 334.099 397.735 334.66 399.34C335.46 401.74 336.66 402.6 338.66 402.34C339.118 402.355 339.57 402.443 340 402.6ZM338.32 394.24C338.96 396.36 339.14 398.9 339.78 401.48H339.54C339.083 401.588 338.61 401.601 338.148 401.519C337.686 401.437 337.246 401.261 336.854 401.003C336.462 400.744 336.128 400.408 335.871 400.016C335.614 399.623 335.44 399.182 335.36 398.72C334.5 396.32 333.36 393.9 330.64 393.06C330.3 393.06 330.26 392.52 329.94 391.9C331.04 391.4 330.46 391.44 332.28 391.32C332.802 391.304 333.323 391.257 333.84 391.18C334.778 391.299 335.675 391.639 336.457 392.17C337.239 392.702 337.884 393.411 338.34 394.24H338.32ZM303.76 354.36C303.716 353.691 303.86 353.023 304.177 352.433C304.494 351.842 304.97 351.352 305.551 351.018C306.133 350.685 306.796 350.521 307.466 350.546C308.136 350.571 308.785 350.784 309.34 351.16C310.14 351.7 310.36 351.74 310.96 350.92C311.943 349.766 313.295 348.989 314.786 348.719C316.277 348.449 317.816 348.704 319.14 349.44C320.76 350.52 320.48 353.02 322.34 352.48C324.72 351.78 326.18 351.76 327.18 352.48C328.92 353.62 328.78 356.48 329.18 357.38C329.526 357.402 329.874 357.402 330.22 357.38C334.22 357.38 336.22 360.2 335.24 364.06C335.194 364.347 335.215 364.641 335.302 364.919C335.389 365.196 335.539 365.45 335.74 365.66C337.181 366.499 338.277 367.821 338.833 369.393C339.39 370.964 339.371 372.681 338.78 374.24C338.369 374.817 338.129 375.498 338.086 376.205C338.044 376.913 338.201 377.618 338.54 378.24C338.916 379.323 338.902 380.503 338.5 381.576C338.098 382.65 337.334 383.55 336.34 384.12C336.061 384.349 335.834 384.636 335.676 384.96C335.517 385.284 335.43 385.639 335.42 386C335.503 386.671 335.397 387.353 335.115 387.967C334.832 388.582 334.384 389.106 333.82 389.48C331.26 391.1 329.94 388.2 328.98 391.02C328.02 393.84 326.58 393.88 324.74 391.86C323.16 390.14 323.22 390.08 321.62 391.86C320.02 393.64 319.4 393.86 317.84 391.72C317.664 391.598 317.464 391.516 317.254 391.478C317.043 391.44 316.827 391.448 316.62 391.5C315.94 391.62 314.94 392.5 314.46 392.18C313.98 391.86 313.72 390.82 313.36 390.18C316.92 388.8 318.14 389.58 318.88 384.8C319.031 384.209 318.957 383.583 318.673 383.043C318.388 382.504 317.913 382.089 317.34 381.88C316.218 381.812 315.092 381.913 314 382.18V382.02C313.48 380.18 313.76 379.5 315.6 378.48C315 375.96 314.24 373.56 316.4 371.5C316.562 371.278 316.67 371.022 316.715 370.751C316.76 370.48 316.741 370.202 316.66 369.94C314.32 366.3 317.1 362.9 314.46 363.94C309.12 366.24 308.84 360.2 308.32 359.94L308.14 360.22C308.017 360.484 307.804 360.697 307.54 360.82C307.225 360.959 306.884 361.03 306.54 361.03C306.196 361.03 305.855 360.959 305.54 360.82C303.3 359.28 303.72 356.9 303.78 354.36H303.76ZM300.68 370.68C303.14 369.3 303.3 365.84 304.46 363.6C304.61 363.238 304.854 362.922 305.168 362.686C305.481 362.45 305.851 362.302 306.241 362.257C306.63 362.212 307.025 362.272 307.383 362.431C307.742 362.59 308.052 362.841 308.28 363.16C310.28 365.68 310.28 365.58 314.28 365.58C314.365 367.317 314.822 369.015 315.62 370.56C314.54 371.42 313.62 372.42 313.9 376.34C314.06 378.34 311.7 380.6 313.52 383.62C314.1 384.54 314.5 384.56 315.18 383.62C315.34 383.4 316.28 382.44 316.68 382.66C317.335 383.051 317.825 383.669 318.055 384.396C318.286 385.124 318.242 385.911 317.931 386.608C317.621 387.305 317.066 387.864 316.371 388.18C315.676 388.495 314.889 388.545 314.16 388.32C313.34 388.14 312.66 388.32 312.62 389.26C312.584 390.248 312.624 391.238 312.74 392.22C312.779 392.792 312.591 393.356 312.216 393.79C311.842 394.225 311.312 394.494 310.74 394.54C308.74 394.76 307.56 394.3 307.44 392.22C307.22 388.56 304.3 386.34 302.1 383.82C300.4 381.82 297 380.2 299.52 374.32C300 373.48 300.58 370.74 300.7 370.68H300.68ZM290.68 355C297.66 364.82 295 361.78 298.16 366.42C299.007 367.495 299.513 368.799 299.613 370.164C299.712 371.529 299.402 372.893 298.72 374.08C298.605 374.313 298.504 374.554 298.42 374.8C296.7 379.38 296.42 379.98 301.04 384.7C301.532 385.128 301.981 385.604 302.38 386.12C302.532 386.339 302.629 386.591 302.664 386.856C302.698 387.12 302.67 387.389 302.58 387.64C300.424 391.359 297.38 394.486 293.72 396.74C293.72 388.74 290.48 381.26 284.42 360.56C284.363 360.193 284.399 359.818 284.525 359.468C284.651 359.119 284.862 358.806 285.14 358.56C286.66 357.44 288.18 356.56 290.7 355H290.68ZM283.12 348.16C283.185 347.963 283.322 347.797 283.504 347.697C283.686 347.597 283.899 347.569 284.1 347.62C285.32 347.92 286.1 349.28 289.52 353.86L283.68 358.16C272.26 345.48 283.24 358.64 286.18 354.16C286.577 353.593 286.749 352.899 286.664 352.212C286.579 351.525 286.243 350.893 285.72 350.44C284.42 349.22 282.74 349.34 283.14 348.16H283.12ZM277.76 342.3C282.22 346.46 281.92 346.08 281.88 346.3C281.58 347.44 280.98 348.44 281.22 349.02C281.305 349.288 281.446 349.535 281.634 349.745C281.821 349.955 282.051 350.123 282.307 350.238C282.564 350.353 282.842 350.413 283.124 350.413C283.405 350.413 283.683 350.354 283.94 350.24C284.46 350.06 285.56 351.6 285.82 352.24C286.08 352.88 285.02 354 284.54 353.96C282.16 353.74 280.8 351.76 278.04 349.44C277.971 349.387 277.886 349.358 277.799 349.355C277.712 349.353 277.626 349.377 277.554 349.425C277.481 349.474 277.426 349.544 277.394 349.625C277.363 349.706 277.358 349.796 277.38 349.88C278.02 351.88 277.74 352.4 276.32 353.88L276.12 354.12L272.74 346.22L277.76 342.3Z" fill="#F24A00"/><path d="M429.8 234.34C426.06 236.9 422.48 239.6 418.68 241.94C382.52 264.24 391.64 259.08 295.28 325.94C290.22 329.44 285.28 333.24 281.08 336.52C280.26 337.14 280.22 337.42 280.24 337.46C280.26 337.5 281.3 337.46 281.62 337.32C282.52 336.74 364.06 279.76 371.52 274.58C382.5 266.94 422.16 240.84 429.92 235.8C430.96 235.18 432 232.9 429.8 234.34Z" fill="#F24A00"/><path d="M187.82 391.04C178.98 396.72 169.46 402.64 160.4 408.86C154.4 412.86 131.16 429.68 125.3 433.72C114.56 441.12 103.16 449.08 92.36 457.92C91.7 458.46 91.3 459.46 91.44 459.62C91.58 459.78 91.7 459.8 92.9 458.84C100.9 452.46 130.9 431.66 144.38 421.9C172.8 401.28 167.84 406 188.6 392.42C189.06 392.12 190 389.7 187.82 391.04Z" fill="#F24A00"/><path d="M193.8 260C194.06 261.34 194.34 262.68 194.56 264C194.56 264.76 193.14 264.58 193.04 263.66C192.94 262.74 192.88 261.28 192.84 260.1C192.8 259.56 193.64 259.22 193.8 260Z" fill="#F24A00"/><path d="M269.76 341.28C269.811 341.369 269.83 341.473 269.812 341.575C269.795 341.676 269.742 341.768 269.663 341.835C269.585 341.901 269.486 341.938 269.383 341.939C269.28 341.94 269.18 341.905 269.1 341.84C268.28 341.3 267.54 340.78 266.82 340.22C266.68 340.22 266.82 339.28 267.04 339.2C267.78 338.92 269.22 340 269.76 341.28Z" fill="#F24A00"/><path d="M188.74 257.02C188.58 258.26 188.44 259.48 188.24 260.72C188.08 261.6 186.98 260.9 187.04 260.48C187.24 259.26 187.52 258.04 187.78 256.82C187.825 256.714 187.906 256.626 188.008 256.573C188.111 256.519 188.229 256.503 188.342 256.526C188.455 256.55 188.557 256.612 188.629 256.702C188.702 256.792 188.741 256.904 188.74 257.02Z" fill="#F24A00"/><path d="M206.2 248C207.104 248.029 208.005 248.11 208.9 248.24C209.48 248.34 209.98 249.92 208.54 249.68C207.682 249.505 206.834 249.285 206 249.02C205.12 248.82 205.24 248 206.2 248Z" fill="#F24A00"/><path d="M201.06 260.86C200.307 260.487 199.706 259.865 199.36 259.1C198.86 258.06 199 257.58 200.42 258.16C200.844 258.321 201.219 258.591 201.506 258.942C201.794 259.293 201.985 259.713 202.06 260.16C202.3 261.46 201.64 261.18 201.06 260.86Z" fill="#F24A00"/><path d="M204.6 256.26C203.98 255.8 203.34 255.36 202.74 254.88C202.14 254.4 202.74 253.6 203.48 253.96C204.172 254.353 204.84 254.788 205.48 255.26C206.24 255.72 205.32 256.76 204.6 256.26Z" fill="#F24A00"/><path d="M196.8 334.16C197.28 333.02 198 333.64 198.08 334C198.255 334.837 198.362 335.686 198.4 336.54C198.4 337.3 197.28 337.3 197.1 336.86C196.769 336.001 196.665 335.071 196.8 334.16Z" fill="#F24A00"/><path d="M181.02 247.7C181.3 245.82 182.46 244.94 184.1 245.36C183.38 246.54 182.64 247.62 181.02 247.7Z" fill="#F24A00"/><path d="M204.74 337.62C204.736 337.717 204.702 337.81 204.642 337.886C204.582 337.962 204.5 338.017 204.407 338.044C204.314 338.07 204.215 338.067 204.124 338.034C204.033 338.001 203.954 337.94 203.9 337.86C203.3 336.94 203.1 335.62 203.62 335.16C203.76 335.04 204.64 335.38 204.66 335.58C204.727 336.258 204.754 336.939 204.74 337.62Z" fill="#F24A00"/><path d="M270.38 339.16C270.317 339.08 270.278 338.983 270.27 338.881C270.261 338.779 270.283 338.677 270.332 338.587C270.381 338.498 270.455 338.425 270.546 338.377C270.636 338.33 270.738 338.31 270.84 338.32C271.624 338.468 272.331 338.885 272.84 339.5C272.908 339.562 272.956 339.643 272.977 339.732C272.999 339.822 272.993 339.915 272.961 340.001C272.929 340.088 272.871 340.162 272.796 340.215C272.721 340.268 272.632 340.298 272.54 340.3C272.114 340.303 271.693 340.201 271.317 340.002C270.94 339.803 270.618 339.514 270.38 339.16Z" fill="#F24A00"/><path d="M211.62 338.92C211.622 338.962 211.614 339.004 211.596 339.042C211.578 339.08 211.552 339.114 211.518 339.139C211.485 339.165 211.446 339.182 211.404 339.189C211.363 339.196 211.32 339.193 211.28 339.18C210.14 338.88 210.04 338 210.18 336.78C210.18 336.22 211.1 335.96 211.44 336.96C211.599 337.6 211.659 338.261 211.62 338.92Z" fill="#F24A00"/><path d="M155.48 342.9C155.538 342.859 155.608 342.837 155.679 342.838C155.75 342.839 155.819 342.862 155.876 342.904C155.934 342.945 155.976 343.004 155.999 343.072C156.021 343.139 156.021 343.212 156 343.28L155.4 345.28C155.382 345.349 155.342 345.41 155.286 345.453C155.23 345.497 155.161 345.521 155.09 345.521C155.019 345.521 154.95 345.497 154.894 345.453C154.838 345.41 154.798 345.349 154.78 345.28C154.574 344.868 154.532 344.394 154.662 343.952C154.791 343.511 155.084 343.135 155.48 342.9Z" fill="#F24A00"/><path d="M192 335.4C191.996 335.517 191.958 335.63 191.889 335.724C191.819 335.819 191.724 335.89 191.613 335.929C191.503 335.968 191.383 335.973 191.27 335.943C191.157 335.912 191.056 335.849 190.98 335.76C190.949 335.683 190.949 335.597 190.98 335.52C191.037 334.724 191.164 333.934 191.36 333.16C191.36 332.72 192.1 332.68 192.1 333.16L192 335.4Z" fill="#F24A00"/><path d="M185.32 332.6C185.32 333.38 185.42 334.18 185.42 334.98C185.42 335.78 184.24 335.56 184.24 334.98C184.24 334.4 184.24 333.34 184.34 332.54C184.44 331.74 185.28 332 185.32 332.6Z" fill="#F24A00"/><path d="M211.24 243.36C211.303 243.415 211.346 243.489 211.363 243.571C211.379 243.652 211.369 243.737 211.332 243.812C211.296 243.887 211.236 243.948 211.161 243.986C211.087 244.024 211.002 244.035 210.92 244.02L208.92 243.72C208.82 243.718 208.725 243.681 208.65 243.615C208.576 243.549 208.527 243.459 208.512 243.361C208.498 243.262 208.519 243.162 208.572 243.078C208.624 242.993 208.705 242.93 208.8 242.9C209.204 242.713 209.656 242.657 210.094 242.74C210.531 242.822 210.932 243.039 211.24 243.36Z" fill="#F24A00"/><path d="M151.46 344.18L152.32 341.5C152.349 341.406 152.407 341.323 152.486 341.264C152.565 341.206 152.661 341.174 152.76 341.174C152.858 341.174 152.954 341.206 153.034 341.264C153.113 341.323 153.171 341.406 153.2 341.5C153.285 341.969 153.26 342.451 153.128 342.909C152.997 343.367 152.761 343.788 152.44 344.14C152 344.7 151.34 344.58 151.46 344.18Z" fill="#F24A00"/><path d="M158.66 346.34C158.613 346.417 158.542 346.475 158.457 346.506C158.373 346.537 158.281 346.539 158.195 346.512C158.11 346.484 158.036 346.428 157.986 346.354C157.936 346.279 157.913 346.189 157.92 346.1V344.22C157.92 343.6 158.84 343.4 158.96 343.98C159.093 344.37 159.136 344.786 159.084 345.195C159.032 345.604 158.887 345.996 158.66 346.34Z" fill="#F24A00"/><path d="M181.58 334.84C181.561 334.939 181.511 335.03 181.439 335.101C181.367 335.172 181.275 335.219 181.175 335.236C181.075 335.254 180.973 335.24 180.881 335.198C180.789 335.156 180.712 335.087 180.66 335C180.14 334.14 180.66 333.32 180.78 332.54C180.78 332.06 181.94 332.54 181.9 332.86C181.86 333.18 181.7 334.14 181.58 334.84Z" fill="#F24A00"/><path d="M183.42 252.44C183.84 251.76 184.32 251.12 184.8 250.44C185.28 249.76 185.94 250.18 185.52 250.88C185.1 251.58 184.9 251.94 184.56 252.44C183.42 254.16 183.38 252.5 183.42 252.44Z" fill="#F24A00"/><path d="M273.02 338.24L272.08 336.74C272.025 336.648 271.998 336.542 272.004 336.434C272.009 336.327 272.047 336.224 272.111 336.138C272.176 336.053 272.264 335.988 272.365 335.952C272.467 335.917 272.576 335.913 272.68 335.94C273.36 336.16 273.62 336.78 273.68 337.94C273.68 338.3 273.22 338.56 273.02 338.24Z" fill="#F24A00"/><path d="M218.4 336.12V338.12C218.4 338.62 217.68 338.72 217.66 338.26L217.52 336.04C217.48 335.5 218.4 335.5 218.4 336.12Z" fill="#F24A00"/><path d="M235.84 336L234.92 334.7C234.46 334.04 235.22 333.84 235.62 334.32L236.58 335.52C236.94 336 236.2 336.46 235.84 336Z" fill="#F24A00"/><path d="M188 174C192.46 176.54 200 184.92 200.94 188.74C200.94 188.74 201.24 190.74 200.26 189.04C196.94 183.38 192.02 179.2 187.28 174.8C186 173.62 186.34 173.08 188 174Z" fill="#F24A00"/><path d="M206.26 230.86V225.62C206.26 224.54 207.8 223.62 208.02 225.46C208.24 227.3 208.4 229.46 208.5 231.32C208.482 231.488 208.43 231.651 208.347 231.799C208.265 231.946 208.154 232.076 208.02 232.18C207.224 232.396 206.386 232.403 205.587 232.2C204.788 231.996 204.055 231.59 203.46 231.02C203.404 230.897 203.375 230.764 203.375 230.63C203.375 230.495 203.404 230.362 203.46 230.24C204 229.76 204.9 230.28 206.26 230.86Z" fill="#F24A00"/><path d="M193.04 219.2C193.089 218.94 193.231 218.708 193.439 218.546C193.648 218.384 193.909 218.304 194.172 218.321C194.436 218.338 194.684 218.451 194.869 218.639C195.055 218.827 195.166 219.076 195.18 219.34C195.23 220.842 195.17 222.346 195 223.84C195 224.105 194.895 224.36 194.707 224.547C194.52 224.735 194.265 224.84 194 224.84C193.735 224.84 193.48 224.735 193.293 224.547C193.105 224.36 193 224.105 193 223.84C192.824 222.298 192.837 220.739 193.04 219.2Z" fill="#F24A00"/><path d="M213.66 217.6C213.729 217.362 213.881 217.158 214.089 217.024C214.297 216.89 214.547 216.837 214.792 216.874C215.036 216.91 215.259 217.035 215.419 217.223C215.579 217.412 215.664 217.653 215.66 217.9C215.663 219.11 215.536 220.317 215.28 221.5C215.28 221.68 214.28 223.5 213.28 221.36C213.16 220.094 213.289 218.816 213.66 217.6Z" fill="#F24A00"/><path d="M199.56 233.48C203.28 235.02 203.32 234.98 204.2 235.48C205.8 236.26 204.34 236.98 204.04 237.04C202.54 237.28 200.16 235.54 199.56 233.48Z" fill="#F24A00"/><path d="M300.5 377.1C300.501 376.991 300.529 376.885 300.581 376.789C300.633 376.694 300.708 376.613 300.799 376.554C300.89 376.494 300.995 376.458 301.103 376.449C301.211 376.44 301.32 376.457 301.42 376.5L302.68 377.06C302.931 377.163 303.137 377.353 303.258 377.596C303.379 377.839 303.409 378.117 303.34 378.38C303.226 379.009 303.052 379.625 302.82 380.22C302.06 381.92 300.82 381.14 300.56 380.06C300.467 379.076 300.447 378.087 300.5 377.1Z" fill="#F24A00"/><path d="M304.7 368.86C305.026 368.238 305.401 367.643 305.82 367.08C306.22 366.46 306.92 366.62 306.72 367.54C306.645 368.291 306.321 368.995 305.8 369.54C304.84 370.28 304.4 369.68 304.7 368.86Z" fill="#F24A00"/></svg>