<svg xmlns="http://www.w3.org/2000/svg" width="582" height="603" viewBox="0 0 582 603" fill="none"><circle cx="405" cy="310" r="177" fill="#F24A00"/><circle cx="177" cy="426" r="177" fill="#65A98F"/><circle cx="178" cy="177" r="177" fill="#FF8C00"/><path d="M132.105 292.766C131.572 294.437 131.084 295.968 130.574 297.407C130.423 298.092 130.059 298.71 129.533 299.174C129.007 299.637 128.347 299.92 127.65 299.983C126.211 300.146 124.772 300.54 123.333 300.586C119.388 300.749 117.926 299.705 116.533 295.945C115.141 292.186 114.839 290.979 113.841 290.074V293.23C113.632 298.451 107.134 296.711 104.558 291.42C103.63 289.494 102.539 287.66 101.263 285.316C101.231 287.163 101.099 289.007 100.869 290.84C100.474 293.508 98.8496 294.297 96.6449 292.673C94.8996 291.286 93.5674 289.448 92.7925 287.358C89.7471 280.392 87.3242 273.17 85.5519 265.776C85.111 263.873 83.2312 261.134 84.1595 259.417C86.1321 256.029 85.0878 252.455 85.4591 248.858C90.5878 199.705 90.7503 214.836 90.936 208.014C91.2977 204.714 92.5224 201.569 94.4866 198.893C111.962 169.397 134.24 149.207 168.355 146.677C191.214 144.983 197.085 143.103 205.324 149.996C214.248 157.319 222.341 165.599 229.459 174.688C233.427 179.33 232.685 189.912 231.176 196.039C228.554 206.528 230.875 215.672 222.845 223.098C220.176 225.419 220.106 228.157 217.879 227.484C216.602 227.09 216.695 225.999 216.695 224.955C216.666 215.267 215.259 205.632 212.518 196.34C211.752 193.788 210.87 194.275 198.594 194.02C196.351 193.818 194.092 194.081 191.955 194.792C189.819 195.503 187.852 196.646 186.178 198.151C182.117 201.98 176.895 204.068 172.254 206.946C165.523 211.054 150.578 217.714 147.654 222.007C144.73 226.301 138.812 222.773 134.774 236.837C134.356 238.229 134.194 239.691 133.799 241.084C132.96 245.018 133.152 249.103 134.356 252.942C134.588 253.94 135.702 257.004 137.721 254.126C137.953 253.755 138.093 253.267 138.65 253.314C139.207 253.36 139.276 253.685 139.416 254.056C139.59 254.464 139.738 254.882 139.856 255.31C143.152 266.913 147.213 278.052 150.787 289.47C153.108 297.338 158.26 302.861 153.108 303.395C148.692 303.917 144.222 303.753 139.856 302.907C133.776 301.306 133.614 294.321 132.105 292.766ZM132.964 279.909C133.15 281.255 133.591 282.23 135.006 282.23C136.422 282.23 137.837 280.234 137.768 278.633C137.768 278.363 137.714 278.095 137.608 277.847C137.501 277.598 137.346 277.374 137.151 277.188C136.956 277.001 136.724 276.856 136.471 276.761C136.219 276.667 135.949 276.624 135.679 276.637C134.886 276.713 134.156 277.1 133.647 277.713C133.138 278.326 132.893 279.116 132.964 279.909Z" fill="#65A98F"/><path d="M266.52 271.508C269.003 259.231 267.031 270.788 270.86 244.309C271.37 241.891 271.37 239.394 270.86 236.976C270.721 236.396 270.605 235.653 270.001 235.606C268.145 235.49 267.913 233.889 267.054 232.706C269.375 232.891 269.746 232.358 269.537 230.037C268.911 223.075 262.575 217.227 263.852 216.275C264.223 215.973 264.594 216.275 264.896 216.437C266.172 217.482 267.472 218.48 268.702 219.57C269.932 220.661 270.373 220.522 270.837 218.921C271.765 215.718 270.349 221.241 274.457 194.576C274.736 192.766 275.85 193.254 276.198 194.576C281.907 217.9 281.35 216.67 281.953 216.878C282.556 217.087 283.067 216.229 283.531 215.764C285.295 213.954 286.989 212.075 288.729 210.218C291.422 207.363 295.552 206.319 295.692 210.218C295.831 214.117 291.213 224.003 289.124 234.377C287.972 241.384 287.583 248.496 287.964 255.588C288.66 324.374 290.099 265.103 289.843 355.633C289.794 357.148 289.662 358.659 289.449 360.159C289.031 363.709 285.573 363.176 277.404 364.429C275.946 364.476 274.487 364.336 273.065 364.011C271.835 364.011 271.579 362.758 272.554 361.366C274.672 358.354 276.535 355.172 278.124 351.851C280.008 348.79 280.825 345.191 280.445 341.616C279.641 335.889 278.177 330.275 276.082 324.884C272.299 316.576 277.474 304.207 278.031 295.62C278.565 287.706 272.693 291.187 268.539 287.219C266.822 285.571 264.432 286.5 264.849 284.179C265.708 279.352 265.128 277.82 266.683 277.936C270.721 278.215 271.812 275.383 280.862 268.305C282.487 267.029 282.603 266.147 281.582 264.406C280.721 263.082 279.751 261.832 278.681 260.67C278.008 259.811 277.567 259.974 276.847 260.67C273.511 263.402 270.601 266.617 268.214 270.208C268.033 270.527 267.79 270.807 267.499 271.03C267.208 271.253 266.875 271.416 266.52 271.508Z" fill="#65A98F"/><path d="M231.617 81.976C235.307 81.976 234.494 82.092 235.469 79.1447C236.444 76.1974 236.978 73.6446 238.092 71.0222C238.509 70.0011 238.881 68.9336 240.273 69.0032C241.665 69.0729 241.874 69.9083 242.988 77.497C243.197 78.8198 243.754 79.4696 245.309 79.3536C247.568 79.3464 249.824 79.1914 252.062 78.8894C253.037 78.6806 254.383 78.4485 254.963 79.6553C255.822 81.2798 254.104 81.6047 250.995 87.0815C250.298 88.3115 250.995 89.6575 250.995 90.9571C250.995 94.4614 252.573 97.9192 250.554 98.8707C249.997 99.1342 249.364 99.1877 248.772 99.0214C248.179 98.8551 247.666 98.4801 247.328 97.9656C246.492 96.9445 245.541 95.993 244.798 94.9255C244.056 93.858 243.522 93.9044 242.71 94.7631C238.231 99.5205 236.862 100.82 235.144 100.031C233.798 99.3813 233.868 97.9656 233.798 96.6893C233.767 95.3049 233.876 93.9209 234.123 92.5584C234.61 89.147 231.454 90.7947 228.391 85.9212C226.627 83.0203 228.089 81.976 231.617 81.976Z" fill="#65A98F"/><path d="M213.237 103.999C213.237 112.725 215.187 127.856 214.119 130.711C213.516 132.289 211.659 133.171 208.944 133.032C208.203 133.044 207.485 132.768 206.944 132.261C206.402 131.755 206.079 131.057 206.043 130.316C205.184 122.681 201.796 113.143 201.819 101.841C201.819 100.495 202.237 99.683 203.722 99.5205C208.225 99.126 212.843 95.4593 213.214 100.077C213.261 100.495 213.214 102.561 213.237 103.999Z" fill="#65A98F"/><path d="M259.233 406.62C259.152 407.358 258.798 408.039 258.239 408.529C257.681 409.018 256.959 409.281 256.217 409.265C254.894 409.265 254.685 408.453 254.383 407.339C253.295 404.664 251.926 402.113 250.299 399.727C247.607 394.413 244.01 389.655 240.9 384.573C240.413 383.761 239.368 382.948 240.598 381.974C242.594 380.442 244.265 380.326 245.24 381.765C248.396 386.221 252.202 394.134 257.191 402.651C258.1 403.844 258.791 405.187 259.233 406.62Z" fill="#65A98F"/><path d="M200.033 470.625C198.988 466.795 203.142 463.105 206.09 462.363C209.478 461.551 211.613 465.774 214.398 465.728C216.045 465.728 216.115 471.553 213.446 470.903C212.57 470.69 211.655 470.696 210.781 470.918C209.907 471.141 209.101 471.574 208.434 472.179C207.818 472.489 207.148 472.678 206.461 472.736C206.665 480.211 206.145 487.688 204.906 495.062C204.21 499.123 203.56 499.425 199.429 500.074C189.404 501.652 168.1 501.142 158.051 500.608C146.447 499.981 113.076 501.861 112.844 501.861C112.521 501.91 112.191 501.891 111.876 501.804C111.561 501.717 111.268 501.564 111.016 501.356C110.764 501.148 110.559 500.889 110.414 500.596C110.269 500.303 110.187 499.983 110.175 499.657C109.919 497.454 109.332 495.302 108.434 493.275C105.441 485.361 104.211 477.03 101.936 468.907C96.2042 448.323 88.0121 397.197 88.0121 393.391C88.0121 391.628 88.5691 390.05 90.6113 389.748C92.259 389.516 92.1894 388.588 91.9573 387.427C90.4276 380.95 87.7727 374.792 84.1133 369.233C83.9741 369.001 78.9845 360.6 78.6596 359.672C78.3751 359.057 78.3242 358.36 78.5164 357.711C78.7086 357.062 79.1308 356.505 79.704 356.144C81.0268 355.309 81.6998 356.585 82.3264 357.56C91.4235 371.693 91.3307 373.387 95.2063 384.921L95.3455 385.292C95.7632 386.29 94.951 387.775 95.9257 388.286C96.9004 388.796 98.0143 388.286 99.0586 388.077C101.978 387.651 104.928 387.472 107.877 387.543C128.764 387.056 139.717 386.569 148.884 388.239C149.258 388.384 149.658 388.448 150.058 388.429C150.458 388.41 150.849 388.308 151.208 388.129C151.566 387.95 151.883 387.698 152.138 387.389C152.393 387.08 152.581 386.722 152.69 386.336C157.966 374.06 164.172 362.206 171.256 350.876C174.161 346.331 177.511 342.086 181.258 338.205C181.543 337.798 181.919 337.464 182.356 337.229C182.793 336.994 183.28 336.864 183.776 336.85C184.272 336.837 184.765 336.94 185.214 337.151C185.663 337.362 186.057 337.675 186.364 338.066C187.338 339.273 186.596 340.224 185.807 341.245C177.823 351.572 159.931 374.501 156.426 388.263C156.264 388.866 156.078 389.33 156.821 389.655C159.327 390.699 162.344 399.216 164.526 404.067C167.473 410.588 170.699 417.016 173.182 423.723C176.988 433.957 182.14 443.681 186.781 453.521C189.174 459.012 192.665 463.956 197.039 468.049C198.014 468.907 198.431 470.369 199.87 470.764C200.241 470.926 200.195 471.089 200.033 470.625ZM148.142 413.071C148.471 414.834 149.468 416.403 150.925 417.449C152.382 418.495 154.186 418.939 155.962 418.687C157.141 418.133 158.114 417.218 158.739 416.075C159.365 414.932 159.612 413.62 159.443 412.328C159.045 410.841 158.119 409.549 156.838 408.695C155.556 407.841 154.008 407.482 152.481 407.687C151.232 407.915 150.107 408.584 149.31 409.572C148.514 410.56 148.099 411.802 148.142 413.071ZM121.407 408.615C121.407 415.763 132.407 415.577 132.384 408.383C132.293 406.947 131.674 405.594 130.646 404.587C129.617 403.58 128.252 402.99 126.814 402.93C126.081 402.932 125.356 403.083 124.683 403.373C124.009 403.663 123.402 404.086 122.896 404.618C122.391 405.149 121.999 405.777 121.743 406.464C121.487 407.151 121.373 407.883 121.407 408.615ZM140.901 453.521C133.289 453.521 133.08 463.732 141.365 463.825C148.49 463.894 148.188 453.567 140.901 453.521ZM123.008 465.264C123.065 464.53 122.971 463.792 122.731 463.096C122.492 462.4 122.112 461.76 121.615 461.216C121.119 460.673 120.516 460.237 119.844 459.936C119.173 459.634 118.446 459.474 117.71 459.464C116.974 459.455 116.244 459.596 115.564 459.88C114.885 460.164 114.271 460.584 113.761 461.115C113.25 461.645 112.854 462.275 112.597 462.964C112.339 463.654 112.226 464.389 112.263 465.124C112.194 472.11 122.799 471.994 123.008 465.264ZM175.41 466.61C175.368 465.266 174.804 463.991 173.838 463.055C172.872 462.119 171.58 461.596 170.235 461.597C168.703 461.701 167.267 462.377 166.209 463.49C165.152 464.603 164.551 466.073 164.526 467.608C164.688 474.43 175.178 474.454 175.41 466.61ZM149.882 434.12C149.199 434.121 148.524 434.263 147.899 434.537C147.274 434.811 146.711 435.211 146.248 435.712C145.784 436.213 145.428 436.804 145.203 437.448C144.978 438.093 144.888 438.777 144.939 439.457C145.105 440.971 145.812 442.375 146.928 443.41C148.045 444.446 149.497 445.045 151.019 445.097C152.352 444.982 153.594 444.378 154.507 443.401C155.42 442.424 155.939 441.143 155.962 439.806C155.795 438.312 155.104 436.927 154.012 435.895C152.92 434.862 151.498 434.25 149.998 434.166L149.882 434.12ZM123.635 451.595C124.381 451.574 125.115 451.404 125.794 451.095C126.472 450.785 127.082 450.342 127.586 449.792C128.091 449.242 128.48 448.597 128.73 447.894C128.98 447.191 129.086 446.445 129.042 445.7C128.937 444.329 128.321 443.048 127.315 442.11C126.308 441.173 124.987 440.649 123.612 440.641C122.146 440.769 120.778 441.426 119.761 442.49C118.745 443.553 118.15 444.95 118.088 446.42C118.193 447.821 118.822 449.132 119.85 450.091C120.878 451.05 122.229 451.587 123.635 451.595ZM110.198 438.877C110.198 432.31 98.8498 431.706 98.8962 438.715C99.1487 440.286 99.9632 441.712 101.188 442.728C102.413 443.744 103.966 444.281 105.557 444.238C106.857 444.078 108.051 443.44 108.908 442.45C109.766 441.46 110.225 440.187 110.198 438.877ZM191.632 475.243C184.136 475.103 185.691 486.22 191.214 486.313C192.709 486.187 194.104 485.513 195.133 484.421C196.161 483.328 196.749 481.894 196.784 480.395C196.806 479.72 196.691 479.048 196.445 478.419C196.2 477.79 195.83 477.217 195.357 476.736C194.884 476.254 194.318 475.874 193.694 475.617C193.069 475.36 192.399 475.233 191.724 475.243H191.632ZM113.006 427.645C120.131 427.645 119.226 417.388 113.006 417.364C111.568 417.371 110.185 417.915 109.129 418.89C108.072 419.865 107.419 421.2 107.297 422.632C107.29 423.354 107.439 424.068 107.733 424.726C108.027 425.385 108.46 425.972 109.002 426.448C109.544 426.924 110.182 427.277 110.873 427.484C111.564 427.69 112.292 427.745 113.006 427.645ZM137.745 418.85C136.394 418.991 135.152 419.655 134.284 420.7C133.417 421.745 132.993 423.089 133.103 424.442C133.33 425.73 133.999 426.898 134.994 427.745C135.99 428.592 137.25 429.066 138.557 429.084C144.637 429.084 145.009 418.757 137.745 418.85ZM106.647 388.007C103.445 388.007 100.219 389.887 100.173 391.837C100.176 392.583 100.326 393.322 100.614 394.011C100.903 394.699 101.324 395.324 101.854 395.85C102.384 396.376 103.013 396.792 103.704 397.075C104.395 397.358 105.135 397.502 105.882 397.499C107.26 397.43 108.562 396.845 109.529 395.861C110.496 394.876 111.058 393.564 111.103 392.185C111.043 391.048 110.546 389.978 109.716 389.2C108.885 388.421 107.786 387.994 106.647 388.007ZM160.882 479.815C159.61 479.845 158.4 480.372 157.511 481.282C156.622 482.193 156.124 483.415 156.125 484.688C156.246 486.072 156.845 487.37 157.819 488.361C158.793 489.352 160.081 489.973 161.462 490.118C162.78 490 164 489.375 164.866 488.375C165.731 487.375 166.175 486.078 166.104 484.758C166.098 484.086 165.957 483.423 165.689 482.807C165.422 482.192 165.032 481.637 164.545 481.175C164.057 480.714 163.481 480.355 162.852 480.122C162.223 479.888 161.553 479.783 160.882 479.815ZM171.372 451.595C172.059 451.649 172.749 451.559 173.399 451.331C174.049 451.103 174.644 450.742 175.146 450.27C175.649 449.798 176.046 449.227 176.315 448.592C176.583 447.958 176.716 447.274 176.704 446.585C176.693 445.897 176.538 445.218 176.249 444.593C175.96 443.967 175.543 443.409 175.026 442.954C174.508 442.5 173.901 442.158 173.244 441.951C172.587 441.745 171.894 441.678 171.209 441.755C164.433 441.685 165.106 451.572 171.372 451.595ZM138.047 476.798C137.432 476.847 136.833 477.018 136.286 477.302C135.738 477.585 135.252 477.975 134.857 478.448C134.462 478.921 134.164 479.468 133.983 480.058C133.801 480.647 133.739 481.266 133.8 481.88C133.857 483.246 134.401 484.546 135.333 485.546C136.265 486.546 137.524 487.18 138.882 487.334C140.149 487.171 141.303 486.519 142.096 485.517C142.89 484.516 143.26 483.244 143.129 481.973C143.069 480.635 142.516 479.367 141.578 478.412C140.64 477.457 139.383 476.882 138.047 476.798ZM116.998 482.878C115.71 483.005 114.509 483.582 113.605 484.507C112.701 485.433 112.152 486.647 112.055 487.937C112.136 489.157 112.647 490.309 113.496 491.188C114.346 492.067 115.48 492.617 116.696 492.741C124.122 492.834 122.985 482.855 116.882 482.878H116.998ZM175.944 497.777C179.471 497.777 181.049 496.431 181.049 493.391C181.049 487.241 171.511 485.779 171.465 493.182C171.373 493.786 171.421 494.403 171.605 494.986C171.788 495.569 172.102 496.103 172.523 496.546C172.944 496.989 173.46 497.33 174.033 497.544C174.606 497.757 175.219 497.837 175.828 497.777H175.944ZM104.443 409.59C104.418 408.98 104.274 408.382 104.018 407.828C103.763 407.274 103.4 406.776 102.952 406.362C102.504 405.949 101.978 405.627 101.406 405.416C100.833 405.206 100.225 405.11 99.6156 405.134C99.0061 405.159 98.4074 405.303 97.8536 405.559C97.2998 405.814 96.8018 406.177 96.388 406.625C95.9743 407.073 95.6528 407.599 95.4421 408.171C95.2314 408.743 95.1355 409.352 95.1599 409.961C95.1662 410.579 95.3014 411.188 95.5569 411.75C95.8124 412.312 96.1825 412.815 96.6435 413.226C97.1045 413.636 97.6462 413.946 98.234 414.135C98.8217 414.325 99.4425 414.389 100.057 414.324C102.911 414.347 104.327 412.816 104.327 409.59H104.443ZM136.283 390.375C132.871 390.375 134.357 397.035 139.764 397.778C143.941 398.358 148.049 392.138 143.709 391.048C141.232 390.513 138.699 390.287 136.167 390.375H136.283ZM202.516 470.114C201.448 471.924 201.471 471.947 204.836 472.063C202.353 469.928 202.794 470.276 202.4 470.114H202.516Z" fill="#FF8C00"/><path d="M157.633 250.018C158.144 242.058 161.37 237.417 169.074 237.161C176.315 236.906 182.442 242.383 182.372 248.486C182.372 255.449 176.385 261.784 170.212 261.784C161.787 261.761 157.68 256.261 157.633 250.018Z" fill="#FF8C00"/><path d="M165.57 392.556C168.198 392.184 170.856 392.067 173.507 392.208C183.667 392.205 193.793 393.396 203.676 395.759C208.019 396.623 212.43 397.097 216.857 397.174C217.855 397.174 218.807 397.174 219.178 398.311C219.549 399.448 218.644 399.797 218.25 400.632C217.917 401.505 217.382 402.286 216.688 402.912C215.994 403.537 215.161 403.989 214.258 404.229C213.894 404.396 213.498 404.482 213.098 404.482C212.697 404.482 212.302 404.396 211.937 404.229C208.364 401.676 204.117 401.444 200.009 400.841C196.76 400.354 172.161 397.36 163.945 395.155C163.249 394.946 162.228 395.155 162.437 393.948C162.646 392.742 164.061 392.556 165.57 392.556Z" fill="#FF8C00"/><path d="M208.665 375.708C209.503 375.745 210.332 375.902 211.125 376.172C211.429 376.26 211.695 376.447 211.88 376.704C212.065 376.96 212.159 377.271 212.147 377.587C212.147 379.073 211.079 379.699 210.22 380.442C210.048 380.582 209.848 380.683 209.634 380.741C209.42 380.798 209.196 380.809 208.977 380.774C208.758 380.739 208.549 380.659 208.363 380.537C208.178 380.416 208.02 380.257 207.9 380.071C207.686 379.833 207.407 379.662 207.098 379.58C206.789 379.497 206.463 379.507 206.159 379.606C162.553 387.497 161.88 394.807 160.093 391.558C159.49 390.398 160.488 389.957 161.3 389.4C163.913 387.715 166.748 386.403 169.724 385.501C182.415 381.179 195.439 377.904 208.665 375.708Z" fill="#FF8C00"/><path d="M283.369 265.265C283.322 265.962 283.099 266.636 282.722 267.225C282.344 267.813 281.825 268.296 281.211 268.63C277.823 270.951 274.249 273.272 271.07 275.964C270.213 276.718 269.314 277.424 268.378 278.076C265.894 279.816 263.945 275.221 266.219 272.39C273.553 263.246 275.293 261.042 275.85 259.278C275.942 258.879 276.167 258.523 276.487 258.268C276.807 258.014 277.205 257.875 277.614 257.875C278.023 257.875 278.42 258.014 278.741 258.268C279.061 258.523 279.286 258.879 279.378 259.278C280.422 262.016 282.812 262.225 283.369 265.265Z" fill="#FF8C00"/><path d="M256.774 272.831C254.453 272.831 253.827 272.274 253.78 270.115C253.389 265.418 252.613 260.761 251.46 256.191C251.204 254.729 251.46 253.731 253.014 253.267C254.082 252.865 255.037 252.212 255.799 251.364C257.168 250.041 258.514 251.039 258.584 252.478C258.886 257.444 259.396 262.411 260 267.354C260.185 268.885 259.071 270.231 258.955 271.786C258.909 272.854 257.679 272.9 256.774 272.831Z" fill="#FF8C00"/><path d="M72.2778 383.18C72.2778 381.881 72.858 381.115 73.9952 381.208C75.1323 381.301 76.896 381.37 77.6851 382.995C78.126 383.923 79.2167 384.016 80.0058 384.434C82.1825 385.434 84.2509 386.655 86.1789 388.077C86.8287 388.588 87.5017 389.261 86.8519 390.166C86.2021 391.071 85.5059 390.537 84.7864 390.166C81.4678 388.773 78.3117 387.056 74.9002 385.849C73.6935 385.478 72.3707 384.712 72.2778 383.18Z" fill="#FF8C00"/><path d="M101.635 482.692C101.871 483.216 101.905 483.808 101.73 484.356C101.555 484.903 101.183 485.365 100.686 485.654C100.19 485.943 99.6034 486.037 99.0412 485.919C98.4791 485.8 97.9808 485.478 97.6429 485.013C95.3222 483.226 92.3981 479.513 94.6492 477.563C95.1167 477.124 95.7179 476.853 96.357 476.794C96.9962 476.735 97.6367 476.891 98.1767 477.238C99.123 477.832 99.9247 478.63 100.523 479.574C101.121 480.517 101.501 481.583 101.635 482.692Z" fill="#FF8C00"/><path d="M75.132 404.322C73.9253 404.322 73.2523 403.904 73.0898 402.953C72.6257 400.423 76.478 400.632 80.7713 399.866C81.6751 399.565 82.6296 399.447 83.5794 399.518C84.1132 399.657 84.7862 399.704 85.0182 400.307C85.2503 400.911 84.7398 401.514 84.322 401.955C83.9043 402.396 83.9971 402.442 75.132 404.322Z" fill="#FF8C00"/><path d="M343.986 169.629C344.37 178.92 343.432 188.218 341.201 197.245C338.773 207.141 334.166 216.369 327.718 224.258C322.844 230.338 316.37 234.353 309.941 238.415C305.045 241.501 296.017 246.514 290.401 245.121C289.501 244.978 288.682 244.518 288.091 243.825C287.499 243.131 287.175 242.25 287.175 241.339C286.363 230.64 291.538 222.378 295.947 212.817C296.528 211.564 297.386 210.102 296.504 208.872C295.622 207.642 293.998 208.524 292.768 208.872C289.982 209.525 287.344 210.698 284.994 212.33C277.335 217.342 281.048 205.809 276.152 194.391C275.601 193.185 274.989 192.007 274.318 190.863C274.133 190.538 273.947 190.121 273.483 190.19C273.019 190.26 272.972 190.724 272.856 191.072C268.981 203.836 272.694 221.381 264.641 216.6C262.929 215.256 260.883 214.406 258.723 214.14C257.493 214.14 257.192 214.442 257.911 215.532C260.046 218.596 261.624 221.914 263.365 225.094C264.979 228.39 266.15 231.886 266.846 235.49C267.426 237.95 266.382 242.986 263.179 243.543C259.976 244.1 257.47 242.174 254.755 241.083C249.972 239.592 245.371 237.568 241.039 235.049C235.896 231.653 231.62 227.099 228.554 221.752C227.491 219.075 227.248 216.143 227.858 213.328C229.529 192.325 234.565 188.983 230.666 179.817C228.583 175.123 225.966 170.684 222.868 166.589C213.586 153.871 223.495 135.491 234.982 124.514C239.481 120.592 244.418 117.205 249.696 114.419C257.396 110.108 265.793 107.178 274.504 105.763C302.445 100.657 346.701 116.577 343.986 169.629ZM251.158 128.831C249.533 126.51 249.556 126.51 247.584 128.552C237.419 138.949 232.662 143.126 230.875 145.308C229.413 147.095 229.97 147.628 231.2 148.905C231.338 149.096 231.516 149.254 231.722 149.367C231.928 149.481 232.157 149.549 232.391 149.564C232.626 149.58 232.862 149.543 233.081 149.457C233.3 149.371 233.498 149.238 233.66 149.067C257.609 132.497 257.795 138.438 251.251 128.831H251.158Z" fill="#65A98F"/><path d="M153.966 101.029C166.08 101.609 183.3 111.078 193.813 129.62C195.653 133.104 196.938 136.855 197.619 140.736C198.152 143.266 197.619 144.032 194.973 144.519C191.353 145.238 187.663 145.146 184.019 145.563C170.513 147.165 160.487 148.302 145.867 149.439C127.301 150.901 119.62 156.703 109.293 171.509C104.303 178.68 99.4064 185.944 94.5561 193.231C91.0345 198.275 88.0479 203.673 85.6446 209.336C85.2965 210.241 84.6467 210.914 84.229 211.773C83.8112 212.632 82.8366 212.423 82.1635 211.773C79.8428 209.452 74.2499 194.53 72.5558 179.283C68.2857 140.806 99.3832 98.3601 153.966 101.029Z" fill="#65A98F"/><path d="M276.918 301.677C269.793 327.205 271.789 320.753 267.844 331.034C266.985 333.355 266.335 333.68 264.757 333.076C262.436 332.218 261.694 330.756 262.436 328.69C270.93 305.878 266.869 315.346 270.907 304.067C272.16 300.586 271.348 299.426 268.099 297.546C261.949 294.158 250.694 292.766 249.533 291.466C247.978 289.656 247.677 291.118 247.213 292.232C243.824 299.194 234.634 328.806 232.824 334.237C232.29 335.838 232.824 336.232 234.217 336.557C254.755 341.941 257.006 346.722 257.424 343.148C257.563 341.709 259.187 339.621 260.974 340.479C262.251 341.083 262.158 342.266 261.74 343.264C260.742 345.701 261.067 348.37 260.116 350.83C259.164 353.29 257.331 354.659 254.639 353.707C248.234 351.387 241.875 349.066 235.539 346.745C230.48 344.819 228.995 340.874 230.411 335.792C233.335 325.325 242.826 295.991 247.398 286.059C248.814 282.972 249.487 282.531 252.898 283.065C260.209 284.187 267.37 286.125 274.249 288.844C281.373 291.861 278.588 295.736 276.918 301.677Z" fill="#65A98F"/><path d="M428.622 207.224C427.724 207.182 426.867 206.839 426.189 206.249C425.511 205.66 425.052 204.858 424.886 203.975C423.921 200.763 423.253 197.47 422.89 194.136C420.731 178.169 419.757 171.973 419.153 167.123C419.092 166.852 419.091 166.571 419.15 166.299C419.209 166.028 419.326 165.772 419.494 165.551C419.662 165.33 419.877 165.148 420.123 165.019C420.368 164.889 420.64 164.815 420.917 164.802C424.717 163.829 428.459 162.644 432.126 161.251C440.109 158.93 434.888 164.407 435.514 190.562C435.793 201.887 437.905 207.619 428.622 207.224Z" fill="#65A98F"/><path d="M403.837 175.082C404.363 175.063 404.877 175.248 405.271 175.598C405.664 175.948 405.907 176.437 405.949 176.962C407.318 183.924 409.731 190.376 411.472 197.129C415.301 211.912 417.227 213.629 414.86 214.72C411.982 216.043 408.687 221.288 406.9 217.9C402.259 209.104 396.851 200.68 392.976 191.49C392.187 189.61 391.63 187.661 391.026 185.711C390.826 185.306 390.789 184.839 390.923 184.407C391.057 183.975 391.351 183.611 391.746 183.391C396.294 181.186 399.729 176.08 403.837 175.082Z" fill="#65A98F"/><path d="M493.416 361.549L385.99 361.734C386.733 359.414 387.615 356.931 388.311 354.447L411.89 353.542C412.446 353.542 413.839 352.707 413.793 351.802C413.746 350.897 412.191 350.804 411.681 350.804C407.991 350.943 392.094 351.361 389.031 351.454C389.801 348.299 389.763 345.001 388.919 341.865C388.076 338.729 386.453 335.857 384.204 333.515C380.59 329.677 376.078 326.798 371.075 325.137C366.072 323.476 360.734 323.085 355.543 324C345.749 325.415 339.298 331.728 334.865 340.082C333.007 343.35 331.853 346.971 331.477 350.711C319.785 349.866 308.053 349.703 296.342 350.224L297.966 341.776C303.304 341.08 303.791 341.011 304.766 340.825C317.994 338.249 328.228 331.542 334.239 319.196C335.399 316.875 334.912 316.063 332.15 316.133C326.882 316.133 312.006 316.504 309.338 316.504C313.057 312.145 317.53 308.49 322.542 305.713C335.956 298.751 350.553 296.43 365.29 294.829C377.775 293.529 388.891 296.94 394.415 293.274C397.292 291.394 400.286 289.7 403.001 287.634C431.267 266.145 450.274 245.746 494.391 243.17C495.597 243.17 497.268 243.17 497.199 241.406C497.129 239.642 495.505 240.037 494.391 240.153C489.169 240.64 483.901 241.058 478.703 241.824C447.768 246.465 431.917 261.851 412.261 276.472C392.071 291.487 392.303 291.881 387.522 291.974C378.239 292.16 369.189 288.145 335.956 296.987C313.979 302.812 300.356 316.063 295.181 339.293C293.15 346.919 292.09 354.771 292.025 362.663L288.033 362.848C287.476 350.595 286.85 345.35 286.896 337.878C287.105 302.649 289.356 319.312 286.896 259.484C286.711 255.168 286.896 250.828 286.896 246.511C286.896 245.56 286.896 244.771 288.312 244.516C306.483 241.197 319.177 235.558 328.437 218.733C340.76 196.361 344.682 169.998 341.781 152.152C338.045 128.944 324.422 113.976 303.466 105.18C292.652 100.539 281.071 100.284 269.537 101.839C237.071 106.225 216.556 132.379 214.885 158.325C209.988 151.571 206.043 144.4 197.828 144.029C193.441 143.82 201.239 126.276 173.808 108.429C165.751 103.328 156.35 100.757 146.818 101.05C117.16 101.398 109.269 104.531 88.9865 119.847C62.0663 140.13 59.4207 181.741 74.7374 207.616C76.5099 210.818 79.1478 213.456 82.3493 215.228C83.997 216.11 83.2079 215.553 80.7016 229.454C80.7016 229.942 81.1889 232.309 82.5814 229.918C82.9355 229.14 83.2455 228.342 83.5096 227.528C84.8788 224.279 84.8092 225.671 84.5772 226.507C81.6795 236.422 80.0116 246.656 79.6108 256.978C79.7307 261.343 80.2198 265.691 81.0729 269.974C81.2353 271.157 82.0708 272.294 83.3936 269.974C83.4839 269.648 83.5384 269.313 83.556 268.976C85.8768 279.976 88.4991 289.305 98.3854 296.012C102.191 298.588 101.425 296.012 100.706 289.723C104.001 294.921 103.7 297.938 107.25 298.101C109.316 298.101 111.381 298.379 113.632 298.542C111.312 310.377 117.044 305.086 88.592 342.635C85.2502 347.044 83.9506 352.846 79.1699 356.281C78.0792 357.07 77.6847 358.764 76.8492 359.924C75.6192 361.549 74.8766 360.806 58.5388 362.245C56.543 362.431 56.5662 364.775 58.7941 364.566C64.0389 364.241 69.2837 363.777 74.5285 363.336C75.7121 363.336 77.6847 364.821 77.5686 366.028C77.3133 369.045 76.9188 372.038 76.5707 375.125C73.2985 375.496 78.3345 375.125 61.7182 375.125C55.3827 375.125 56.2181 378.095 59.6064 378.095H76.3619V380.695C72.0686 380.927 71.3955 381.368 70.8154 384.756C70.1192 388.655 74.134 387.355 75.4568 389.026V399.748C74.5517 400.397 72.3935 400.026 72.4631 402.509C72.6255 407.151 75.596 405.944 75.8745 408.195C78.0328 424.742 75.1783 415.157 88.592 475.496C90.9127 486.148 93.7207 485.799 101.472 491.74C104.094 493.713 103.63 496.057 105.255 500.234C105.51 500.884 107.854 502.555 108.202 499.608C108.149 498.85 107.977 498.106 107.691 497.403C91.4464 432.122 101.077 465.749 84.4843 392.298C84.9357 392.097 85.4117 391.957 85.9 391.88C87.2109 391.866 88.5202 391.781 89.8219 391.625C105.626 388.237 120.595 391.95 160.72 391.95C160.509 393.591 160.509 395.252 160.72 396.893C163.597 407.36 165.663 411.003 171.998 425.322C177.197 437.111 182.186 448.993 189.148 459.9C192.42 465.029 195.948 469.903 201.657 472.061C200.264 489.536 199.823 493.086 200.055 498.053C200.055 498.354 200.891 500.791 203.003 498.378C203.351 497.96 203.003 497.565 204.465 473.036C209.872 472.432 219.248 473.036 231.014 460.713C241.364 450.014 247.119 430.822 254.082 410.864C256.402 412.976 256.727 412.929 258.514 410.33C258.929 409.689 259.386 409.077 259.883 408.497C260.472 407.894 260.855 407.121 260.98 406.288C261.105 405.455 260.965 404.604 260.579 403.855C257.934 397.52 257.029 404.482 265.035 377.631C265.337 376.61 265.824 376.425 266.799 376.425C371.672 376.146 343.614 375.937 355.148 376.796C364.779 377.515 364.06 376.169 369.862 376.169H493.346C497.083 376.169 496.967 373.408 493.857 373.384L374.758 373.733C378.088 371.29 381.05 368.383 383.554 365.1C385.016 365.401 458.977 365.1 494.298 365.1C497.57 365.007 498.8 361.526 493.416 361.549ZM316.439 319.521H326.186C325.778 321.49 325.583 323.497 325.606 325.508C326.07 329.616 322.751 330.846 314.489 335.673C315.302 329.639 315.673 325.276 316.439 319.521ZM306.808 320.147C307.62 318.964 310.637 319.521 313.631 319.706C313.19 326.042 313.631 324.139 311.31 335.951C311.31 336.369 310.892 336.949 310.544 337.042C306.701 338.389 302.683 339.171 298.616 339.363C300.194 332.525 302.967 326.02 306.808 320.147ZM296.133 352.637H331.477C331.788 356.245 332.346 359.828 333.148 363.359H298.569C297.548 363.359 295.854 362.616 295.669 361.92C295.137 358.829 295.296 355.66 296.133 352.637ZM285.179 236.602C283.021 251.803 285.179 274.801 285.179 303.74C285.179 316.063 284.529 328.363 284.506 340.686C284.506 347.068 285.202 353.45 285.643 359.831C285.609 360.839 285.656 361.848 285.782 362.848L272.694 363.87C276.209 358.71 278.917 353.044 280.723 347.068C281.646 343.939 281.589 340.602 280.561 337.506C278.727 331.171 277.103 324.766 274.852 318.593C273.98 316.195 273.923 313.577 274.689 311.143C276.082 305.922 277.219 300.63 278.426 295.362C279.4 291.069 277.892 291.649 263.759 285.337C265.105 277.006 264.71 282.157 269.421 241.615C269.97 237.436 269.242 233.188 267.333 229.431C265.662 226.136 264.246 222.678 262.807 219.243C261.369 215.808 262.227 216.76 263.852 218.199C264.618 218.918 265.407 219.614 266.172 220.38C266.938 221.146 267.611 222.933 269.259 222.306C270.907 221.68 270.396 219.986 270.442 218.802C270.582 215.414 271.371 197.034 273.947 194.365C274.785 201.08 276.166 207.716 278.078 214.207C279.099 217.34 280.677 217.735 283.346 215.855C300.496 203.834 288.892 210.865 285.179 236.509V236.602ZM257.168 330.126C257.281 332.086 257.498 334.038 257.818 335.975C258.236 338.968 258.259 338.968 256.704 343.911L233.915 335.673C236.491 320.171 243.197 306.316 248.257 291.58C270.907 299.47 270.442 299.099 269.885 300.862C267.704 308.057 262.436 326.204 261.925 328.131C261.529 327.916 261.118 327.73 260.696 327.574C258.537 326.808 257.098 327.759 257.168 330.034V330.126ZM263.527 328.502C267.843 313.649 268.307 313.649 271.533 300.909C271.928 299.307 271.185 298.426 269.723 297.915C262.761 295.386 255.799 292.833 248.837 290.35C248.548 290.333 248.261 290.39 248.001 290.516C247.741 290.642 247.517 290.832 247.351 291.069C241.059 304.916 236.123 319.341 232.615 334.141C232.244 335.766 232.615 336.462 234.123 337.112C241.41 339.618 248.628 342.217 255.892 344.747C257.98 345.466 258.003 345.374 259.233 341.985C259.754 342.528 260.094 343.219 260.206 343.963C260.318 344.707 260.197 345.467 259.86 346.139C257.539 350.781 258.653 352.8 254.94 351.779C246.94 349.719 239.166 346.865 231.733 343.262C228.623 341.892 228.252 341.266 229.111 338.04C233.752 321.145 232.267 324.835 244.497 291.626C245.24 289.607 246.307 287.727 247.189 285.755C247.247 285.516 247.359 285.293 247.514 285.103C247.67 284.912 247.866 284.759 248.089 284.655C248.311 284.55 248.554 284.497 248.8 284.498C249.046 284.5 249.289 284.556 249.51 284.664L272.926 292.508C275.107 293.25 274.921 294.829 274.527 296.546C269.886 315.622 264.873 329.987 264.571 330.823C263.48 331.032 263.364 328.78 263.527 328.409V328.502ZM244.799 363.754H205.161C204.759 363.715 204.371 363.586 204.026 363.377C203.68 363.169 203.386 362.885 203.165 362.547C199.378 355.351 194.421 348.834 188.498 343.262C188.13 342.885 187.901 342.394 187.849 341.869C187.863 340.411 187.487 338.975 186.761 337.711C186.035 336.446 184.984 335.398 183.718 334.675C181.908 333.538 181.397 333.747 179.68 335.418L154.152 318.894C153.943 314.601 153.734 309.867 153.525 305.248C156.449 303.995 159.652 306.85 153.525 298.588C153.819 297.946 154.354 297.445 155.014 297.193C155.673 296.941 156.406 296.959 157.053 297.242C164.844 299.457 172.765 301.186 180.77 302.417C186.27 303.113 190.053 300.584 192.606 295.71C195.901 289.491 199.731 283.55 202.84 277.145C205.072 272.697 208.939 269.287 213.632 267.63C215.786 266.577 217.767 265.2 219.503 263.545C219.83 263.211 220.082 262.81 220.241 262.371C220.4 261.931 220.463 261.462 220.426 260.996C220.388 260.529 220.251 260.077 220.024 259.668C219.797 259.259 219.485 258.903 219.108 258.626C211.52 252.104 208.108 254.309 210.29 248.113C212.355 242.334 214.212 236.509 216.324 230.707C216.695 229.663 217.67 229.013 223.495 224.047C228.705 230.346 235.121 235.541 242.366 239.327C249.611 243.113 257.539 245.413 265.685 246.094C264.277 258.471 262.815 271.188 261.299 284.246L253.084 281.74C251.618 281.246 250.022 281.303 248.595 281.901C247.168 282.499 246.008 283.597 245.332 284.989C238.718 300.375 237.164 303.183 226.929 338.203C225.769 342.125 226.558 343.401 230.341 345.165C235.493 347.485 240.714 349.574 245.773 351.686C243.917 355.469 245.611 359.599 244.799 363.754ZM236.63 387.912C236.769 389.351 237.372 387.471 217.762 422.235C217.59 422.506 217.396 422.762 217.182 423.001C216.486 417.872 215.836 412.952 215.163 408.033C214.931 406.362 214.444 405.828 215.163 404.644C216.44 402.324 217.832 399.84 218.923 397.357C219.146 396.061 219.09 394.732 218.76 393.459C218.621 393.134 215.442 393.134 213.376 392.507C212.077 390.534 211.52 386.636 210.591 381.577C213.423 380.973 212.193 378.606 212.773 376.517L243.105 377.446C242.965 378.397 242.826 379.372 242.71 380.3C241.798 380.366 240.91 380.621 240.102 381.047C239.294 381.474 238.582 382.063 238.013 382.779C237.444 383.494 237.029 384.319 236.795 385.203C236.561 386.086 236.513 387.009 236.653 387.912H236.63ZM176.941 391.323C190.422 391.716 203.828 393.481 216.95 396.592C216.068 398.703 215.488 400.444 214.63 402.045C214.426 402.335 214.155 402.571 213.839 402.733C213.524 402.895 213.174 402.977 212.819 402.973C209.845 402.463 206.901 401.789 204.001 400.954C186.711 395.617 177.475 395.454 164.549 393.621C164.015 393.621 164.177 391.695 164.758 391.648C168.865 391.44 172.857 391.161 176.964 391.323H176.941ZM171.58 388.376C194.579 383.178 185.11 384.942 208.016 381.6C208.874 385.429 209.663 388.98 210.336 392.368L171.58 388.376ZM213.075 373.477C211.937 371.157 210.011 372.131 208.248 372.34C207.273 370.344 206.298 368.395 205.207 366.144H244.984C244.59 368.743 244.172 371.481 243.708 374.336C234.68 374.336 213.214 373.733 213.098 373.477H213.075ZM274.736 291.069C274.736 291.231 273.947 291.719 273.877 291.881C266.381 289.189 258.004 285.685 250.508 282.993L250.647 282.39C258.935 284.533 267.007 287.438 274.759 291.069H274.736ZM266.265 331.287C278.101 290.141 275.734 299.191 276.546 292.763C278.031 292.763 277.799 293.993 277.544 295.084C274.713 306.873 276.407 300.862 266.845 331.472C266.219 333.491 265.824 332.911 266.288 331.287H266.265ZM217.53 161.202C220.199 130.29 242.107 108.894 270.164 105.111C281.396 103.602 292.744 104.066 303.28 108.754C319.92 116.134 332.382 127.738 336.977 146.071C339.525 155.799 340.093 165.94 338.648 175.892C337.165 188.006 333.798 199.814 328.669 210.889C325.532 217.996 321.057 224.433 315.487 229.849C308.386 236.184 296.782 240.106 287.268 241.615C289.774 220.102 294.88 214.787 294.833 210.448C294.887 209.971 294.808 209.489 294.603 209.055C294.398 208.621 294.075 208.253 293.673 207.993C293.27 207.732 292.802 207.589 292.322 207.58C291.843 207.571 291.37 207.696 290.958 207.941C287.428 209.899 284.012 212.053 280.723 214.393C279.911 210.773 279.122 207.547 278.403 204.275C277.521 199.749 276.964 194.992 276.453 193.437C275.154 189.376 272.601 188.656 271.324 193.437C269.181 201.455 268.066 209.714 268.006 218.013C267.543 217.521 267.038 217.071 266.497 216.667C264.522 215.455 262.467 214.378 260.347 213.441C258.607 212.792 257.539 214.022 258.259 215.762C260.347 220.775 262.366 225.857 264.78 230.707C266.513 234.635 267.038 238.989 266.288 243.216C264.119 243.041 261.964 242.723 259.837 242.265C252.534 240.525 245.549 237.651 239.136 233.748C234.193 230.597 229.782 226.681 226.071 222.144C225.049 220.821 226.512 218.106 226.535 216.714C226.995 208.05 228.23 199.444 230.225 191C231.115 187.211 231.015 183.256 229.934 179.517C228.852 175.777 226.827 172.379 224.052 169.65C221.731 167.329 219.921 164.683 217.879 162.154C217.664 161.882 217.542 161.548 217.53 161.202ZM74.4589 200.654C70.8066 192.406 68.8192 183.518 68.6107 174.5C67.872 162.21 70.5636 149.958 76.3851 139.109C82.9759 126.415 98.7567 114.811 110.639 109.683C118.235 106.422 126.393 104.672 134.658 104.531C139.299 104.531 143.941 104.043 148.582 104.206C164.409 104.786 174.783 110.982 184.994 122.47C189.864 128.341 192.748 135.604 193.233 143.217C192.979 143.318 192.714 143.389 192.444 143.426C174.713 143.031 144.498 147.789 131.804 152.059C126.724 153.776 122.071 156.562 118.158 160.228C97.4571 179.141 90.8663 196.988 83.9042 213.418C79.2627 210.239 76.7796 205.551 74.4589 200.724V200.654ZM111.01 286.799C111.799 289.7 112.518 292.624 113.331 295.826C108.039 295.455 106.508 295.826 105.812 293.923C103.143 286.961 101.17 281.16 101.17 280.904C101.079 280.682 100.92 280.493 100.716 280.367C100.511 280.24 100.272 280.182 100.032 280.2C99.7921 280.218 99.5641 280.312 99.3809 280.467C99.1976 280.623 99.0684 280.833 99.0119 281.067C98.5478 282.343 98.6638 283.527 98.6638 292.67C90.5878 286.938 87.2692 277.191 86.0392 267.282C85.6679 264.265 85.5983 261.201 85.2502 258.185C85.2502 257.604 83.7881 254.796 82.9295 258.185C82.6938 259.247 82.5386 260.325 82.4653 261.41C81.2585 261.271 82.2797 251.083 82.3029 250.851C84.3451 231.009 86.9443 226.205 90.4021 217.827C90.7611 217.163 91.0489 216.463 91.2608 215.739C91.6321 213.256 89.5203 214.045 89.1257 214.579C87.6173 216.505 86.2481 218.57 84.4843 220.496C84.7396 219.475 84.9253 218.431 85.2502 217.433C91.904 196.358 103.896 177.363 120.061 162.293C126.257 156.561 133.823 153.985 141.713 152.291C156.529 148.964 171.611 146.96 186.781 146.303C190.656 146.28 194.53 146.466 198.385 146.86C204.233 147.301 205.741 150.922 220.849 170.067C223.518 173.456 230.132 178.167 227.556 190.304C225.503 198.796 224.221 207.457 223.727 216.18C223.727 219.313 220.965 223.142 216.927 226.553C217.855 214.323 217.646 202.464 211.311 191.557C206.427 192.956 201.349 193.559 196.273 193.344C192.954 193.344 190.076 191.557 186.317 194.18C183.729 195.761 180.984 197.067 178.125 198.078C175.286 199.25 172.148 199.485 169.167 198.751C168.579 198.644 167.973 198.742 167.45 199.03C162.019 202.418 156.426 204.948 149.812 203.23C149.302 203.091 148.762 203.1 148.257 203.256C147.751 203.412 147.301 203.709 146.958 204.112C136.863 213.395 137.35 206.781 130.991 210.471C128.373 211.526 125.671 212.365 122.915 212.977L122.521 211.283C126.025 208.823 128.903 205.319 134.542 205.783C134.807 205.779 135.068 205.719 135.308 205.607C135.548 205.495 135.761 205.334 135.934 205.133C137.578 203.092 139.916 201.729 142.502 201.304C143.662 201.095 145.101 201.304 145.983 200.701C150.741 197.69 156.481 196.641 161.996 197.777C162.555 197.833 163.116 197.685 163.574 197.359C165.947 195.208 168.805 193.662 171.904 192.854C175.004 192.046 178.252 191.999 181.374 192.717C181.968 192.843 182.588 192.744 183.114 192.439C187.547 189.051 192.397 187.542 197.781 189.677C200.543 190.768 202.423 186.985 209.385 188.911C213.098 189.979 212.17 187.867 210.383 187.403C207.17 186.338 203.69 186.403 200.52 187.589C199.665 187.967 198.707 188.041 197.804 187.798C192.095 185.802 187.152 187.565 182.372 190.559C180.933 191.464 175.015 187.565 163.69 195.061C163.235 195.418 162.713 195.678 162.154 195.826C161.595 195.973 161.013 196.005 160.441 195.92C151.158 194.412 146.517 199.053 143.477 199.331C137.559 199.912 135.169 203.973 133.823 203.973C130.876 204.042 128.036 205.087 125.746 206.943C124.515 207.782 123.337 208.696 122.219 209.682C121.592 207.361 120.943 204.901 120.27 202.534C119.457 199.772 118.367 199.587 115.907 201.095C115.048 201.629 114.955 202.209 115.489 203.3C116.696 205.783 117.554 208.429 118.506 210.889C113.029 213.72 113.029 212.745 105.928 219.986C105.696 220.218 104.21 222.678 107.552 221.517C107.83 221.389 108.094 221.234 108.341 221.053C108.156 222.887 107.923 224.627 107.854 226.368C107.784 228.108 109.455 227.853 109.966 226.925C113.493 220.357 116.812 219.174 120.107 217.015C120.455 218.222 120.757 219.336 121.035 220.566C121.07 220.836 121.17 221.093 121.327 221.316C121.483 221.538 121.692 221.719 121.934 221.842C122.177 221.966 122.446 222.028 122.718 222.024C122.99 222.02 123.257 221.95 123.495 221.819C124.076 221.61 124.841 220.473 124.702 219.963C124.308 218.222 123.89 216.458 123.472 214.718C126.085 214.16 128.647 213.383 131.131 212.397C132.806 211.328 134.79 210.846 136.77 211.028C143.5 211.678 147.956 204.46 149.835 205.017C153.955 205.953 158.27 205.479 162.089 203.671C165.407 202.418 168.471 200.306 169.237 200.445C176.407 201.745 181.954 198.125 187.268 195.804L187.547 196.222L179.1 202.696C179.004 202.761 178.935 202.859 178.907 202.971C178.88 203.083 178.895 203.202 178.95 203.303C179.005 203.405 179.096 203.482 179.206 203.52C179.315 203.558 179.434 203.554 179.54 203.509C183.207 202.232 190.262 196.547 190.285 194.226C196.706 195.339 203.289 195.11 209.617 193.553C212.799 201.27 214.399 209.548 214.323 217.895C214.247 226.243 212.497 234.49 209.176 242.149C208.387 244.028 207.621 245.908 206.855 247.811C204.21 255.098 210.824 256.49 214.653 258.811C215.696 259.525 216.696 260.299 217.646 261.132C215.883 262.385 214.444 263.453 213.005 264.427C210.684 265.982 205.231 265.889 200.659 274.406C197.178 280.904 193.488 287.263 189.844 293.668C186.967 298.704 184.228 300.073 178.38 298.867C166.777 296.407 161.369 294.016 154.987 293.947C153.948 294.109 152.943 294.446 152.017 294.945C146.86 286.382 143.327 276.941 141.597 267.096C141.04 263.104 139.276 259.832 139.276 257.21V251.501C139.276 250.433 138.046 249.505 137.512 251.501C137.349 252.405 137.263 253.321 137.257 254.239C136.556 253.554 136.008 252.729 135.648 251.817C135.288 250.905 135.125 249.927 135.169 248.948C135.27 242.792 136.432 236.7 138.603 230.939C138.958 229.852 139.527 228.846 140.276 227.981C141.026 227.116 141.94 226.41 142.966 225.904C144.243 225.3 144.753 225.718 144.776 227.017V230.545C145.525 230.044 146.118 229.344 146.491 228.524C146.864 227.704 147.002 226.797 146.888 225.904C146.633 223.583 148.211 221.262 149.348 218.06C149.719 217.038 148.397 216.203 147.77 217.665C146.911 219.614 146.192 221.633 145.449 223.583C143.672 223.484 141.91 223.958 140.423 224.935C138.935 225.913 137.801 227.343 137.188 229.013C134.142 235.754 132.841 243.152 133.405 250.526C133.954 252.44 134.843 254.24 136.027 255.841C137.396 258.533 137.35 254.912 135.842 274.986C134.922 275.076 134.045 275.419 133.308 275.976C132.571 276.533 132.002 277.283 131.664 278.143C129.344 284.757 138.302 285.105 138.905 279.767C139.276 276.634 137.327 278.166 137.861 273.014C138.116 270.693 138.418 268.372 138.719 265.773C141.713 278.584 140.204 277.586 152.643 302.185C150.184 301.953 140.808 301.094 138.464 300.955C136.12 300.816 136.77 300.213 132.198 287.472C131.27 284.849 129.877 287.031 129.877 287.797C129.877 291.672 130.086 295.525 130.202 299.4C126.837 299.4 123.24 299.54 119.805 299.4C117.972 299.261 116.719 294.295 113.377 286.428C112.333 283.828 110.198 284.06 111.01 286.869V286.799ZM119.597 215.53C115.673 217.459 112.243 220.261 109.571 223.722C109.989 221.703 110.43 219.661 111.056 216.76L118.692 212.327C118.993 213.604 119.318 214.579 119.597 215.6V215.53ZM134.728 281.67C134.008 281.508 133.428 280.649 133.103 280.347C133.266 278.259 134.101 277.145 135.424 277.238C136.12 277.238 137.048 278.491 137.28 279.349C137.512 280.208 135.958 281.995 134.728 281.74V281.67ZM115.976 299.47C118.575 302.765 120.618 301.651 130.365 302.185C134.147 302.394 132.268 299.4 132.685 297.335C133.174 298.344 133.6 299.383 133.962 300.445C134.222 301.398 134.802 302.232 135.605 302.807C136.408 303.382 137.385 303.662 138.371 303.601C142.409 303.902 146.424 304.32 150.16 304.645C150.508 310.354 150.857 315.808 151.228 321.679C143.933 327.253 135.993 331.928 127.58 335.603C126.66 335.951 125.645 335.951 124.725 335.603C120.429 333.841 116.582 331.137 113.47 327.69C111.763 325.836 109.934 324.099 107.993 322.491C113.029 315.715 116.51 308.59 115.976 299.47ZM121.105 364.45C120.873 359.808 124.006 359.994 124.052 362.384C124.122 364.148 123.333 364.659 121.105 364.45ZM75.9441 404.575C75.5728 404.575 75.1087 403.623 74.3196 402.672L83.6025 400.885C83.8113 401.836 83.9506 402.509 84.1826 403.6C81.3746 403.902 78.6594 404.366 75.9441 404.575ZM77.6847 399.423V389.699L81.5138 391.532C82.1404 394.201 82.767 396.777 83.4168 399.423H77.6847ZM101.472 488.051C98.5942 485.73 94.5098 484.152 93.2334 479.835C91.7946 474.985 90.3557 470.111 89.265 465.168C79.4252 420.402 80.4231 421.841 78.4969 407.615C78.4969 407.267 78.845 406.594 79.1467 406.547C80.9104 406.13 82.7206 405.874 84.5075 405.549C90.2165 433.282 95.8326 460.666 101.472 488.051ZM73.0665 385.336C73.7859 383.015 74.0412 382.853 76.2226 383.572C79.7426 384.776 82.8814 386.89 85.3198 389.699C81.7459 389.258 85.1573 390.558 73.0665 385.336ZM87.6173 388.423C84.786 386.102 81.8387 383.781 78.4737 381.066C78.729 377.237 79.0075 372.665 79.3556 367.559C84.3306 373.893 88.0558 381.115 90.3325 388.84C89.3114 389.629 88.6152 389.188 87.7101 388.446L87.6173 388.423ZM89.5203 380.045C82.0012 363.939 77.2205 363.614 78.1024 361.897C78.9843 360.18 80.0982 358.277 81.0729 356.559C87.5517 366.119 92.1585 376.821 94.649 388.098C92.1427 389.513 92.5604 386.38 89.6131 380.068L89.5203 380.045ZM97.2946 387.796C88.0118 361.502 90.8663 368.395 84.554 357.929C84.2237 357.408 84.0484 356.804 84.0484 356.188C84.0484 355.572 84.2237 354.968 84.554 354.447C88.9633 345.582 95.9022 337.367 106.67 324C108.377 325.499 109.997 327.095 111.521 328.78C114.564 332.3 118.364 335.085 122.637 336.926C123.611 337.413 124.076 337.854 123.983 339.061C122.312 358.764 123.17 358.091 121.407 358.88C120.449 359.549 119.732 360.507 119.36 361.614C118.988 362.722 118.982 363.919 119.341 365.03C119.6 365.41 119.946 365.724 120.349 365.946C120.752 366.168 121.202 366.291 121.662 366.306C122.939 366.251 124.153 365.731 125.073 364.844C125.692 364.065 126.045 363.108 126.078 362.113C126.111 361.119 125.824 360.14 125.259 359.321C124.964 358.85 124.826 358.297 124.865 357.743C125.259 351.663 125.654 345.606 126.141 339.525C126.21 339.222 126.342 338.936 126.531 338.688C126.719 338.44 126.958 338.235 127.232 338.086C154.5 326.181 151.437 320.472 156.31 323.257C164.035 327.231 171.329 331.991 178.078 337.46C169.77 346.743 169.144 346.928 159.304 362.663C154.299 370.639 150.322 379.217 147.468 388.191C146.563 390.906 145.449 387.819 97.3875 387.819L97.2946 387.796ZM153.641 389.49C152.342 389.304 150.996 389.281 149.302 389.165C156.32 369.524 167.525 351.644 182.14 336.764C182.887 337.208 183.538 337.799 184.052 338.501C184.567 339.203 184.934 340.001 185.133 340.848C185.737 342.426 175.549 349.087 158.167 381.368C157.082 383.609 156.189 385.938 155.498 388.33C155.127 389.212 154.802 389.653 153.734 389.513L153.641 389.49ZM159.884 389.212L157.819 389.374C157.819 383.48 177.197 352.73 185.876 344.492C194.35 352.567 201.182 362.205 205.996 372.874C187.709 376.541 191.214 375.357 166.011 383.665C160.395 385.568 159.095 385.522 159.977 389.235L159.884 389.212ZM163.806 386.52C178.835 381.136 194.302 377.067 210.035 374.359C209.547 379.766 210.615 379.72 206.623 380.091C194.541 381.206 182.581 383.388 170.884 386.612C167.983 387.425 165.175 388.562 162.321 389.537C161.601 387.912 162.251 387.123 163.899 386.543L163.806 386.52ZM251.529 409.239C242.617 432.122 235.029 465.4 209.594 469.578C195.669 471.898 189.589 457.394 166.777 406.153C165.338 402.927 164.34 399.516 163.017 395.872C179.595 396.849 195.976 399.969 211.752 405.155C213.423 405.665 212.935 410.493 214.073 419.474C214.862 425.832 215.836 432.168 216.788 438.48C216.788 439.107 218.691 442.565 218.505 437.993C218.455 435.998 218.3 434.007 218.041 432.029C217.734 430.419 217.763 428.764 218.127 427.167C218.49 425.569 219.18 424.064 220.153 422.746C226.94 412.597 233.041 402.007 238.417 391.045C250.6 406.663 252.248 407.661 251.622 409.263L251.529 409.239ZM256.008 409.123C250.438 402.161 245.031 395.199 239.763 388.423C239.426 388.077 239.167 387.663 239.004 387.209C238.841 386.755 238.778 386.271 238.819 385.79C238.859 385.309 239.003 384.843 239.239 384.423C239.476 384.002 239.801 383.637 240.191 383.353C240.581 383.069 241.027 382.872 241.5 382.776C241.973 382.68 242.461 382.686 242.931 382.795C243.401 382.904 243.842 383.112 244.224 383.407C244.607 383.701 244.921 384.074 245.147 384.501C249.37 390.999 253.455 397.566 257.632 404.064C259.094 406.222 257.261 407.383 256.101 409.147L256.008 409.123ZM256.82 397.52C252.643 391.509 249.649 385.29 244.474 380.486C247.404 371.433 248.315 361.848 247.143 352.405C250.624 352.916 254.105 353.403 257.586 353.96C257.964 354.066 258.359 354.095 258.748 354.047C259.138 353.999 259.514 353.874 259.854 353.68C260.195 353.486 260.494 353.226 260.734 352.916C260.974 352.605 261.15 352.25 261.252 351.871C262.818 348.385 262.984 344.43 261.717 340.825C260.827 337.893 260.16 334.899 259.721 331.867C259.396 330.126 259.094 328.734 261.113 330.939C266.753 337.042 265.755 336.462 266.753 337.251C268.377 338.667 269.073 336.555 268.4 335.975C267.147 334.861 267.542 333.654 267.983 332.47C269.514 327.829 270.93 323.35 272.485 318.546C278.82 342.705 280.027 342.821 276.592 351.036C274.673 356.03 271.892 360.649 268.377 364.682C264.641 368.743 264.223 372.154 256.913 397.45L256.82 397.52ZM266.497 373.64C266.959 371.04 268.15 368.626 269.932 366.678C270.274 366.425 270.691 366.294 271.115 366.306C296.017 364.635 292.164 364.844 293.58 365.216C301.354 367.095 292.791 366.817 324.12 366.422C327.762 366.569 331.408 366.429 335.028 366.005C337.329 368.95 340.105 371.492 343.243 373.524L266.497 373.64ZM356.471 362.895C355.075 362.511 353.77 361.851 352.633 360.956C351.495 360.06 350.549 358.945 349.848 357.678C349.147 356.411 348.707 355.017 348.553 353.577C348.399 352.138 348.535 350.682 348.952 349.296C349.957 345.829 352.243 342.875 355.346 341.03C358.448 339.186 362.136 338.59 365.661 339.363C368.028 339.915 370.13 341.273 371.607 343.203C373.084 345.133 373.845 347.516 373.76 349.945C373.637 351.986 373.07 353.975 372.1 355.775C371.13 357.574 369.78 359.141 368.144 360.367C366.508 361.592 364.625 362.447 362.625 362.872C360.625 363.296 358.557 363.28 356.564 362.825L356.471 362.895Z" fill="#F24A00"/><path d="M493.717 248.904C478.633 249.322 446.955 260.949 424.839 282.88C412.029 295.597 407.202 299.124 407.991 300.146C408.219 300.417 408.503 300.636 408.823 300.788C409.144 300.94 409.493 301.022 409.847 301.027C465.266 300.308 445.377 301.84 492.627 301.027C495.504 301.027 495.574 300.679 495.69 297.732C495.876 293.3 497.175 263.246 497.57 252.641C497.638 252.124 497.585 251.598 497.413 251.105C497.242 250.612 496.958 250.167 496.583 249.804C496.209 249.44 495.755 249.17 495.257 249.014C494.759 248.858 494.232 248.82 493.717 248.904Z" fill="#F24A00"/><path d="M493.114 309.034C493.602 309.034 493.787 308.477 494.53 307.734C493.694 307.131 493.532 306.875 493.068 306.736C492.604 306.597 484.179 307.2 477.658 307.2H418.387C416.09 307.2 416.531 308.221 416.067 312.747C415.626 317.876 415.556 316.53 416.067 346.768C416.067 348.439 416.252 349.646 416.508 353.011C421.149 353.336 422.959 353.522 425.489 353.568C435.259 353.684 484.156 354.032 491.745 353.963C492.279 353.963 492.557 353.614 493.393 353.197C492.975 351.944 493.137 352.129 492.766 352.152C490.817 352.292 489.076 352.57 487.359 352.524C478.076 352.361 419.246 350.737 418.62 350.714V309.428C496.804 309.428 491.118 309.521 493.114 309.034Z" fill="#F24A00"/><path d="M199.267 227.647C198.819 227.489 198.344 227.422 197.87 227.45C197.395 227.478 196.932 227.6 196.505 227.809C194.347 229.016 191.121 236.883 191.864 239.413C191.95 239.795 192.122 240.152 192.368 240.458C192.613 240.764 192.925 241.009 193.279 241.176C193.69 241.25 194.112 241.23 194.514 241.118C194.916 241.005 195.287 240.803 195.6 240.527C198.137 237.317 199.886 233.557 200.706 229.55C200.311 228.993 199.94 227.948 199.267 227.647Z" fill="#F24A00"/><path d="M186.085 281.696C190.726 280.118 193.349 279.654 192.583 277.774C191.98 276.265 190.634 277.124 189.636 277.518C183.602 279.839 184.623 277.194 179.935 271.392C179.657 271.067 178.937 271.137 178.403 271.021C178.403 271.508 178.009 272.158 178.218 272.506C183.346 281.881 182.465 279.63 186.085 281.696Z" fill="#F24A00"/><path d="M188.034 216.252C193.209 213.119 196.853 213.305 201.541 216.902C201.711 217.02 201.906 217.099 202.111 217.131C202.316 217.163 202.526 217.148 202.724 217.088C203.026 216.925 203.188 216.414 203.629 215.695C202.839 214.696 201.936 213.793 200.937 213.003C195.994 209.986 191.353 211.379 187.013 214.21C186.131 214.79 184.692 215.463 185.435 216.763C186.178 218.062 187.199 216.739 188.034 216.252Z" fill="#F24A00"/><path d="M152.551 217.853C157.866 216.203 162.547 212.963 165.965 208.57C167.032 207.364 165.64 206.389 164.595 207.549C155.73 217.528 149.07 215.579 152.551 217.853Z" fill="#F24A00"/><path d="M167.449 210.102C170.867 208.757 173.96 206.7 176.523 204.068C176.918 203.743 177.939 201.075 175.317 202.862C172.694 204.648 169.677 206.876 166.869 208.895C165.221 210.079 165.894 210.59 167.449 210.102Z" fill="#F24A00"/><path d="M243.337 346.606C246.075 347.001 246.656 342.313 243.546 341.965C241.388 341.663 239.113 345.979 243.337 346.606Z" fill="#F24A00"/><path d="M263.364 291.768C261.91 290.69 260.197 290.018 258.398 289.818C257.47 290.12 257.725 290.956 258.143 291.141L262.993 293.067C264.2 293.508 264.269 292.394 263.364 291.768Z" fill="#F24A00"/><path d="M495.179 361.678L386.718 361.864C387.468 359.535 388.358 357.042 389.061 354.549L412.867 353.641C413.429 353.641 414.835 352.802 414.788 351.894C414.741 350.985 413.171 350.892 412.656 350.892C408.93 351.032 392.88 351.451 389.787 351.544C391.369 345.103 389.53 338.313 384.914 333.537C377.498 325.71 366.626 322.123 355.977 323.987C346.089 325.408 339.575 331.744 335.1 340.13C333.226 343.415 332.054 347.049 331.679 350.799C319.87 349.949 308.026 349.786 296.205 350.31L297.845 341.83C303.234 341.132 303.726 341.062 304.711 340.875C318.066 338.29 328.399 331.557 334.468 319.165C335.639 316.835 335.147 316.02 332.359 316.09C327.04 316.09 312.021 316.462 309.326 316.462C313.087 312.083 317.597 308.414 322.658 305.63C336.201 298.642 350.939 296.312 365.818 294.705C378.424 293.4 389.647 296.825 395.223 293.144C398.129 291.257 401.151 289.557 403.893 287.484C432.431 265.913 451.621 245.436 496.163 242.851C497.381 242.851 499.068 242.851 498.998 241.08C498.928 239.31 497.288 239.706 496.163 239.822C490.891 240.311 485.572 240.731 480.324 241.499C449.091 246.158 433.087 261.603 413.242 276.279C392.857 291.351 393.091 291.747 388.264 291.84C378.892 292.026 369.754 287.996 336.201 296.871C314.013 302.718 300.259 316.02 295.034 339.338C292.983 346.99 291.917 354.876 291.847 362.796L289.727 362.889L289.481 365.219C293.569 364.974 292.585 365.137 293.429 365.358C301.278 367.245 292.632 366.966 324.263 366.57C327.942 366.721 331.621 366.57 335.276 366.15C337.596 369.109 340.407 371.66 343.57 373.698L288.555 373.779L288.25 376.551C368.184 376.307 344.824 376.19 355.579 376.982C365.302 377.705 364.576 376.353 370.434 376.353H495.109C498.881 376.353 498.764 373.581 495.624 373.558L375.378 373.907C378.74 371.462 381.727 368.538 384.258 365.242C385.734 365.545 460.408 365.242 496.069 365.242C499.373 365.149 500.615 361.654 495.179 361.678ZM316.496 319.491H326.337C325.927 321.471 325.728 323.486 325.751 325.501C326.22 329.624 322.869 330.859 314.528 335.704C315.348 329.647 315.723 325.268 316.496 319.491ZM306.772 320.12C307.593 318.932 310.639 319.491 313.661 319.677C313.216 326.037 313.661 324.126 311.318 335.983C311.318 336.403 310.896 336.985 310.545 337.078C306.667 338.429 302.614 339.21 298.501 339.408C300.095 332.547 302.895 326.013 306.772 320.12ZM298.455 363.495C297.424 363.495 295.713 362.749 295.526 362.05C294.987 358.952 295.151 355.761 295.994 352.732H331.679C331.996 356.355 332.558 359.954 333.366 363.495H298.455ZM359.316 363.297C358.543 363.25 357.769 363.145 357.008 362.971L356.914 363.04C351.08 361.445 347.647 355.446 349.252 349.634C349.276 349.553 349.299 349.471 349.323 349.39C351.431 342.168 358.812 337.812 366.193 339.419C371.125 340.561 374.546 345.01 374.37 350.042C373.89 357.834 367.153 363.774 359.316 363.297Z" fill="#FF8C00"/><path d="M495.661 248.706C495.333 248.659 495.005 248.671 494.677 248.717C479.447 249.137 447.464 260.807 425.134 282.821C412.201 295.587 407.327 299.127 408.124 300.152C408.592 300.7 409.272 301.026 409.998 301.038C465.951 300.315 445.871 301.853 493.575 301.038C496.481 301.038 496.551 300.688 496.668 297.73C496.856 293.28 498.168 263.114 498.566 252.468C498.812 250.628 497.512 248.95 495.661 248.706Z" fill="#FF8C00"/><path d="M494.458 309.075C494.951 309.075 495.138 308.515 495.89 307.768C495.044 307.161 494.88 306.905 494.411 306.765C493.941 306.625 485.419 307.231 478.822 307.231H418.863C416.539 307.231 416.985 308.258 416.516 312.81C416.07 317.968 415.999 316.614 416.516 347.027C416.516 348.707 416.704 349.921 416.962 353.305C421.657 353.632 423.488 353.819 426.047 353.865C435.931 353.982 485.396 354.332 493.072 354.262C493.612 354.262 493.894 353.912 494.739 353.492C494.317 352.232 494.481 352.418 494.105 352.442C492.133 352.582 490.373 352.862 488.635 352.815C479.245 352.652 419.732 351.018 419.098 350.995V309.472C498.19 309.472 492.439 309.565 494.458 309.075Z" fill="#FF8C00"/></svg>