<svg width="30" height="43" viewBox="0 0 30 43" fill="none" xmlns="http://www.w3.org/2000/svg">
<path d="M27.0747 0.413818H2.92531C1.31054 0.413818 0 1.72436 0 3.33913V39.9016C0 41.5163 1.31054 42.8269 2.92531 42.8269H27.0747C28.6895 42.8269 30 41.5163 30 39.9016V3.33913C30 1.72436 28.6895 0.413818 27.0747 0.413818ZM16.567 10.9235C16.7269 9.2931 17.2593 7.79729 18.0745 6.68958C18.5152 6.06356 18.9989 5.50385 19.5137 5.0202C19.7478 4.80178 20.0247 4.71402 20.2977 4.77058C20.6936 4.95194 21.0174 5.38684 21.1792 5.9563C21.4074 6.67398 21.4074 7.50866 21.1792 8.22634C20.953 8.95571 20.5669 9.54468 20.0832 9.89571C19.6113 10.2194 19.0867 10.3267 18.5757 10.2038C18.3865 10.159 18.2539 9.90156 18.2715 9.61878C18.2715 9.61098 18.2715 9.60318 18.2734 9.59538C18.3007 9.31455 18.4762 9.12148 18.6635 9.16439C19.0281 9.20924 19.3909 9.09223 19.7107 8.827C20.0071 8.56177 20.2295 8.14638 20.3367 7.65493C20.3952 7.4209 20.4108 7.16933 20.3855 6.92165C20.364 6.70128 20.2821 6.50431 20.1612 6.37949C19.9954 5.74958 19.0359 7.72709 18.8487 7.97671C18.2091 8.81335 17.7781 9.95032 17.6259 11.2004C17.388 13.2793 17.31 15.3933 17.3919 17.4996C17.3919 17.5054 17.3919 17.5093 17.3919 17.5152C17.3978 17.7667 17.2652 17.9754 17.0974 17.9832C16.9395 18.0008 16.7991 17.835 16.7737 17.6029C16.5143 15.3992 16.4441 13.1526 16.5689 10.9235H16.567ZM10.4004 15.5806C10.6325 13.4587 11.2371 11.4656 12.1517 9.80795C12.4365 9.29505 12.729 8.8114 13.0332 8.34335C13.2477 8.03132 13.4642 7.73879 13.6787 7.46381C13.8113 7.27074 13.9518 7.08937 14.1 6.92165C14.2716 6.72468 14.5037 6.68958 14.6967 6.83389C15.2877 7.25514 15.6991 8.08982 15.7928 9.06103C15.8454 9.98932 15.6367 10.9098 15.2155 11.5963C14.7865 12.2477 14.2443 12.7099 13.6495 12.9302C13.2263 13.1214 12.7738 13.0843 12.3662 12.8269C12.3194 12.7957 12.2785 12.745 12.2492 12.6806C11.8982 13.6811 11.6447 14.7517 11.4965 15.8594C11.1571 18.7594 11.0226 21.7062 11.0947 24.649C11.0947 24.9162 10.9504 25.1327 10.771 25.1327C10.6013 25.1327 10.4628 24.9318 10.457 24.6783C10.1937 21.6613 10.1742 18.6053 10.3985 15.5806H10.4004ZM5.15244 24.5905C5.06468 26.5973 5.01593 28.5904 4.95742 30.6108C4.95742 30.8702 4.81701 31.0788 4.64344 31.0788C4.47572 31.0632 4.34506 30.8604 4.33921 30.6108C4.3002 28.5748 4.2417 26.568 4.2417 24.5457C4.2417 23.1981 4.2417 21.8349 4.3002 20.4288C4.32945 18.9349 4.50497 17.4528 4.81896 16.033C5.06663 15.0482 5.43912 14.1433 5.91497 13.3671C6.2114 12.8932 6.53904 12.4661 6.89397 12.0916C7.39908 11.5397 7.93148 11.0483 8.48924 10.627C8.68816 10.4028 8.90463 10.2155 9.13476 10.0712C9.36878 9.93862 9.63206 10.0751 9.76077 10.393C9.9948 10.9605 10.1177 11.6158 10.1138 12.2828C10.1001 12.9478 10.0046 13.605 9.82903 14.2174C9.51895 14.9935 9.05675 15.6118 8.50679 15.9901C7.91198 16.2943 7.25866 16.2144 6.7048 15.7697C6.53514 15.6508 6.45518 15.3582 6.51953 15.095C6.27186 15.5806 6.06904 16.113 5.91302 16.6766C5.61659 17.9462 5.44107 19.2742 5.39427 20.6179C5.27725 21.9519 5.15049 23.2702 5.15049 24.5886L5.15244 24.5905ZM15.3052 33.2631C15.196 33.6726 15.0712 34.0744 14.9327 34.4644C14.8742 34.6243 14.804 34.7764 14.7279 34.9188C14.6558 35.0592 14.5739 35.1879 14.4842 35.2991C14.2501 35.5916 14.0044 35.7671 13.7509 36.0324C13.6417 36.2059 13.4642 36.2293 13.3355 36.087C13.197 35.9329 13.1678 35.6384 13.2711 35.4317C13.3706 35.0222 13.4857 34.6224 13.6144 34.2304C13.6748 34.0763 13.7431 33.9281 13.8192 33.7916L14.0746 33.4113C14.2989 33.1324 14.5251 32.914 14.7494 32.6351C14.765 32.5961 14.7826 32.559 14.804 32.5259C14.9405 32.3172 15.1628 32.3153 15.3033 32.5181C15.4437 32.7209 15.4437 33.0563 15.3091 33.2631H15.3052ZM12.534 28.2081C11.8007 29.2632 11.0362 30.289 10.2737 31.3129C8.98069 33.0271 7.6604 34.7121 6.27966 36.1767C6.14315 36.3249 5.95397 36.2859 5.84866 36.0889V36.087C5.7297 35.9095 5.73165 35.6209 5.84866 35.4453C6.49418 34.6399 7.12215 33.7896 7.73841 32.9101C8.96119 31.1666 10.0982 29.2768 11.3112 27.5041C12.5242 25.7314 13.7684 23.9294 15.0595 22.2152C15.6075 21.5111 16.1652 20.8383 16.7425 20.1635C18.0257 18.6404 19.3655 17.1758 20.6585 15.6079C20.795 15.4655 20.9784 15.485 21.0993 15.6527C21.2416 15.8516 21.2494 16.1851 21.1188 16.3977C19.9057 18.0827 18.5933 19.6643 17.39 21.32C16.8615 21.9792 16.3427 22.7261 15.8337 23.4438C14.7182 24.9825 13.6417 26.6226 12.534 28.2042V28.2081ZM19.0633 26.5973C18.9267 26.9639 18.839 27.3305 18.7005 27.7108C18.644 27.8571 18.5816 27.9995 18.5152 28.136C18.4392 28.2705 18.3573 28.3973 18.2715 28.5163C18.0472 28.8088 17.821 28.9843 17.5772 29.2495C17.4758 29.3958 17.3217 29.4251 17.2008 29.3198C17.0506 29.1891 16.9999 28.9024 17.0877 28.6781C17.1735 28.2705 17.2749 27.8688 17.3919 27.4768C17.4485 27.3227 17.5148 27.1765 17.5869 27.038C17.665 26.8995 17.7488 26.7728 17.8424 26.6577C18.0667 26.3827 18.3027 26.1273 18.5464 25.8952C18.562 25.862 18.5816 25.8308 18.6011 25.8035C18.7473 25.6124 18.9696 25.6339 19.0984 25.8542C19.2271 26.0746 19.2115 26.4061 19.0652 26.5992L19.0633 26.5973ZM20.7755 22.5389C20.6605 22.3536 20.6605 22.065 20.7755 21.8797C20.8633 21.5423 20.9023 21.2342 21.0096 20.9124C21.0564 20.7876 21.1129 20.6686 21.1753 20.5614C21.2397 20.4561 21.3118 20.3644 21.3898 20.2825C21.579 20.0797 21.7799 19.8983 21.9866 19.7403C22.0042 19.7052 22.0237 19.674 22.0471 19.6448C22.1972 19.4595 22.4196 19.4907 22.5424 19.715C22.6672 19.9393 22.6458 20.2728 22.4956 20.458C22.3981 20.7662 22.3396 21.0587 22.2206 21.3668C22.1758 21.4916 22.1231 21.6086 22.0646 21.7179C22.0061 21.829 21.9359 21.9285 21.8598 22.0104C21.6531 22.2171 21.4328 22.3946 21.2046 22.5369V22.5389C21.0856 22.7164 20.8925 22.7144 20.7755 22.5369V22.5389ZM27.7066 18.0417C27.061 20.7525 26.3746 23.4477 25.5828 26.0844C25.0835 27.666 24.6233 29.2203 24.1045 30.7571C23.3303 33.0719 22.4995 35.3283 21.7545 37.6432C21.6863 37.8811 21.503 37.9923 21.343 37.8909C21.3352 37.887 21.3294 37.8831 21.3216 37.8773C21.1753 37.7719 21.1149 37.5087 21.1851 37.2902C21.8403 34.5795 22.5171 31.8843 23.3088 29.2476C23.8178 27.6796 24.2878 26.0532 24.7969 24.5886C25.5613 22.2737 26.3531 20.0036 27.0571 17.6439C27.0591 17.6361 27.061 17.6283 27.063 17.6205C27.141 17.363 27.3438 17.248 27.5174 17.365C27.5174 17.365 27.5193 17.365 27.5213 17.3669C27.6949 17.4762 27.7768 17.7784 27.7046 18.0378L27.7066 18.0417Z" fill="#FF8C00"/>
</svg>
