<svg width="61" height="54" viewBox="0 0 61 54" fill="none" xmlns="http://www.w3.org/2000/svg">
<path d="M60.8571 3.09461C60.8033 2.4715 60.5975 1.8711 60.2576 1.34609C60.1383 1.17548 59.9864 1.03023 59.8106 0.918748C59.6348 0.807267 59.4386 0.731772 59.2334 0.696635C58.76 0.64988 58.2831 0.64988 57.8096 0.696635L54.0628 0.396888C52.1894 0.197056 50.316 0.0721614 48.4176 0.0222035C46.5192 -0.0277544 44.6707 0.0222035 42.7973 0.0222035C41.5276 0.0436348 40.26 0.135365 39.0005 0.296972C38.0183 0.441779 37.0704 0.763375 36.2029 1.24617C36.0022 1.37172 35.8283 1.53564 35.6911 1.72853C35.554 1.92142 35.4562 2.13948 35.4035 2.37022C35.2988 3.19866 35.2487 4.0331 35.2537 4.86812L34.4293 13.4609C34.2545 15.5092 34.1796 17.5324 34.0796 19.5807C33.2803 19.5807 32.481 19.3559 31.5817 19.306C30.7534 19.186 29.9122 19.186 29.0838 19.306C28.2044 19.4947 27.361 19.8236 26.586 20.2801L26.7358 17.3076C26.78 16.6089 26.78 15.9081 26.7358 15.2094C26.8237 14.8501 26.8491 14.4783 26.8108 14.1103C26.6665 13.8395 26.4553 13.6102 26.1974 13.444C25.9394 13.2779 25.6432 13.1805 25.337 13.1611H22.8391H21.815V10.8381C21.8047 10.0494 21.7211 9.2633 21.5652 8.49007C21.4193 7.86234 21.138 7.27409 20.7409 6.76652C20.5218 6.49962 20.238 6.29324 19.9166 6.16702C19.329 6.00975 18.7258 5.91761 18.1181 5.89226C17.3437 5.89226 16.5944 5.66745 15.82 5.59251C15.0457 5.51757 14.2464 5.59251 13.3221 5.59251C12.2829 5.60914 11.2502 5.76027 10.2497 6.04213C9.39981 6.30218 8.65006 6.81654 8.10153 7.51589C7.67829 8.19081 7.44526 8.96755 7.4271 9.76399C7.43074 10.8096 7.51424 11.8535 7.67689 12.8864H6.15317C5.4684 12.7571 4.77578 12.6737 4.07992 12.6366C3.59347 12.6093 3.11132 12.7408 2.70608 13.0113C2.39785 13.254 2.17123 13.5852 2.05662 13.9605C1.93859 14.7882 1.87186 15.6224 1.85679 16.4584L1.45713 23.2776C1.08245 30.6214 1.2573 37.9902 1.10742 45.359C1.10742 47.1825 1.10742 49.0309 0.907593 50.8544C0.919393 51.0426 0.9995 51.2201 1.13288 51.3535C1.26625 51.4868 1.44373 51.567 1.63198 51.5788C1.63198 51.5788 1.63198 51.5788 1.78186 51.5788C1.93173 51.5788 1.78186 51.7036 1.78186 51.7786C1.78835 51.9862 1.87542 52.1832 2.02462 52.3277C2.17383 52.4723 2.37345 52.553 2.58118 52.5529C9.17563 52.7028 15.7701 53.0275 22.3645 53.1774H30.8574H35.8531C42.6224 53.0275 49.4167 52.7278 56.186 52.528C56.4201 52.5214 56.6425 52.4238 56.8058 52.2559C56.9691 52.088 57.0604 51.8629 57.0603 51.6287C57.0603 51.6287 57.0603 51.5038 57.0603 51.4289C57.1639 51.3578 57.2511 51.2653 57.3157 51.1575C57.3804 51.0497 57.4211 50.9293 57.435 50.8044C58.1094 42.6113 58.4841 34.3932 59.0586 26.1752C59.3084 22.6781 59.5831 19.1811 59.9328 15.684L60.8571 6.01715C60.9244 5.04414 60.9244 4.06763 60.8571 3.09461ZM19.2921 9.5142C19.4534 10.0278 19.5704 10.5543 19.6418 11.0879L20.0165 13.2111H13.9966L9.37546 12.9613C9.37986 12.1266 9.42989 11.2927 9.52533 10.4634C9.54871 9.97714 9.71367 9.50831 9.99993 9.11454C10.2638 8.91192 10.572 8.77493 10.8992 8.71488C11.7293 8.6243 12.5669 8.6243 13.3971 8.71488H17.7184C18.5427 8.76484 18.7925 7.91555 19.2921 9.5142ZM19.467 50.4047C13.8217 50.4047 8.15149 50.7794 2.48127 51.0292C3.13072 43.7104 3.25561 36.3416 3.70524 28.9978C3.70524 27.1743 3.95502 25.3509 4.1049 23.5274L4.75435 16.6082C4.75435 16.4584 4.95418 15.9088 5.02912 15.4342L5.8784 15.684L13.8467 16.1336H22.7142C22.7142 16.1336 23.5135 15.9088 24.138 15.8339V17.1328L23.9632 25.176C23.8383 28.3234 23.8383 31.4957 23.9632 34.668C23.9632 39.364 24.3129 44.0851 24.4378 48.7811C24.4341 48.8991 24.455 49.0165 24.4993 49.1259C24.5435 49.2353 24.61 49.3343 24.6946 49.4165C24.7792 49.4988 24.88 49.5625 24.9906 49.6036C25.1013 49.6447 25.2192 49.6624 25.337 49.6554C25.4518 49.6554 25.5655 49.6328 25.6716 49.5888C25.7776 49.5449 25.874 49.4805 25.9552 49.3993C26.0364 49.3181 26.1008 49.2217 26.1447 49.1157C26.1887 49.0096 26.2113 48.8959 26.2113 48.7811V34.643C26.2113 31.5207 26.3362 28.4233 26.561 25.3259L26.7108 22.3284C27.5351 22.1816 28.3716 22.1147 29.2087 22.1286C29.9082 22.1286 30.6325 22.1286 31.332 22.0037C32.217 21.8999 33.0935 21.733 33.9547 21.5041V23.0278C33.7549 27.8737 33.7299 32.7446 33.705 37.6155C33.705 40.563 33.5051 43.5106 33.4552 46.4581V50.3048H30.9573C27.0106 50.3548 23.2388 50.3298 19.467 50.4047ZM57.9595 4.11875C57.9595 4.81816 57.9595 5.54255 57.8346 6.01715L57.2351 15.6091C56.9853 19.1561 56.7855 22.6781 56.6356 26.2251C56.2609 34.4182 56.0861 42.6613 55.6115 50.8544L34.879 50.4547V50.3298V46.558C34.879 43.6105 35.3036 40.663 35.4035 37.6905C35.5284 33.6439 35.7033 29.6223 35.9531 25.6006C36.2029 21.579 36.5276 17.6074 36.9772 13.5858L38.0013 5.01799V3.49428C38.4016 3.36513 38.8106 3.26496 39.2253 3.19453C40.3607 3.05676 41.5037 2.99002 42.6474 2.9947H48.0928C49.9163 2.9947 51.6898 3.16955 53.4883 3.3444L57.385 3.61917H57.7347L57.9595 4.11875Z" fill="#27588D"/>
<path d="M51.6898 10.963C50.9904 10.7632 50.3659 10.5134 49.6415 10.3386L48.7423 10.1887C48.4437 10.1513 48.1416 10.1513 47.843 10.1887C47.1156 10.3133 46.3978 10.4886 45.6948 10.7132C45.5944 10.7065 45.4936 10.72 45.3985 10.7531C45.3034 10.7862 45.2159 10.838 45.1413 10.9057C45.0667 10.9733 45.0065 11.0552 44.9642 11.1466C44.922 11.238 44.8986 11.337 44.8955 11.4376C44.8887 11.5394 44.9021 11.6414 44.9349 11.738C44.9677 11.8345 45.0192 11.9237 45.0865 12.0003C45.1538 12.0768 45.2356 12.1394 45.3271 12.1843C45.4186 12.2292 45.5181 12.2556 45.6199 12.2619C46.2882 12.5568 46.972 12.8153 47.6682 13.0363C47.9674 13.0605 48.2682 13.0605 48.5674 13.0363H49.4667C50.1811 12.9415 50.8899 12.808 51.5899 12.6366C51.7188 12.6583 51.8509 12.6517 51.977 12.6171C52.103 12.5826 52.2201 12.5209 52.3199 12.4365C52.4197 12.3521 52.4999 12.2469 52.5549 12.1283C52.61 12.0098 52.6385 11.8806 52.6385 11.7499C52.6385 11.6191 52.61 11.49 52.5549 11.3714C52.4999 11.2528 52.4197 11.1477 52.3199 11.0632C52.2201 10.9788 52.103 10.9172 51.977 10.8826C51.8509 10.8481 51.7188 10.8414 51.5899 10.8631L51.6898 10.963Z" fill="#27588D"/>
<path d="M49.5166 22.7281C49.0663 22.4346 48.5897 22.1837 48.0928 21.9787C47.8871 21.8859 47.6678 21.8268 47.4434 21.8039H46.7939C46.2705 21.9299 45.7603 22.1055 45.2702 22.3284C45.1658 22.3143 45.0596 22.3224 44.9586 22.3522C44.8575 22.3819 44.7639 22.4326 44.6837 22.5009C44.6036 22.5693 44.5388 22.6538 44.4935 22.7488C44.4482 22.8439 44.4235 22.9475 44.4209 23.0528C44.4141 23.1545 44.4275 23.2566 44.4603 23.3532C44.4931 23.4497 44.5446 23.5388 44.6119 23.6154C44.6792 23.692 44.7609 23.7546 44.8525 23.7995C44.944 23.8444 45.0435 23.8708 45.1453 23.8771C45.5836 24.1686 46.0428 24.4274 46.5191 24.6515C46.7182 24.6755 46.9195 24.6755 47.1186 24.6515C47.3177 24.6755 47.519 24.6755 47.7181 24.6515C48.2427 24.6515 48.6673 24.4516 49.1919 24.3517C49.4204 24.3948 49.6567 24.3453 49.8488 24.2141C50.0409 24.083 50.173 23.8809 50.216 23.6523C50.2591 23.4237 50.2096 23.1874 50.0784 22.9954C49.9473 22.8033 49.7452 22.6712 49.5166 22.6282V22.7281Z" fill="#27588D"/>
<path d="M49.1169 36.9162C48.5475 36.6792 47.9634 36.479 47.3684 36.3167C47.1108 36.2939 46.8517 36.2939 46.5941 36.3167C46.3449 36.2921 46.0939 36.2921 45.8447 36.3167C45.2444 36.4934 44.6596 36.719 44.0962 36.9911C43.8908 36.9911 43.6938 37.0727 43.5486 37.2179C43.4034 37.3631 43.3218 37.5601 43.3218 37.7655C43.3218 37.9708 43.4034 38.1678 43.5486 38.313C43.6938 38.4582 43.8908 38.5398 44.0962 38.5398C44.6712 38.7716 45.2644 38.9554 45.8697 39.0894C46.1104 39.1152 46.3533 39.1152 46.5941 39.0894H47.3184C47.9179 38.9645 48.4175 38.7646 49.017 38.6397C49.2514 38.6466 49.4792 38.5617 49.6518 38.403C49.8245 38.2444 49.9283 38.0246 49.9412 37.7904C49.9446 37.6789 49.9259 37.5678 49.8862 37.4635C49.8466 37.3592 49.7868 37.2637 49.7103 37.1825C49.6337 37.1013 49.5419 37.036 49.4401 36.9903C49.3383 36.9446 49.2285 36.9194 49.1169 36.9162Z" fill="#27588D"/>
<path d="M10.8992 27.0495C11.4987 27.0495 11.9483 27.2993 12.5229 27.3492C12.7553 27.375 12.9898 27.375 13.2223 27.3492C13.4689 27.3147 13.7115 27.2561 13.9467 27.1744C14.5281 26.9502 15.0882 26.6743 15.6202 26.3501C15.7356 26.3297 15.8455 26.2857 15.943 26.2208C16.0405 26.1559 16.1235 26.0715 16.1869 25.973C16.2502 25.8744 16.2925 25.7639 16.311 25.6482C16.3296 25.5326 16.324 25.4143 16.2947 25.3009C16.271 25.1873 16.2249 25.0795 16.1592 24.9838C16.0934 24.8881 16.0092 24.8065 15.9115 24.7437C15.8139 24.681 15.7047 24.6383 15.5903 24.6181C15.476 24.598 15.3588 24.6008 15.2456 24.6265C14.6211 24.6265 14.1215 24.4017 13.522 24.3767C13.1247 24.3149 12.7203 24.3149 12.323 24.3767C11.6162 24.6371 10.9639 25.0267 10.3996 25.5257C10.2042 25.5887 10.0419 25.7267 9.94817 25.9094C9.85449 26.0921 9.83719 26.3045 9.90007 26.4999C9.92559 26.604 9.97244 26.7017 10.0377 26.7868C10.1029 26.8718 10.1851 26.9424 10.279 26.9941C10.3729 27.0457 10.4765 27.0773 10.5833 27.0869C10.6901 27.0964 10.7976 27.0837 10.8992 27.0495Z" fill="#27588D"/>
<path d="M16.5195 37.9402C15.6452 37.7904 14.8209 37.5655 14.0216 37.4157H12.8975C12.5232 37.3908 12.1477 37.3908 11.7734 37.4157C10.8697 37.5644 9.97679 37.773 9.1007 38.0401C8.89533 38.0401 8.69837 38.1217 8.55316 38.267C8.40794 38.4122 8.32635 38.6091 8.32635 38.8145C8.32635 39.0199 8.40794 39.2168 8.55316 39.362C8.69837 39.5073 8.89533 39.5888 9.1007 39.5888C9.99994 39.8137 10.7743 40.1134 11.5986 40.2633C11.9724 40.3003 12.3489 40.3003 12.7226 40.2633C13.1053 40.2881 13.4891 40.2881 13.8717 40.2633C14.7627 40.1451 15.6466 39.9784 16.5195 39.7637C16.6364 39.7637 16.7522 39.7403 16.8599 39.6948C16.9676 39.6493 17.0651 39.5827 17.1466 39.4989C17.2282 39.415 17.292 39.3157 17.3345 39.2067C17.3769 39.0977 17.3971 38.9813 17.3937 38.8645C17.397 38.7464 17.3771 38.6288 17.3349 38.5184C17.2928 38.408 17.2293 38.307 17.1481 38.2212C17.0669 38.1353 16.9696 38.0664 16.8617 38.0182C16.7539 37.9699 16.6376 37.9435 16.5195 37.9402Z" fill="#27588D"/>
</svg>
