<svg width="2013" height="142" viewBox="0 0 2013 142" fill="none" xmlns="http://www.w3.org/2000/svg">
<path d="M74.2288 86.3206C75.2659 74.8857 75.6181 63.373 75.2723 51.8732C74.9659 48.0813 75.1679 48.858 72.8072 46.2735C61.3347 33.8273 37.4831 36.1963 28.7433 47.1807C26.7866 50.0196 25.9779 82.9201 28.7433 88.5199C31.8609 94.8964 46.3008 112.916 53.1036 112.89C60.1933 112.231 71.8938 94.0608 74.2225 86.3269L74.2288 86.3206ZM55.471 84.5255C54.3687 86.5424 53.0842 88.4155 51.6297 90.1189C50.6057 91.1436 49.1576 91.424 47.8924 90.8498C46.2162 89.8709 44.729 88.533 43.516 86.8948C35.6176 77.2876 36.8958 77.1637 37.9135 76.3151C38.7092 75.7277 39.7656 75.9105 40.3723 76.7394C40.9592 77.3465 44.5333 83.8535 47.8988 83.8535C49.0208 83.8535 49.073 83.0048 50.2468 80.7532C51.4207 78.5017 52.9143 75.7083 54.5189 72.8497C58.3084 66.1011 62.7955 58.8043 64.7717 55.3389C65.2543 54.4902 65.6783 53.6355 65.6783 53.6355C65.9262 52.7999 66.6111 52.2387 67.3873 52.2387C68.4177 52.2387 69.2524 53.1914 69.2524 54.3664C66.4348 61.9045 63.2781 69.2666 59.802 76.4392C58.3084 79.4806 56.8148 82.2739 55.4777 84.5255H55.471Z" fill="#F24A00"/>
<path d="M90.5473 0H9.78326C4.38291 0 0 4.38585 0 9.78985V132.15C0 137.554 4.38291 141.94 9.78326 141.94H90.5473C95.9478 141.94 100.331 137.554 100.331 132.15V9.78985C100.331 4.38585 95.9478 0 90.5473 0ZM86.8491 56.8658C86.7123 58.6345 84.4231 90.4126 83.8817 92.0049C80.7771 101.821 69.409 116.982 58.68 123.352C58.2429 123.528 57.767 123.306 57.5192 122.81C57.2188 122.203 57.3626 121.407 57.8385 121.028C67.9609 114.868 78.7227 99.9282 81.4553 90.8825C82.1988 82.2675 83.6141 56.8595 83.6141 56.4351C84.1228 49.974 85.1014 45.3661 82.0945 40.6277C74.4376 31.9736 65.6326 27.0657 51.7274 26.8046C29.5976 26.1585 21.6666 38.3437 20.8579 38.6894C17.8577 43.0818 19.3708 47.2589 18.7643 54.7057C18.1577 62.1524 17.649 87.0447 20.8253 93.4603C24.5038 100.822 40.5613 118.999 49.7706 122.353C50.3837 122.569 50.7489 123.378 50.5793 124.161C50.4097 124.945 49.7773 125.408 49.164 125.193C39.3483 121.747 22.508 103.661 18.3599 95.4378C14.5836 88.0302 14.7466 62.8378 15.3206 54.2291C15.7902 46.8674 14.1074 41.4828 18.2229 35.5828C19.4035 34.7669 27.1974 21.3288 51.7926 21.8444C64.0152 21.1526 75.9245 26.9156 84.7231 37.7758C88.6363 44.1523 87.3187 49.6607 86.8491 56.8528V56.8658ZM52.9732 115.736C48.2968 115.005 43.9006 112.466 40.3854 108.459C34.9652 103.276 30.0868 97.2262 25.88 90.4581C22.7102 84.0425 22.508 49.0731 25.88 43.9499C32.5261 36.7575 39.8506 33.0113 51.9294 33.2724C57.2386 33.2724 62.4956 34.532 67.4522 36.973C72.7156 40.8041 70.12 36.5423 77.5746 45.588C80.8487 50.9267 77.203 86.5815 76.8639 87.6584C74.0984 96.1429 61.3411 115.22 52.9795 115.736H52.9732Z" fill="#F24A00"/>
<path d="M147.214 141.94C136.718 141.94 128.779 138.986 123.4 133.077C118.021 127.038 115.331 118.438 115.331 107.278V99.4006H135.799V108.854C135.799 117.782 139.538 122.246 147.017 122.246C150.691 122.246 153.446 121.195 155.283 119.095C157.251 116.863 158.235 113.318 158.235 108.46C158.235 102.683 156.923 97.6281 154.299 93.2954C151.675 88.8315 146.82 83.5141 139.735 77.3432C130.813 69.4656 124.581 62.3758 121.038 56.0737C117.495 49.6404 115.724 42.4191 115.724 34.4103C115.724 23.5128 118.48 15.1101 123.99 9.20184C129.501 3.16232 137.505 0.142578 148.001 0.142578C158.366 0.142578 166.174 3.16232 171.422 9.20184C176.801 15.1101 179.491 23.6441 179.491 34.8041V40.5154H159.023V33.4256C159.023 28.699 158.104 25.2853 156.267 23.1846C154.43 20.9526 151.741 19.8366 148.198 19.8366C140.982 19.8366 137.373 24.235 137.373 33.0317C137.373 38.0209 138.686 42.6818 141.31 47.0144C144.065 51.3471 148.985 56.5988 156.07 62.7697C165.124 70.6473 171.356 77.8029 174.768 84.2362C178.179 90.6694 179.885 98.2189 179.885 106.884C179.885 118.176 177.064 126.841 171.422 132.88C165.911 138.92 157.842 141.94 147.214 141.94ZM198.609 2.11199H227.934L250.371 139.97H228.721L224.785 112.596V112.989H200.184L196.247 139.97H176.173L198.609 2.11199ZM222.227 94.2801L212.583 26.1387H212.189L202.742 94.2801H222.227ZM251.033 2.11199H308.306V21.806H272.683V60.2094H300.63V79.9035H272.683V139.97H251.033V2.11199ZM308.848 2.11199H367.891V21.806H330.497V58.24H360.215V77.9341H330.497V120.276H367.891V139.97H308.848V2.11199Z" fill="#F24A00"/>
<path d="M406.116 48.2589C407.388 49.2117 408.869 49.3359 410.206 48.6046C411.497 47.4561 412.528 45.746 413.154 43.7033C413.356 42.0849 413.356 40.4207 413.154 38.8019V38.0647L412.925 38.5084C411.556 39.6961 410.245 41.021 408.999 42.4765C407.799 43.9449 406.703 45.5831 405.725 47.3778C405.464 47.6388 405.229 47.9327 405.008 48.2589C405.353 47.9588 405.777 47.9588 406.123 48.2589H406.116Z" fill="#FF8C00"/>
<path d="M428.573 37.9148C429.733 37.21 430.764 36.1003 431.586 34.6777C432.336 33.3073 432.675 31.5319 432.538 29.7763C432.388 28.8299 432.036 27.9816 431.521 27.3745L431.097 27.7661L426.544 35.265C425.957 36.3091 425.455 37.373 425.038 38.4499H425.298C426.394 38.8937 427.568 38.6979 428.573 37.9081V37.9148Z" fill="#FF8C00"/>
<path d="M473.438 0.00244141H392.674C387.274 0.00244141 382.891 4.38843 382.891 9.79209V132.15C382.891 137.554 387.274 141.94 392.674 141.94H473.438C478.839 141.94 483.222 137.554 483.222 132.15V9.79209C483.222 4.38843 478.839 0.00244141 473.438 0.00244141ZM438.297 35.1736C438.832 29.7174 440.612 24.7117 443.339 21.0047C444.812 18.9098 446.43 17.0367 448.152 15.418C448.935 14.6871 449.861 14.3933 450.774 14.5827C452.098 15.1894 453.181 16.6448 453.722 18.5507C454.485 20.9525 454.485 23.7459 453.722 26.1473C452.965 28.5883 451.674 30.5594 450.056 31.7341C448.478 32.8173 446.724 33.1764 445.015 32.7651C444.382 32.6152 443.939 31.7538 443.997 30.8074C443.997 30.7813 443.997 30.7552 444.004 30.7291C444.095 29.7894 444.682 29.1432 445.308 29.2867C446.528 29.4366 447.741 29.0451 448.811 28.1576C449.802 27.2701 450.546 25.8799 450.904 24.2351C451.1 23.452 451.152 22.61 451.067 21.7814C450.995 21.0438 450.722 20.3846 450.317 19.9669C449.763 17.8589 446.554 24.4767 445.928 25.312C443.789 28.1118 442.347 31.9168 441.839 36.1003C441.043 43.0574 440.782 50.132 441.056 57.1809C441.056 57.2003 441.056 57.2133 441.056 57.2331C441.075 58.0747 440.632 58.7731 440.071 58.7992C439.543 58.8581 439.073 58.3033 438.988 57.5266C438.121 50.1518 437.886 42.6334 438.303 35.1736H438.297ZM417.674 50.7588C418.45 43.6578 420.472 36.9878 423.531 31.4406C424.483 29.7241 425.461 28.1054 426.479 26.5392C427.196 25.4948 427.92 24.5159 428.637 23.5956C429.081 22.9494 429.551 22.3426 430.046 21.7814C430.62 21.1222 431.397 21.0047 432.042 21.4876C434.019 22.8972 435.394 25.6905 435.708 28.9407C435.884 32.0473 435.186 35.1278 433.777 37.4252C432.342 39.6051 430.529 41.1519 428.54 41.8891C427.125 42.529 425.611 42.4049 424.248 41.5435C424.092 41.439 423.955 41.2694 423.857 41.0539C422.683 44.4021 421.835 47.9849 421.339 51.6919C420.204 61.3968 419.755 71.2584 419.996 81.1067C419.996 82.0009 419.513 82.7254 418.913 82.7254C418.346 82.7254 417.882 82.0531 417.863 81.2047C416.982 71.1082 416.917 60.8811 417.667 50.7588H417.674ZM400.123 80.9109C399.829 87.6267 399.666 94.2967 399.47 101.058C399.47 101.926 399.001 102.624 398.42 102.624C397.859 102.572 397.423 101.893 397.403 101.058C397.272 94.2445 397.077 87.5287 397.077 80.761C397.077 76.2512 397.077 71.6891 397.272 66.9836C397.37 61.9842 397.957 57.0242 399.007 52.2728C399.836 48.9771 401.081 45.9488 402.673 43.3513C403.664 41.7653 404.76 40.336 405.947 39.0827C407.636 37.2358 409.417 35.5913 411.282 34.1814C411.947 33.4311 412.671 32.8043 413.441 32.3214C414.224 31.8776 415.104 32.3344 415.535 33.3983C416.317 35.2975 416.728 37.4904 416.715 39.7226C416.669 41.948 416.35 44.1474 415.763 46.1968C414.726 48.7941 413.18 50.8633 411.341 52.1293C409.352 53.1473 407.167 52.8799 405.314 51.3917C404.747 50.9938 404.48 50.0146 404.695 49.1338C403.866 50.7588 403.188 52.5405 402.666 54.4267C401.675 58.6754 401.088 63.1196 400.931 67.6164C400.54 72.0807 400.116 76.4924 400.116 80.9045L400.123 80.9109ZM434.077 109.934C433.712 111.305 433.294 112.649 432.831 113.954C432.636 114.489 432.401 114.998 432.146 115.475C431.905 115.945 431.631 116.376 431.331 116.748C430.548 117.727 429.727 118.314 428.879 119.202C428.514 119.782 427.92 119.861 427.49 119.384C427.027 118.869 426.929 117.883 427.274 117.191C427.607 115.821 427.992 114.483 428.422 113.171C428.624 112.656 428.853 112.16 429.107 111.703L429.962 110.43C430.712 109.497 431.468 108.766 432.218 107.833C432.27 107.702 432.329 107.578 432.401 107.467C432.857 106.769 433.601 106.762 434.071 107.441C434.54 108.12 434.54 109.242 434.09 109.934H434.077ZM424.809 93.0173C422.357 96.5483 419.8 99.9812 417.25 103.408C412.926 109.144 408.51 114.783 403.893 119.685C403.436 120.181 402.803 120.05 402.451 119.391V119.384C402.053 118.79 402.06 117.825 402.451 117.237C404.61 114.542 406.71 111.696 408.771 108.753C412.86 102.918 416.663 96.5938 420.72 90.6614C424.776 84.7289 428.937 78.6985 433.255 72.9618C435.088 70.6055 436.953 68.354 438.884 66.0957C443.175 60.9986 447.656 56.0972 451.98 50.8502C452.437 50.3736 453.05 50.4389 453.455 51.0001C453.93 51.6657 453.957 52.7818 453.52 53.4933C449.463 59.1322 445.074 64.4251 441.049 69.966C439.282 72.172 437.547 74.6716 435.845 77.0734C432.114 82.2227 428.514 87.7114 424.809 93.0043V93.0173ZM446.645 87.6267C446.189 88.8536 445.895 90.0804 445.432 91.3531C445.243 91.8427 445.035 92.3193 444.812 92.7761C444.558 93.2262 444.284 93.6505 443.997 94.0487C443.247 95.0276 442.491 95.6149 441.675 96.5024C441.336 96.992 440.821 97.0901 440.417 96.7377C439.914 96.3003 439.745 95.3409 440.038 94.5902C440.325 93.2262 440.664 91.8819 441.056 90.57C441.245 90.0543 441.467 89.5651 441.708 89.1016C441.969 88.6381 442.249 88.214 442.562 87.8289C443.312 86.9086 444.102 86.0539 444.917 85.2771C444.969 85.166 445.035 85.0616 445.1 84.9702C445.589 84.3307 446.332 84.4027 446.763 85.1399C447.193 85.8775 447.141 86.9869 446.652 87.6331L446.645 87.6267ZM452.372 74.0451C451.987 73.425 451.987 72.4592 452.372 71.8391C452.665 70.7099 452.796 69.6789 453.155 68.6019C453.311 68.1843 453.5 67.7861 453.709 67.4273C453.924 67.0749 454.165 66.768 454.426 66.494C455.059 65.8153 455.731 65.2082 456.422 64.6795C456.481 64.562 456.546 64.4576 456.624 64.3599C457.126 63.7397 457.87 63.8442 458.281 64.5948C458.698 65.3454 458.627 66.4615 458.124 67.0813C457.798 68.1127 457.603 69.0915 457.205 70.1226C457.055 70.5403 456.879 70.9318 456.683 71.2976C456.487 71.6694 456.252 72.0024 455.998 72.2765C455.307 72.9682 454.57 73.5622 453.807 74.0384C453.807 74.0384 453.807 74.0384 453.807 74.0451C453.409 74.6391 452.763 74.6324 452.372 74.0384V74.0451ZM475.552 58.995C473.393 68.0668 471.097 77.0864 468.449 85.9103C466.779 91.2032 465.24 96.4047 463.505 101.548C460.916 109.294 458.137 116.845 455.646 124.592C455.418 125.388 454.805 125.761 454.27 125.421C454.244 125.408 454.224 125.395 454.198 125.376C453.709 125.023 453.507 124.142 453.742 123.411C455.933 114.34 458.196 105.32 460.844 96.4961C462.547 91.2487 464.118 85.8059 465.821 80.9045C468.377 73.1576 471.025 65.5606 473.38 57.6638C473.386 57.6377 473.393 57.6116 473.399 57.5855C473.66 56.7237 474.338 56.3389 474.919 56.7304C474.919 56.7304 474.925 56.7304 474.932 56.7368C475.513 57.1026 475.786 58.1139 475.545 58.982L475.552 58.995Z" fill="#FF8C00"/>
<path d="M530.105 141.94C519.609 141.94 511.671 138.985 506.291 133.077C500.912 127.038 498.222 118.438 498.222 107.278V99.4005H518.69V108.854C518.69 117.782 522.429 122.246 529.908 122.246C533.582 122.246 536.337 121.195 538.174 119.095C540.142 116.862 541.127 113.318 541.127 108.46C541.127 102.683 539.815 97.628 537.19 93.2953C534.566 88.8315 529.711 83.5141 522.626 77.3432C513.704 69.4656 507.472 62.3757 503.929 56.0736C500.387 49.6403 498.615 42.419 498.615 34.4102C498.615 23.5127 501.371 15.11 506.881 9.20184C512.392 3.16244 520.396 0.142578 530.892 0.142578C541.258 0.142578 549.065 3.16244 554.313 9.20184C559.692 15.11 562.382 23.6442 562.382 34.8041V40.5153H541.914V33.4255C541.914 28.6989 540.995 25.2852 539.158 23.1846C537.321 20.9525 534.632 19.8366 531.089 19.8366C523.873 19.8366 520.265 24.2351 520.265 33.0316C520.265 38.0209 521.577 42.6817 524.201 47.0144C526.956 51.3471 531.876 56.5987 538.962 62.7696C548.015 70.6472 554.247 77.8028 557.659 84.2361C561.07 90.6694 562.776 98.2189 562.776 106.884C562.776 118.176 559.955 126.841 554.313 132.88C548.802 138.92 540.733 141.94 530.105 141.94ZM582.274 21.806H559.641V2.11199H626.556V21.806H603.923V139.97H582.274V21.806ZM627.197 2.11199H659.278C670.431 2.11199 678.565 4.73795 683.682 9.98959C688.799 15.11 691.357 23.0534 691.357 33.8194V42.2878C691.357 56.5987 686.634 65.658 677.188 69.4656V69.8594C682.436 71.435 686.11 74.6518 688.209 79.5095C690.44 84.3673 691.554 90.8663 691.554 99.0066V123.23C691.554 127.169 691.687 130.386 691.948 132.88C692.211 135.244 692.868 137.607 693.916 139.97H671.874C671.086 137.738 670.562 135.638 670.299 133.668C670.037 131.699 669.905 128.154 669.905 123.033V97.825C669.905 91.5229 668.856 87.1244 666.757 84.63C664.788 82.1355 661.312 80.8881 656.326 80.8881H648.847V139.97H627.197V2.11199ZM656.719 61.1941C661.049 61.1941 664.264 60.0782 666.363 57.8461C668.594 55.614 669.709 51.8721 669.709 46.6205V35.9857C669.709 30.9965 668.79 27.3861 666.953 25.154C665.248 22.9219 662.492 21.806 658.687 21.806H648.847V61.1941H656.719ZM696.735 2.11199H755.778V21.806H718.384V58.24H748.102V77.934H718.384V120.276H755.778V139.97H696.735V2.11199ZM758.391 2.11199H817.435V21.806H780.04V58.24H809.759V77.934H780.04V120.276H817.435V139.97H758.391V2.11199ZM836.976 21.806H814.343V2.11199H881.259V21.806H858.626V139.97H836.976V21.806ZM910.042 141.94C899.547 141.94 891.608 138.985 886.228 133.077C880.85 127.038 878.158 118.438 878.158 107.278V99.4005H898.627V108.854C898.627 117.782 902.366 122.246 909.845 122.246C913.521 122.246 916.276 121.195 918.111 119.095C920.079 116.862 921.063 113.318 921.063 108.46C921.063 102.683 919.752 97.628 917.127 93.2953C914.505 88.8315 909.648 83.5141 902.563 77.3432C893.643 69.4656 887.408 62.3757 883.866 56.0736C880.323 49.6403 878.552 42.419 878.552 34.4102C878.552 23.5127 881.307 15.11 886.818 9.20184C892.329 3.16244 900.334 0.142578 910.829 0.142578C921.196 0.142578 929.002 3.16244 934.249 9.20184C939.63 15.11 942.319 23.6442 942.319 34.8041V40.5153H921.85V33.4255C921.85 28.6989 920.933 25.2852 919.095 23.1846C917.26 20.9525 914.568 19.8366 911.026 19.8366C903.81 19.8366 900.201 24.2351 900.201 33.0316C900.201 38.0209 901.515 42.6817 904.137 47.0144C906.893 51.3471 911.813 56.5987 918.898 62.7696C927.952 70.6472 934.186 77.8028 937.595 84.2361C941.008 90.6694 942.712 98.2189 942.712 106.884C942.712 118.176 939.893 126.841 934.249 132.88C928.739 138.92 920.67 141.94 910.042 141.94ZM993.308 2.11199H1012.01L957.685 139.97H938.988L993.308 2.11199ZM1011.94 2.11199H1044.02C1055.17 2.11199 1063.31 4.73795 1068.43 9.98959C1073.54 15.11 1076.1 23.0534 1076.1 33.8194V42.2878C1076.1 56.5987 1071.38 65.658 1061.93 69.4656V69.8594C1067.18 71.435 1070.85 74.6518 1072.95 79.5095C1075.18 84.3673 1076.3 90.8663 1076.3 99.0066V123.23C1076.3 127.169 1076.43 130.386 1076.69 132.88C1076.95 135.244 1077.61 137.607 1078.66 139.97H1056.62C1055.83 137.738 1055.3 135.638 1055.04 133.668C1054.78 131.699 1054.65 128.154 1054.65 123.033V97.825C1054.65 91.5229 1053.6 87.1244 1051.5 84.63C1049.53 82.1355 1046.05 80.8881 1041.07 80.8881H1033.59V139.97H1011.94V2.11199ZM1041.46 61.1941C1045.79 61.1941 1049.01 60.0782 1051.11 57.8461C1053.34 55.614 1054.45 51.8721 1054.45 46.6205V35.9857C1054.45 30.9965 1053.53 27.3861 1051.7 25.154C1049.99 22.9219 1047.23 21.806 1043.43 21.806H1033.59V61.1941H1041.46ZM1112.77 141.94C1102.14 141.94 1094.01 138.92 1088.37 132.88C1082.72 126.841 1079.9 118.307 1079.9 107.278V34.8041C1079.9 23.7754 1082.72 15.2412 1088.37 9.20184C1094.01 3.16244 1102.14 0.142578 1112.77 0.142578C1123.4 0.142578 1131.53 3.16244 1137.18 9.20184C1142.82 15.2412 1145.64 23.7754 1145.64 34.8041V107.278C1145.64 118.307 1142.82 126.841 1137.18 132.88C1131.53 138.92 1123.4 141.94 1112.77 141.94ZM1112.77 122.246C1120.25 122.246 1123.99 117.716 1123.99 108.657V33.4255C1123.99 24.3662 1120.25 19.8366 1112.77 19.8366C1105.29 19.8366 1101.55 24.3662 1101.55 33.4255V108.657C1101.55 117.716 1105.29 122.246 1112.77 122.246ZM1166.78 2.11199H1196.11L1218.54 139.97H1196.9L1192.96 112.595V112.989H1168.36L1164.42 139.97H1144.35L1166.78 2.11199ZM1190.4 94.28L1180.76 26.1387H1180.36L1170.92 94.28H1190.4ZM1219.21 2.11199H1252.27C1263.03 2.11199 1271.1 5.00034 1276.48 10.7774C1281.86 16.5544 1284.55 25.0228 1284.55 36.1827V105.9C1284.55 117.059 1281.86 125.528 1276.48 131.305C1271.1 137.082 1263.03 139.97 1252.27 139.97H1219.21V2.11199ZM1251.88 120.276C1255.42 120.276 1258.11 119.226 1259.95 117.125C1261.92 115.025 1262.9 111.611 1262.9 106.884V35.198C1262.9 30.4714 1261.92 27.0577 1259.95 24.9571C1258.11 22.8565 1255.42 21.806 1251.88 21.806H1240.86V120.276H1251.88ZM1317.46 141.94C1306.97 141.94 1299.03 138.985 1293.65 133.077C1288.27 127.038 1285.58 118.438 1285.58 107.278V99.4005H1306.05V108.854C1306.05 117.782 1309.79 122.246 1317.27 122.246C1320.94 122.246 1323.7 121.195 1325.53 119.095C1327.5 116.862 1328.49 113.318 1328.49 108.46C1328.49 102.683 1327.18 97.628 1324.55 93.2953C1321.93 88.8315 1317.07 83.5141 1309.99 77.3432C1301.06 69.4656 1294.83 62.3757 1291.29 56.0736C1287.75 49.6403 1285.98 42.419 1285.98 34.4102C1285.98 23.5127 1288.73 15.11 1294.24 9.20184C1299.75 3.16244 1307.75 0.142578 1318.25 0.142578C1328.62 0.142578 1336.43 3.16244 1341.67 9.20184C1347.05 15.11 1349.74 23.6442 1349.74 34.8041V40.5153H1329.27V33.4255C1329.27 28.6989 1328.36 25.2852 1326.52 23.1846C1324.68 20.9525 1321.99 19.8366 1318.45 19.8366C1311.23 19.8366 1307.62 24.2351 1307.62 33.0316C1307.62 38.0209 1308.94 42.6817 1311.56 47.0144C1314.32 51.3471 1319.24 56.5987 1326.32 62.7696C1335.37 70.6472 1341.61 77.8028 1345.02 84.2361C1348.43 90.6694 1350.14 98.2189 1350.14 106.884C1350.14 118.176 1347.31 126.841 1341.67 132.88C1336.16 138.92 1328.09 141.94 1317.46 141.94Z" fill="#FF8C00"/>
<path d="M1446.75 52.2386C1445.89 51.8169 1444.95 51.8169 1444.08 52.2386C1442.98 52.7808 1441.93 53.4869 1440.94 54.3403C1439.04 56.0202 1437.06 57.5128 1435.02 58.8179C1433.52 59.7382 1431.94 60.3473 1430.32 60.6083C1428.15 60.9262 1425.97 61.0501 1423.8 60.9664C1421.57 60.8493 1419.35 60.431 1417.18 59.7115C1413.11 58.0081 1408.81 55.1903 1404.48 53.5337C1402.8 52.8611 1401.06 52.513 1399.31 52.4997C1398.42 52.5599 1397.54 52.7674 1396.68 53.1288C1395.24 53.7278 1393.83 54.4273 1392.44 55.2304C1389.27 56.8602 1386.47 59.6746 1384.32 63.3793C1383.05 65.424 1382.79 68.3924 1383.7 70.8153C1384.08 71.846 1384.83 72.5053 1385.64 72.5187C1386.74 72.4518 1387.82 72.01 1388.78 71.2202C1391.87 68.4259 1395.24 66.3108 1398.78 64.9522C1401.53 63.9817 1404.43 65.3972 1406.17 68.5832C1406.44 68.9546 1406.52 69.5269 1406.36 70.0188C1405.36 73.2884 1404.29 76.1999 1403.22 78.9708C1400.66 85.597 1398.05 91.1958 1394.92 99.0267C1393.48 102.253 1392.22 105.619 1391.12 109.106C1390.49 111.071 1390.16 113.209 1390.18 115.371C1390.18 115.401 1390.18 115.428 1390.18 115.462C1390.18 116.72 1390.9 117.747 1391.78 117.747C1393.15 117.727 1394.5 117.152 1395.67 116.087C1398.56 113.263 1401.09 109.752 1403.16 105.7C1405.43 101.781 1407.31 97.4404 1408.77 92.8021C1408.98 92.0056 1409.58 91.5873 1410.15 91.8617C1411.33 91.6409 1412.53 91.6409 1413.72 91.8617C1415.17 92.1161 1416.58 92.7051 1417.89 93.612C1419.74 95.0209 1421.31 97.0623 1422.47 99.5621C1423.2 101.463 1423.42 103.675 1423.09 105.79C1422.71 108.434 1421.02 112.015 1420.68 115.057C1420.55 116.134 1420.87 117.028 1421.9 117.61L1423.56 118.189C1424.84 118.34 1426.12 117.968 1427.26 117.111C1428.49 116.238 1429.55 114.986 1430.4 113.437C1431.97 110.418 1432.86 106.774 1432.93 103.009C1433.09 99.1472 1432.5 95.2886 1431.24 91.8617C1430.61 90.2186 1429.73 88.7929 1428.67 87.6986C1427.49 86.5106 1426.24 85.5167 1424.9 84.7403C1423.59 83.9405 1421.74 83.666 1420.27 82.7692C1419.43 82.2939 1418.68 81.5242 1418.1 80.5337C1417.55 79.6067 1417.33 78.3651 1417.51 77.1704C1418.02 75.3833 1418.78 73.7502 1419.73 72.3815C1420.06 71.8059 1420.63 71.6553 1421.08 72.0201H1421.46C1425.16 72.9102 1428.92 73.1846 1432.65 72.8232C1436.3 72.4919 1439.84 70.9592 1443 68.3455C1445.72 65.9193 1447.75 62.1913 1448.74 57.8274C1449.25 55.4915 1448.36 52.9983 1446.73 52.2252L1446.75 52.2386Z" fill="#65A98F"/>
<path d="M1418.06 43.5545C1418.64 43.9059 1419.26 44.1468 1419.88 44.2707C1420.55 44.361 1421.22 44.361 1421.89 44.2707C1423.17 44.1134 1424.43 43.6917 1425.62 43.0191C1426.76 42.5104 1427.8 41.6001 1428.63 40.3753C1429.93 37.939 1430.48 34.8468 1430.14 31.8252C1429.76 28.5422 1428.79 25.4554 1427.31 22.8708L1426.31 21.0825C1426.31 21.0825 1426.3 21.0824 1426.29 21.0891C1425.84 21.4415 1425.26 21.1936 1425.02 20.541C1424.46 19.366 1423.44 18.844 1422.49 19.2422C1420.6 19.7121 1418.81 20.7692 1417.25 22.329C1416.51 23.0014 1415.83 23.7845 1415.21 24.6589C1414.67 25.4684 1414.22 26.4081 1413.9 27.4329C1413.07 30.4414 1413.08 33.7896 1413.93 36.7911C1414.57 39.7863 1416.07 42.2494 1418.06 43.5545Z" fill="#65A98F"/>
<path d="M1455.68 0.00219727H1374.92C1369.52 0.00219727 1365.14 4.38785 1365.14 9.79185V132.151C1365.14 137.552 1369.52 141.94 1374.92 141.94H1455.68C1461.08 141.94 1465.47 137.552 1465.47 132.151V9.79185C1465.47 4.38785 1461.08 0.00219727 1455.68 0.00219727ZM1411.17 25.3771C1411.61 24.2155 1412.17 23.158 1412.83 22.2443C1413.76 20.9586 1414.82 19.8753 1415.97 19.0203C1417.89 17.4016 1420.03 16.3641 1422.24 15.9726C1423.34 15.8484 1424.44 16.24 1425.37 17.095C1425.75 16.762 1426.22 16.762 1426.59 17.095C1426.93 17.4213 1427.25 17.7934 1427.53 18.2174C1428.04 18.9811 1428.44 19.8753 1428.91 20.6323C1430.79 23.5823 1432.09 27.1979 1432.67 31.1073C1433.33 35.2182 1432.75 39.5386 1431.07 43.019C1430.01 44.9768 1428.62 46.5162 1427.03 47.4967C1425.54 48.5007 1423.94 49.1466 1422.3 49.421C1421.37 49.5582 1420.43 49.5582 1419.5 49.421C1418.54 49.257 1417.59 48.9123 1416.68 48.3903C1413.77 46.4894 1411.57 42.9086 1410.63 38.5414C1409.56 34.2277 1409.75 29.4886 1411.16 25.3771H1411.17ZM1451.61 58.7344C1450.29 64.1257 1447.69 68.6871 1444.27 71.6287C1441.45 73.8943 1438.37 75.4103 1435.18 76.1063C1430.48 76.8694 1425.73 76.5849 1421.1 75.2597C1420.69 75.939 1420.31 76.6552 1419.97 77.4048C1419.72 77.8097 1419.72 78.4322 1419.97 78.8405C1420.21 79.3123 1420.52 79.6972 1420.88 79.9649C1422.48 80.8116 1424.27 80.9488 1425.62 81.6683C1427.49 82.6154 1429.26 83.9573 1430.85 85.654C1431.97 86.8822 1432.92 88.4016 1433.64 90.1317C1435.32 94.1978 1436.18 98.8461 1436.12 103.565C1436.1 108.401 1435.01 113.106 1432.99 116.994C1431.82 119.156 1430.33 120.91 1428.63 122.145C1426.86 123.443 1424.87 123.959 1422.89 123.621L1420.32 122.59C1418.6 121.74 1417.38 119.568 1417.18 116.988C1417.14 115.01 1417.45 113.052 1418.09 111.305C1418.86 109.371 1419.52 107.37 1420.1 105.305C1420.42 103.668 1420.18 101.898 1419.44 100.563C1418.57 98.9365 1417.51 97.541 1416.3 96.4433C1415.31 95.7271 1414.25 95.2151 1413.16 94.924C1412.22 94.6429 1411.25 94.5391 1410.28 94.6094C1409.01 99.3682 1407.32 103.876 1405.27 108.042C1403.15 112.681 1400.49 116.774 1397.4 120.127C1395.36 122.222 1392.84 123.135 1390.35 122.68C1388.23 121.89 1386.74 119.183 1386.71 116.054C1386.63 112.969 1387.07 109.893 1388 107.102C1389.19 103.518 1390.57 100.058 1392.1 96.7579C1395.56 89.2315 1398.47 83.8134 1401.32 77.5052C1402.36 75.1727 1403.42 72.6661 1404.46 69.8951C1403.13 67.9943 1401.2 67.2313 1399.38 67.8772C1396.02 69.3262 1392.85 71.5182 1389.97 74.3695C1388.45 75.7416 1386.65 76.354 1384.87 76.1197C1383.54 75.7282 1382.4 74.5335 1381.73 72.8502C1380.02 69.189 1380.17 64.3667 1382.11 60.9398C1384.5 56.4755 1387.68 53.0051 1391.32 50.8633C1392.7 50.0602 1394.27 49.1131 1395.84 48.4471C1396.95 47.9251 1398.11 47.6139 1399.29 47.5068C1401.4 47.4633 1403.51 47.8213 1405.55 48.5844C1409.69 50.1974 1413.99 53.1992 1418.1 54.6751C1420.01 55.3477 1421.96 55.7259 1423.93 55.7962C1425.94 55.9066 1427.94 55.8229 1429.95 55.5284C1431.22 55.3142 1432.46 54.8491 1433.64 54.1396C1435.56 52.9784 1437.42 51.6665 1439.23 50.1974C1440.68 48.9257 1442.27 48.0121 1443.93 47.5068C1445.24 47.1822 1446.59 47.3963 1447.82 48.1359C1447.84 48.1493 1447.86 48.156 1447.89 48.166C1450.96 49.6218 1452.63 54.3538 1451.61 58.7478L1451.61 58.7344Z" fill="#65A98F"/>
<path d="M1503.1 21.8063H1480.47V2.11223H1547.38V21.8063H1524.75V139.97H1503.1V21.8063ZM1578.55 141.94C1567.92 141.94 1559.78 138.919 1554.14 132.881C1548.5 126.842 1545.68 118.307 1545.68 107.278V34.8043C1545.68 23.7757 1548.5 15.2415 1554.14 9.20207C1559.78 3.16267 1567.92 0.142822 1578.55 0.142822C1589.17 0.142822 1597.31 3.16267 1602.95 9.20207C1608.59 15.2415 1611.41 23.7757 1611.41 34.8043V107.278C1611.41 118.307 1608.59 126.842 1602.95 132.881C1597.31 138.919 1589.17 141.94 1578.55 141.94ZM1578.55 122.246C1586.03 122.246 1589.77 117.716 1589.77 108.657V33.4257C1589.77 24.3665 1586.03 19.8369 1578.55 19.8369C1571.07 19.8369 1567.33 24.3665 1567.33 33.4257V108.657C1567.33 117.716 1571.07 122.246 1578.55 122.246ZM1616.21 2.11223H1647.11L1660.89 100.779H1661.28L1675.06 2.11223H1705.96V139.97H1685.49V35.5921H1685.1L1669.35 139.97H1651.25L1635.5 35.5921H1635.11V139.97H1616.21V2.11223ZM1712.28 2.11223H1744.16C1754.92 2.11223 1762.99 5.00059 1768.37 10.7776C1773.75 16.5546 1776.44 25.0231 1776.44 36.1829V49.7718C1776.44 60.9307 1773.75 69.3991 1768.37 75.1771C1762.99 80.955 1754.92 83.8424 1744.16 83.8424H1733.93V139.97H1712.28V2.11223ZM1744.16 64.1484C1747.7 64.1484 1750.33 63.1637 1752.03 61.1943C1753.87 59.2249 1754.79 55.8769 1754.79 51.1504V34.8043C1754.79 30.0778 1753.87 26.7298 1752.03 24.7604C1750.33 22.791 1747.7 21.8063 1744.16 21.8063H1733.93V64.1484H1744.16ZM1778.35 2.11223H1800V60.2096L1827.56 2.11223H1849.21L1823.42 52.7259L1849.6 139.97H1826.97L1808.66 78.5251L1800 96.0527V139.97H1778.35V2.11223ZM1850 2.11223H1871.65V139.97H1850V2.11223ZM1878.03 2.11223H1905.19L1926.25 84.6302H1926.64V2.11223H1945.93V139.97H1923.69L1897.71 39.334H1897.31V139.97H1878.03V2.11223ZM1980.32 141.94C1969.83 141.94 1961.89 138.986 1956.51 133.078C1951.13 127.039 1948.44 118.437 1948.44 107.278V99.4007H1968.91V108.854C1968.91 117.783 1972.65 122.246 1980.12 122.246C1983.8 122.246 1986.56 121.194 1988.39 119.095C1990.36 116.862 1991.34 113.317 1991.34 108.46C1991.34 102.682 1990.03 97.6283 1987.41 93.2956C1984.78 88.8326 1979.93 83.5152 1972.84 77.3434C1963.92 69.4658 1957.69 62.376 1954.14 56.0739C1950.6 49.6415 1948.83 42.4183 1948.83 34.4104C1948.83 23.513 1951.59 15.1103 1957.1 9.20207C1962.61 3.16267 1970.61 0.142822 1981.11 0.142822C1991.48 0.142822 1999.28 3.16267 2004.53 9.20207C2009.91 15.1103 2012.6 23.6445 2012.6 34.8043V40.5156H1992.13V33.4257C1992.13 28.6992 1991.21 25.2854 1989.37 23.1848C1987.54 20.9528 1984.85 19.8369 1981.3 19.8369C1974.09 19.8369 1970.48 24.2353 1970.48 33.0319C1970.48 38.0211 1971.79 42.6819 1974.42 47.0146C1977.17 51.3473 1982.09 56.598 1989.18 62.7698C1998.23 70.6474 2004.46 77.804 2007.87 84.2363C2011.29 90.6687 2012.99 98.2191 2012.99 106.884C2012.99 118.177 2010.17 126.842 2004.53 132.881C1999.02 138.919 1990.95 141.94 1980.32 141.94Z" fill="#65A98F"/>
</svg>
