<svg width="978" height="406" viewBox="0 0 978 406" fill="none" xmlns="http://www.w3.org/2000/svg">
<mask id="mask0_184_1276" style="mask-type:luminance" maskUnits="userSpaceOnUse" x="105" y="0" width="858" height="406">
<path d="M962.861 0H105.975V406H962.861V0Z" fill="white"/>
</mask>
<g mask="url(#mask0_184_1276)">
<path d="M142.188 144.372C131.692 144.372 123.754 141.418 118.374 135.51C112.995 129.471 110.305 120.871 110.305 109.711V101.833H130.773V111.286C130.773 120.214 134.513 124.678 141.992 124.678C145.665 124.678 148.421 123.628 150.258 121.527C152.226 119.295 153.21 115.75 153.21 110.892C153.21 105.115 151.898 100.061 149.274 95.728C146.649 91.2641 141.795 85.9468 134.71 79.7759C125.788 71.8983 119.555 64.8084 116.012 58.5063C112.47 52.073 110.699 44.8517 110.699 36.8429C110.699 25.9454 113.454 17.5427 118.965 11.6345C124.475 5.59494 132.479 2.5752 142.976 2.5752C153.341 2.5752 161.148 5.59494 166.396 11.6345C171.776 17.5427 174.465 26.0768 174.465 37.2368V42.948H153.997V35.8582C153.997 31.1316 153.079 27.7179 151.242 25.6172C149.405 23.3852 146.715 22.2692 143.172 22.2692C135.956 22.2692 132.348 26.6676 132.348 35.4643C132.348 40.4536 133.66 45.1144 136.284 49.4471C139.039 53.7797 143.96 59.0314 151.045 65.2023C160.098 73.0799 166.33 80.2355 169.742 86.6688C173.153 93.1021 174.859 100.652 174.859 109.317C174.859 120.608 172.038 129.274 166.396 135.313C160.885 141.352 152.816 144.372 142.188 144.372ZM193.584 4.54461H222.908L245.345 142.403H223.696L219.759 115.028V115.422H195.158L191.222 142.403H171.147L193.584 4.54461ZM217.201 96.7127L207.557 28.5713H207.164L197.717 96.7127H217.201ZM246.008 4.54461H303.28V24.2386H267.657V62.6421H295.604V82.3361H267.657V142.403H246.008V4.54461ZM303.822 4.54461H362.865V24.2386H325.471V60.6727H355.19V80.3667H325.471V122.709H362.865V142.403H303.822V4.54461Z" fill="#F24A00"/>
<path d="M142.188 274.656C131.692 274.656 123.754 271.702 118.374 265.794C112.995 259.754 110.305 251.154 110.305 239.994V232.117H130.773V241.57C130.773 250.498 134.513 254.962 141.992 254.962C145.665 254.962 148.421 253.911 150.258 251.811C152.226 249.579 153.21 246.034 153.21 241.176C153.21 235.399 151.898 230.344 149.274 226.012C146.649 221.548 141.795 216.23 134.71 210.059C125.788 202.182 119.555 195.092 116.012 188.79C112.47 182.357 110.699 175.135 110.699 167.127C110.699 156.229 113.454 147.826 118.965 141.918C124.475 135.879 132.479 132.859 142.976 132.859C153.341 132.859 161.148 135.879 166.396 141.918C171.776 147.826 174.465 156.361 174.465 167.52V173.232H153.997V166.142C153.997 161.415 153.079 158.002 151.242 155.901C149.405 153.669 146.715 152.553 143.172 152.553C135.956 152.553 132.348 156.951 132.348 165.748C132.348 170.737 133.66 175.398 136.284 179.731C139.039 184.063 143.96 189.315 151.045 195.486C160.098 203.364 166.33 210.519 169.742 216.952C173.153 223.386 174.859 230.935 174.859 239.601C174.859 250.892 172.038 259.557 166.396 265.597C160.885 271.636 152.816 274.656 142.188 274.656ZM194.357 154.522H171.724V134.828H238.64V154.522H216.006V272.687H194.357V154.522ZM239.281 134.828H271.361C282.514 134.828 290.648 137.454 295.766 142.706C300.883 147.826 303.441 155.77 303.441 166.536V175.004C303.441 189.315 298.718 198.374 289.271 202.182V202.576C294.519 204.151 298.193 207.368 300.292 212.226C302.523 217.084 303.637 223.583 303.637 231.723V255.947C303.637 259.885 303.771 263.102 304.031 265.597C304.294 267.96 304.951 270.323 305.999 272.687H283.957C283.17 270.454 282.645 268.354 282.382 266.384C282.12 264.415 281.989 260.87 281.989 255.75V230.541C281.989 224.239 280.939 219.841 278.84 217.346C276.872 214.852 273.395 213.604 268.409 213.604H260.93V272.687H239.281V134.828ZM268.802 193.91C273.132 193.91 276.347 192.794 278.446 190.562C280.677 188.33 281.792 184.588 281.792 179.337V168.702C281.792 163.713 280.874 160.102 279.037 157.87C277.331 155.638 274.576 154.522 270.771 154.522H260.93V193.91H268.802ZM308.818 134.828H367.861V154.522H330.467V190.956H360.186V210.65H330.467V252.992H367.861V272.687H308.818V134.828ZM370.474 134.828H429.518V154.522H392.124V190.956H421.842V210.65H392.124V252.992H429.518V272.687H370.474V134.828ZM449.06 154.522H426.426V134.828H493.342V154.522H470.709V272.687H449.06V154.522ZM522.125 274.656C511.63 274.656 503.691 271.702 498.311 265.794C492.933 259.754 490.242 251.154 490.242 239.994V232.117H510.71V241.57C510.71 250.498 514.449 254.962 521.928 254.962C525.604 254.962 528.359 253.911 530.194 251.811C532.162 249.579 533.146 246.034 533.146 241.176C533.146 235.399 531.835 230.344 529.21 226.012C526.588 221.548 521.731 216.23 514.646 210.059C505.726 202.182 499.492 195.092 495.949 188.79C492.406 182.357 490.635 175.135 490.635 167.127C490.635 156.229 493.391 147.826 498.901 141.918C504.412 135.879 512.418 132.859 522.912 132.859C533.28 132.859 541.085 135.879 546.333 141.918C551.713 147.826 554.402 156.361 554.402 167.52V173.232H533.934V166.142C533.934 161.415 533.016 158.002 531.178 155.901C529.343 153.669 526.652 152.553 523.109 152.553C515.894 152.553 512.284 156.951 512.284 165.748C512.284 170.737 513.599 175.398 516.221 179.731C518.976 184.063 523.896 189.315 530.982 195.486C540.035 203.364 546.269 210.519 549.679 216.952C553.091 223.386 554.796 230.935 554.796 239.601C554.796 250.892 551.977 259.557 546.333 265.597C540.822 271.636 532.753 274.656 522.125 274.656ZM605.391 134.828H624.088L569.768 272.687H551.071L605.391 134.828ZM624.025 134.828H656.105C667.257 134.828 675.392 137.454 680.509 142.706C685.627 147.826 688.185 155.77 688.185 166.536V175.004C688.185 189.315 683.462 198.374 674.015 202.182V202.576C679.262 204.151 682.935 207.368 685.036 212.226C687.265 217.084 688.382 223.583 688.382 231.723V255.947C688.382 259.885 688.512 263.102 688.776 265.597C689.036 267.96 689.693 270.323 690.744 272.687H668.701C667.914 270.454 667.387 268.354 667.126 266.384C666.863 264.415 666.733 260.87 666.733 255.75V230.541C666.733 224.239 665.682 219.841 663.584 217.346C661.616 214.852 658.137 213.604 653.153 213.604H645.674V272.687H624.025V134.828ZM653.546 193.91C657.876 193.91 661.089 192.794 663.19 190.562C665.419 188.33 666.536 184.588 666.536 179.337V168.702C666.536 163.713 665.615 160.102 663.781 157.87C662.073 155.638 659.318 154.522 655.515 154.522H645.674V193.91H653.546ZM724.856 274.656C714.228 274.656 706.092 271.636 700.451 265.597C694.807 259.557 691.988 251.023 691.988 239.994V167.52C691.988 156.492 694.807 147.958 700.451 141.918C706.092 135.879 714.228 132.859 724.856 132.859C735.483 132.859 743.616 135.879 749.26 141.918C754.901 147.958 757.723 156.492 757.723 167.52V239.994C757.723 251.023 754.901 259.557 749.26 265.597C743.616 271.636 735.483 274.656 724.856 274.656ZM724.856 254.962C732.334 254.962 736.074 250.432 736.074 241.373V166.142C736.074 157.083 732.334 152.553 724.856 152.553C717.377 152.553 713.637 157.083 713.637 166.142V241.373C713.637 250.432 717.377 254.962 724.856 254.962ZM778.867 134.828H808.191L830.628 272.687H808.979L805.042 245.312V245.706H780.441L776.505 272.687H756.43L778.867 134.828ZM802.484 226.996L792.84 158.855H792.447L783 226.996H802.484ZM831.291 134.828H864.355C875.113 134.828 883.183 137.717 888.563 143.494C893.944 149.271 896.632 157.739 896.632 168.899V238.616C896.632 249.776 893.944 258.244 888.563 264.021C883.183 269.798 875.113 272.687 864.355 272.687H831.291V134.828ZM863.962 252.992C867.504 252.992 870.193 251.942 872.031 249.841C873.999 247.741 874.983 244.327 874.983 239.601V167.914C874.983 163.188 873.999 159.774 872.031 157.673C870.193 155.573 867.504 154.522 863.962 154.522H852.94V252.992H863.962ZM929.548 274.656C919.051 274.656 911.115 271.702 905.734 265.794C900.354 259.754 897.665 251.154 897.665 239.994V232.117H918.133V241.57C918.133 250.498 921.873 254.962 929.352 254.962C933.024 254.962 935.78 253.911 937.617 251.811C939.586 249.579 940.57 246.034 940.57 241.176C940.57 235.399 939.259 230.344 936.633 226.012C934.008 221.548 929.155 216.23 922.07 210.059C913.146 202.182 906.915 195.092 903.372 188.79C899.83 182.357 898.058 175.135 898.058 167.127C898.058 156.229 900.814 147.826 906.325 141.918C911.835 135.879 919.838 132.859 930.336 132.859C940.7 132.859 948.509 135.879 953.756 141.918C959.137 147.826 961.825 156.361 961.825 167.52V173.232H941.357V166.142C941.357 161.415 940.44 158.002 938.602 155.901C936.764 153.669 934.075 152.553 930.532 152.553C923.317 152.553 919.708 156.951 919.708 165.748C919.708 170.737 921.019 175.398 923.644 179.731C926.399 184.063 931.32 189.315 938.405 195.486C947.458 203.364 953.689 210.519 957.102 216.952C960.514 223.386 962.219 230.935 962.219 239.601C962.219 250.892 959.397 259.557 953.756 265.597C948.245 271.636 940.176 274.656 929.548 274.656Z" fill="#FF8C00"/>
<path d="M130.97 284.806H108.337V265.112H175.253V284.806H152.62V402.97H130.97V284.806ZM206.418 404.939C195.791 404.939 187.656 401.919 182.014 395.88C176.372 389.842 173.551 381.307 173.551 370.278V297.804C173.551 286.775 176.372 278.241 182.014 272.202C187.656 266.162 195.791 263.142 206.418 263.142C217.046 263.142 225.181 266.162 230.823 272.202C236.465 278.241 239.286 286.775 239.286 297.804V370.278C239.286 381.307 236.465 389.842 230.823 395.88C225.181 401.919 217.046 404.939 206.418 404.939ZM206.418 385.245C213.897 385.245 217.637 380.716 217.637 371.656V296.425C217.637 287.366 213.897 282.836 206.418 282.836C198.94 282.836 195.2 287.366 195.2 296.425V371.656C195.2 380.716 198.94 385.245 206.418 385.245ZM244.086 265.112H274.985L288.762 363.779H289.156L302.932 265.112H333.831V402.97H313.363V298.592H312.969L297.225 402.97H279.118L263.373 298.592H262.98V402.97H244.086V265.112ZM340.147 265.112H372.031C382.789 265.112 390.858 268 396.239 273.777C401.619 279.554 404.308 288.023 404.308 299.182V312.771C404.308 323.93 401.619 332.399 396.239 338.177C390.858 343.955 382.789 346.842 372.031 346.842H361.797V402.97H340.147V265.112ZM372.031 327.148C375.573 327.148 378.199 326.163 379.903 324.194C381.741 322.224 382.659 318.876 382.659 314.15V297.804C382.659 293.077 381.741 289.729 379.903 287.76C378.199 285.79 375.573 284.806 372.031 284.806H361.797V327.148H372.031ZM406.224 265.112H427.874V323.209L455.427 265.112H477.076L451.294 315.725L477.47 402.97H454.837L436.533 341.525L427.874 359.052V402.97H406.224V265.112ZM477.876 265.112H499.525V402.97H477.876V265.112ZM505.899 265.112H533.059L554.117 347.63H554.511V265.112H573.798V402.97H551.559L525.58 302.333H525.186V402.97H505.899V265.112ZM608.192 404.939C597.697 404.939 589.758 401.985 584.378 396.077C579 390.039 576.309 381.437 576.309 370.278V362.4H596.777V371.853C596.777 380.782 600.516 385.245 607.995 385.245C611.671 385.245 614.426 384.194 616.261 382.094C618.229 379.861 619.213 376.316 619.213 371.459C619.213 365.682 617.902 360.628 615.277 356.295C612.655 351.832 607.798 346.515 600.713 340.343C591.793 332.465 585.559 325.375 582.016 319.073C578.474 312.641 576.702 305.418 576.702 297.41C576.702 286.512 579.458 278.11 584.968 272.202C590.479 266.162 598.485 263.142 608.979 263.142C619.347 263.142 627.152 266.162 632.4 272.202C637.78 278.11 640.469 286.644 640.469 297.804V303.515H620.001V296.425C620.001 291.699 619.083 288.285 617.245 286.184C615.41 283.952 612.719 282.836 609.176 282.836C601.961 282.836 598.351 287.235 598.351 296.031C598.351 301.021 599.666 305.681 602.288 310.014C605.043 314.347 609.963 319.598 617.048 325.769C626.102 333.647 632.336 340.803 635.746 347.236C639.158 353.668 640.863 361.219 640.863 369.884C640.863 381.176 638.044 389.842 632.4 395.88C626.889 401.919 618.82 404.939 608.192 404.939Z" fill="#65A98F"/>
</g>
<mask id="mask1_184_1276" style="mask-type:luminance" maskUnits="userSpaceOnUse" x="0" y="3" width="91" height="129">
<path d="M90.8359 3.02979H0V131.537H90.8359V3.02979Z" fill="white"/>
</mask>
<g mask="url(#mask1_184_1276)">
<path d="M67.2043 81.1815C68.1433 70.8288 68.4621 60.4055 68.149 49.9941C67.8717 46.5609 68.0546 47.2642 65.9172 44.9242C55.5304 33.6559 33.936 35.8007 26.0232 45.7456C24.2518 48.3158 23.5195 78.1029 26.0232 83.1727C28.8458 88.9458 41.9192 105.26 48.0782 105.237C54.497 104.64 65.0903 88.1893 67.1986 81.1873L67.2043 81.1815ZM50.2216 79.5563C49.2237 81.3824 48.0607 83.0782 46.7438 84.6204C45.8167 85.5481 44.5056 85.802 43.3602 85.2821C41.8426 84.3959 40.4961 83.1846 39.3979 81.7014C32.247 73.0033 33.4043 72.8912 34.3257 72.1229C35.046 71.5911 36.0025 71.7566 36.5518 72.5071C37.0831 73.0567 40.319 78.9479 43.366 78.9479C44.3818 78.9479 44.429 78.1795 45.4918 76.1411C46.5546 74.1026 47.9068 71.5736 49.3596 68.9855C52.7905 62.8755 56.853 56.2692 58.6421 53.1318C59.0791 52.3634 59.463 51.5896 59.463 51.5896C59.6874 50.833 60.3075 50.3249 61.0102 50.3249C61.9431 50.3249 62.6989 51.1875 62.6989 52.2513C60.1479 59.076 57.2899 65.7414 54.1427 72.2353C52.7905 74.9888 51.4382 77.5178 50.2277 79.5563H50.2216Z" fill="#F24A00"/>
<path d="M81.9785 3.02979H8.85744C3.96814 3.02979 0 7.00059 0 11.8932V122.674C0 127.566 3.96814 131.537 8.85744 131.537H81.9785C86.8679 131.537 90.8359 127.566 90.8359 122.674V11.8932C90.8359 7.00059 86.8679 3.02979 81.9785 3.02979ZM78.6303 54.5142C78.5064 56.1155 76.4339 84.8864 75.9437 86.328C73.1329 95.2151 62.8406 108.942 53.1269 114.709C52.7312 114.868 52.3003 114.667 52.0759 114.218C51.804 113.669 51.9342 112.948 52.3651 112.605C61.5295 107.027 71.2729 93.5014 73.7469 85.3117C74.42 77.512 75.7014 54.5085 75.7014 54.1243C76.162 48.2745 77.0479 44.1027 74.3256 39.8128C67.3933 31.9776 59.4215 27.5341 46.8323 27.2978C26.7967 26.7128 19.6163 37.7449 18.884 38.0579C16.1678 42.0346 17.5377 45.8164 16.9886 52.5585C16.4394 59.3005 15.9788 81.8371 18.8545 87.6456C22.1849 94.311 36.7228 110.767 45.0607 113.804C45.6157 114 45.9463 114.732 45.7928 115.441C45.6393 116.15 45.0667 116.57 44.5114 116.375C35.6246 113.255 20.378 96.8812 16.6225 89.436C13.2035 82.7294 13.3511 59.921 13.8707 52.127C14.2959 45.4619 12.7724 40.5869 16.4984 35.2453C17.5672 34.5066 24.6236 22.3402 46.8913 22.807C57.9572 22.1806 68.7395 27.3982 76.7055 37.2307C80.2484 43.0038 79.0554 47.991 78.6303 54.5024V54.5142ZM47.9601 107.813C43.7263 107.151 39.7462 104.852 36.5636 101.225C31.6563 96.5328 27.2395 91.0551 23.4308 84.9276C20.561 79.119 20.378 47.4589 23.4308 42.8205C29.448 36.3088 36.0794 32.9171 47.0152 33.1535C51.8219 33.1535 56.5814 34.2939 61.069 36.5039C65.8342 39.9725 63.4843 36.1139 70.2334 44.3036C73.1977 49.1371 69.897 81.4178 69.59 82.3928C67.0863 90.0744 55.5362 107.346 47.9659 107.813H47.9601Z" fill="#F24A00"/>
</g>
<mask id="mask2_184_1276" style="mask-type:luminance" maskUnits="userSpaceOnUse" x="0" y="137" width="91" height="130">
<path d="M90.8359 137.597H0V266.102H90.8359V137.597Z" fill="white"/>
</mask>
<g mask="url(#mask2_184_1276)">
<path d="M21.0273 181.287C22.1787 182.149 23.5192 182.262 24.7297 181.6C25.8989 180.56 26.8318 179.012 27.3987 177.162C27.5818 175.697 27.5818 174.19 27.3987 172.725V172.057L27.1921 172.459C25.952 173.534 24.7651 174.734 23.6373 176.051C22.5507 177.381 21.5587 178.864 20.673 180.489C20.4368 180.725 20.2242 180.991 20.0234 181.287C20.3364 181.015 20.7202 181.015 21.0332 181.287H21.0273Z" fill="#FF8C00"/>
<path d="M41.3584 171.921C42.4094 171.283 43.3426 170.279 44.0865 168.991C44.7657 167.75 45.0727 166.143 44.9486 164.553C44.8129 163.696 44.4941 162.928 44.0275 162.379L43.6435 162.733L39.522 169.522C38.9906 170.468 38.5358 171.431 38.158 172.406H38.3941C39.3861 172.808 40.4491 172.63 41.3584 171.915V171.921Z" fill="#FF8C00"/>
<path d="M81.9785 137.597H8.85744C3.96814 137.597 0 141.568 0 146.46V257.239C0 262.131 3.96814 266.102 8.85744 266.102H81.9785C86.8679 266.102 90.8359 262.131 90.8359 257.239V146.46C90.8359 141.568 86.8679 137.597 81.9785 137.597ZM50.1626 169.44C50.6468 164.5 52.2588 159.968 54.7271 156.612C56.0615 154.715 57.5261 153.019 59.0848 151.554C59.7936 150.892 60.6321 150.626 61.4587 150.797C62.6574 151.347 63.6378 152.664 64.1277 154.39C64.8187 156.564 64.8187 159.093 64.1277 161.268C63.4428 163.478 62.2738 165.262 60.8092 166.326C59.3803 167.306 57.7919 167.632 56.2447 167.259C55.6718 167.123 55.2703 166.344 55.3236 165.487C55.3236 165.463 55.3236 165.439 55.3294 165.416C55.412 164.565 55.9434 163.98 56.5105 164.11C57.6145 164.246 58.713 163.891 59.6813 163.088C60.5791 162.284 61.2522 161.026 61.5768 159.536C61.7539 158.827 61.8011 158.065 61.7245 157.315C61.6594 156.647 61.4114 156.05 61.0454 155.672C60.5433 153.764 57.6381 159.755 57.0713 160.511C55.1347 163.046 53.8297 166.491 53.3691 170.279C52.6485 176.577 52.4123 182.983 52.6603 189.364C52.6603 189.382 52.6603 189.394 52.6603 189.412C52.6782 190.174 52.2767 190.806 51.7686 190.83C51.2905 190.883 50.8654 190.381 50.7885 189.677C50.003 183 49.7905 176.194 50.1684 169.44H50.1626ZM31.491 183.55C32.1938 177.121 34.0244 171.082 36.7937 166.06C37.656 164.506 38.5417 163.04 39.4628 161.622C40.1122 160.677 40.7678 159.791 41.4172 158.957C41.819 158.372 42.2441 157.823 42.6929 157.315C43.2125 156.718 43.9152 156.612 44.4996 157.049C46.2891 158.325 47.5347 160.854 47.8184 163.797C47.9777 166.609 47.3458 169.398 46.0705 171.478C44.7715 173.452 43.1298 174.852 41.3288 175.52C40.0474 176.099 38.6773 175.987 37.4432 175.207C37.3015 175.112 37.1776 174.959 37.0889 174.763C36.0261 177.795 35.2586 181.039 34.8098 184.395C33.7822 193.181 33.3749 202.11 33.5932 211.026C33.5932 211.836 33.1563 212.492 32.6131 212.492C32.0993 212.492 31.6799 211.883 31.6624 211.115C30.8651 201.974 30.8061 192.714 31.4852 183.55H31.491ZM15.6009 210.849C15.3352 216.929 15.1876 222.968 15.0104 229.089C15.0104 229.875 14.5852 230.507 14.0597 230.507C13.5519 230.46 13.1562 229.846 13.1385 229.089C13.0204 222.921 12.8433 216.84 12.8433 210.713C12.8433 206.63 12.8433 202.5 13.0204 198.239C13.109 193.713 13.6404 189.223 14.5912 184.921C15.3411 181.937 16.4689 179.195 17.9097 176.843C18.8073 175.408 19.7993 174.114 20.874 172.979C22.4034 171.307 24.0154 169.818 25.7043 168.541C26.3066 167.862 26.962 167.295 27.6588 166.857C28.3674 166.456 29.1646 166.869 29.5543 167.832C30.2629 169.552 30.635 171.537 30.6232 173.558C30.5817 175.573 30.2926 177.564 29.761 179.42C28.8221 181.771 27.4226 183.645 25.7574 184.791C23.9564 185.712 21.9782 185.47 20.3012 184.123C19.7875 183.763 19.5454 182.876 19.7402 182.079C18.9903 183.55 18.3762 185.163 17.9038 186.871C17.0063 190.717 16.4748 194.741 16.3331 198.812C15.9788 202.854 15.595 206.848 15.595 210.843L15.6009 210.849ZM46.3421 237.125C46.0114 238.366 45.6335 239.584 45.2142 240.765C45.037 241.25 44.8245 241.71 44.5941 242.142C44.3758 242.567 44.1278 242.957 43.8562 243.294C43.1474 244.18 42.4034 244.712 41.6358 245.516C41.3052 246.042 40.7678 246.113 40.3781 245.681C39.9587 245.214 39.8703 244.322 40.1831 243.696C40.4844 242.455 40.8329 241.244 41.2225 240.056C41.4054 239.589 41.6122 239.14 41.8427 238.727L42.616 237.574C43.2951 236.729 43.98 236.068 44.6592 235.223C44.7064 235.104 44.7597 234.992 44.8245 234.892C45.2378 234.259 45.9109 234.254 46.3363 234.868C46.7614 235.483 46.7614 236.499 46.3539 237.125H46.3421ZM37.9512 221.81C35.7309 225.006 33.4161 228.114 31.1074 231.217C27.1923 236.41 23.1946 241.516 19.014 245.953C18.6006 246.402 18.0278 246.284 17.7089 245.687V245.681C17.3487 245.144 17.3547 244.269 17.7089 243.737C19.6635 241.297 21.5649 238.721 23.4308 236.056C27.1333 230.773 30.576 225.048 34.2488 219.676C37.9216 214.305 41.6888 208.846 45.5981 203.652C47.2574 201.519 48.946 199.48 50.694 197.436C54.5794 192.821 58.6361 188.383 62.5511 183.633C62.9644 183.201 63.5197 183.26 63.8858 183.769C64.3167 184.371 64.3403 185.382 63.9448 186.026C60.2717 191.131 56.298 195.923 52.6545 200.94C51.0543 202.937 49.4835 205.2 47.9423 207.374C44.5647 212.036 41.3052 217.006 37.9512 221.798V221.81ZM57.7211 216.929C57.3075 218.04 57.0419 219.151 56.6226 220.303C56.4515 220.746 56.2625 221.177 56.0615 221.591C55.8314 221.999 55.5834 222.383 55.3236 222.743C54.6445 223.63 53.9596 224.161 53.2214 224.965C52.9143 225.408 52.4477 225.497 52.0817 225.178C51.6269 224.782 51.4734 223.913 51.7392 223.234C51.999 221.999 52.306 220.781 52.6603 219.594C52.8317 219.127 53.0324 218.684 53.2507 218.264C53.4872 217.845 53.7409 217.461 54.0243 217.112C54.7035 216.279 55.4181 215.505 56.156 214.802C56.2032 214.701 56.2626 214.607 56.3216 214.524C56.7643 213.945 57.4374 214.01 57.8273 214.678C58.217 215.345 58.1698 216.35 57.7268 216.935L57.7211 216.929ZM62.9054 204.633C62.5572 204.071 62.5572 203.197 62.9054 202.635C63.1712 201.613 63.2893 200.68 63.6142 199.705C63.7559 199.326 63.927 198.966 64.1159 198.641C64.3109 198.322 64.5292 198.044 64.7654 197.796C65.3383 197.182 65.9466 196.632 66.5724 196.153C66.6257 196.047 66.6848 195.952 66.7556 195.864C67.2101 195.303 67.8835 195.397 68.2553 196.077C68.6332 196.756 68.5684 197.767 68.1136 198.328C67.8184 199.262 67.6413 200.148 67.2809 201.081C67.1453 201.46 66.9857 201.814 66.8086 202.145C66.6315 202.482 66.4189 202.783 66.1885 203.031C65.5626 203.658 64.8956 204.195 64.2046 204.627C64.2046 204.627 64.2046 204.627 64.2046 204.633C63.8443 205.17 63.2596 205.164 62.9054 204.627V204.633ZM83.8918 191.007C81.937 199.22 79.8587 207.386 77.4612 215.375C75.9494 220.167 74.556 224.876 72.9851 229.533C70.641 236.546 68.1254 243.383 65.8697 250.396C65.6632 251.117 65.1081 251.454 64.6237 251.147C64.6001 251.135 64.5825 251.123 64.5589 251.106C64.1159 250.786 63.933 249.989 64.1456 249.327C66.1294 241.114 68.1787 232.948 70.5759 224.959C72.1173 220.208 73.5404 215.28 75.0816 210.843C77.3961 203.829 79.7936 196.951 81.9252 189.802C81.9313 189.778 81.937 189.754 81.9431 189.731C82.1792 188.95 82.7933 188.602 83.3189 188.957C83.3189 188.957 83.3247 188.957 83.3307 188.962C83.8564 189.293 84.1044 190.209 83.8857 190.995L83.8918 191.007Z" fill="#FF8C00"/>
</g>
<mask id="mask3_184_1276" style="mask-type:luminance" maskUnits="userSpaceOnUse" x="0" y="272" width="91" height="129">
<path d="M90.8359 272.162H0V400.667H90.8359V272.162Z" fill="white"/>
</mask>
<g mask="url(#mask3_184_1276)">
<path d="M73.8883 319.455C73.109 319.074 72.2587 319.074 71.4733 319.455C70.4814 319.946 69.5306 320.585 68.6332 321.358C66.9088 322.879 65.1196 324.23 63.2714 325.412C61.9131 326.245 60.4782 326.797 59.0139 327.033C57.0534 327.321 55.0811 327.433 53.109 327.357C51.0894 327.251 49.0877 326.872 47.1214 326.221C43.4307 324.679 39.5451 322.128 35.6243 320.628C34.101 320.019 32.5244 319.704 30.9417 319.692C30.1327 319.746 29.3356 319.934 28.5561 320.261C27.257 320.804 25.9756 321.437 24.7238 322.164C21.854 323.64 19.3148 326.188 17.3721 329.542C16.2148 331.393 15.9845 334.08 16.8053 336.274C17.1477 337.207 17.8268 337.804 18.5649 337.816C19.5629 337.756 20.5372 337.356 21.4052 336.641C24.2041 334.111 27.257 332.196 30.4576 330.966C32.9495 330.087 35.5713 331.369 37.1537 334.253C37.3959 334.589 37.4668 335.107 37.3251 335.553C36.4155 338.513 35.4532 341.149 34.4846 343.658C32.158 349.657 29.8021 354.726 26.9618 361.816C25.6627 364.736 24.5171 367.784 23.5251 370.942C22.9523 372.72 22.6571 374.656 22.6748 376.613C22.6748 376.641 22.6748 376.665 22.6748 376.695C22.6748 377.834 23.3243 378.765 24.1215 378.765C25.3674 378.746 26.5898 378.225 27.6408 377.262C30.2626 374.705 32.5538 371.526 34.4256 367.857C36.4806 364.309 38.1871 360.379 39.5039 356.18C39.6928 355.459 40.2421 355.08 40.7499 355.329C41.8245 355.129 42.9112 355.129 43.9858 355.329C45.2965 355.559 46.5722 356.092 47.7591 356.913C49.4359 358.189 50.859 360.037 51.9042 362.3C52.5655 364.021 52.7666 366.024 52.471 367.939C52.1286 370.333 50.5992 373.574 50.2864 376.329C50.1741 377.304 50.4575 378.113 51.3907 378.64L52.8965 379.165C54.0537 379.301 55.217 378.965 56.2444 378.189C57.3547 377.398 58.323 376.265 59.0848 374.862C60.5137 372.129 61.3166 368.83 61.3817 365.421C61.5234 361.925 60.9921 358.431 59.8463 355.329C59.2737 353.841 58.4826 352.55 57.52 351.56C56.4569 350.484 55.3172 349.584 54.1127 348.881C52.9201 348.157 51.2487 347.909 49.9143 347.097C49.1525 346.666 48.4794 345.969 47.9538 345.073C47.4578 344.233 47.2571 343.109 47.4166 342.028C47.8829 340.41 48.5681 338.931 49.4302 337.692C49.7254 337.171 50.245 337.034 50.6525 337.365H50.995C54.3432 338.171 57.7444 338.419 61.1277 338.092C64.4287 337.792 67.6352 336.404 70.4932 334.038C72.9615 331.841 74.7979 328.466 75.6893 324.515C76.1559 322.4 75.3468 320.143 73.8708 319.443L73.8883 319.455Z" fill="#65A98F"/>
<path d="M47.9189 311.593C48.4445 311.911 48.9995 312.129 49.5663 312.241C50.1686 312.323 50.7769 312.323 51.3852 312.241C52.5424 312.099 53.6821 311.717 54.7628 311.108C55.7962 310.648 56.7351 309.823 57.4851 308.714C58.666 306.509 59.1619 303.709 58.8489 300.973C58.5064 298.001 57.6268 295.206 56.2921 292.867L55.3829 291.247C55.3829 291.247 55.3768 291.247 55.3711 291.253C54.9578 291.572 54.4379 291.348 54.2196 290.757C53.7118 289.693 52.7847 289.221 51.9226 289.581C50.2158 290.007 48.598 290.964 47.1807 292.376C46.5136 292.985 45.8993 293.694 45.3385 294.485C44.8426 295.218 44.4408 296.069 44.1456 296.997C43.3959 299.721 43.4077 302.752 44.1752 305.469C44.7538 308.181 46.1179 310.411 47.9189 311.593Z" fill="#65A98F"/>
<path d="M81.9785 272.162H8.85744C3.96814 272.162 0 276.133 0 281.025V391.805C0 396.695 3.96814 400.667 8.85744 400.667H81.9785C86.8679 400.667 90.8359 396.695 90.8359 391.805V281.025C90.8359 276.133 86.8679 272.162 81.9785 272.162ZM41.677 295.136C42.0728 294.084 42.5805 293.127 43.1828 292.299C44.0273 291.135 44.9841 290.155 46.0232 289.38C47.7652 287.915 49.696 286.976 51.6977 286.621C52.6957 286.509 53.6937 286.863 54.5382 287.637C54.8749 287.336 55.3057 287.336 55.6424 287.637C55.9495 287.933 56.2389 288.27 56.4927 288.654C56.9475 289.345 57.3135 290.155 57.7386 290.84C59.4451 293.511 60.6203 296.784 61.1459 300.324C61.7421 304.046 61.2167 307.957 59.6992 311.108C58.7366 312.881 57.4788 314.274 56.0379 315.162C54.6856 316.071 53.2389 316.656 51.751 316.904C50.9126 317.028 50.0621 317.028 49.2237 316.904C48.3498 316.756 47.4875 316.444 46.6669 315.971C44.0333 314.25 42.0373 311.008 41.1871 307.054C40.2246 303.149 40.3959 298.858 41.6713 295.136H41.677ZM78.2878 325.336C77.0952 330.217 74.7449 334.347 71.6447 337.01C69.0937 339.062 66.3066 340.434 63.4131 341.064C59.1617 341.755 54.8631 341.498 50.6704 340.298C50.2983 340.913 49.9558 341.561 49.6488 342.24C49.4187 342.606 49.4187 343.17 49.6488 343.54C49.8613 343.967 50.1447 344.315 50.4696 344.558C51.9164 345.324 53.5344 345.448 54.7565 346.1C56.4515 346.957 58.0517 348.172 59.4984 349.708C60.514 350.82 61.3703 352.196 62.0258 353.762C63.5434 357.444 64.3227 361.652 64.2694 365.924C64.2519 370.302 63.2596 374.562 61.4293 378.083C60.3723 380.04 59.0258 381.628 57.4846 382.746C55.8844 383.921 54.0776 384.388 52.2885 384.082L49.9619 383.149C48.4089 382.379 47.3046 380.413 47.1214 378.077C47.0802 376.286 47.3637 374.514 47.9423 372.932C48.639 371.181 49.2415 369.369 49.7611 367.5C50.0563 366.018 49.832 364.415 49.1646 363.206C48.3792 361.734 47.4166 360.47 46.3245 359.477C45.4267 358.828 44.4702 358.365 43.4841 358.101C42.6278 357.847 41.7479 357.753 40.874 357.816C39.7225 362.125 38.1932 366.206 36.3332 369.978C34.4141 374.177 32.0048 377.883 29.2118 380.919C27.3636 382.816 25.0842 383.643 22.8285 383.231C20.9095 382.516 19.5631 380.064 19.5336 377.232C19.4568 374.438 19.8584 371.654 20.6969 369.127C21.7775 365.882 23.0234 362.749 24.417 359.761C27.5407 352.947 30.1802 348.042 32.7606 342.331C33.6995 340.219 34.6621 337.95 35.601 335.441C34.3962 333.72 32.6543 333.029 31.0011 333.614C27.9659 334.926 25.0901 336.91 22.4861 339.492C21.1102 340.734 19.4805 341.288 17.8625 341.076C16.6638 340.722 15.6304 339.64 15.0222 338.116C13.4751 334.802 13.6109 330.436 15.3647 327.333C17.5318 323.291 20.4134 320.149 23.7084 318.21C24.9543 317.483 26.3774 316.625 27.7946 316.023C28.8044 315.55 29.8555 315.268 30.9184 315.171C32.8314 315.132 34.7447 315.456 36.5929 316.147C40.3366 317.607 44.228 320.325 47.9483 321.661C49.6785 322.27 51.4498 322.612 53.2271 322.676C55.046 322.776 56.8648 322.7 58.6776 322.434C59.8291 322.24 60.957 321.819 62.0258 321.176C63.7559 320.125 65.4445 318.937 67.0802 317.607C68.3913 316.456 69.8319 315.629 71.3377 315.171C72.5246 314.877 73.7469 315.071 74.857 315.741C74.8806 315.753 74.8984 315.759 74.9221 315.768C77.7032 317.086 79.215 321.37 78.2939 325.348L78.2878 325.336Z" fill="#65A98F"/>
</g>
</svg>
