<svg width="65" height="50" viewBox="0 0 65 50" fill="none" xmlns="http://www.w3.org/2000/svg">
<path fill-rule="evenodd" clip-rule="evenodd" d="M54.7244 34.0424C53.7677 31.7765 51.7376 30.1422 49.3197 29.6917C46.6653 29.1451 44.0009 30.5796 42.9961 33.0967C42.3088 34.8883 41.9874 36.7996 42.0504 38.7175C42.0195 40.4268 42.201 42.1333 42.5907 43.7978C42.9419 45.0409 44.6175 45.1489 44.6175 43.7978C44.4392 42.5633 44.3848 41.3139 44.4553 40.0687C44.4799 38.0977 44.922 36.1543 45.7525 34.3666C46.2538 33.1829 47.5195 32.5164 48.7792 32.7723C50.1681 32.9903 51.3659 33.8661 51.9949 35.1232C52.5805 36.4594 52.8662 37.9075 52.8328 39.3662C52.8563 40.9364 52.7841 42.5067 52.6164 44.0681C52.6164 45.3653 53.8865 45.4192 54.5893 44.2842C55.0392 42.2757 55.3194 40.2325 55.4269 38.177C55.4438 36.7676 55.2056 35.367 54.7244 34.0424Z" fill="#27588D"/>
<path fill-rule="evenodd" clip-rule="evenodd" d="M64.8592 25.5576C64.7158 24.5295 64.3764 23.5388 63.8594 22.639C63.5363 22.1971 63.0281 21.9282 62.4812 21.9094H62.1567C61.3733 21.0715 60.5895 20.2338 59.7787 19.423C58.9678 18.6121 58.0763 17.7745 57.0764 16.991C56.4339 16.3797 55.7375 15.8281 54.9955 15.3426C54.5934 15.0842 54.1567 14.8841 53.6985 14.7481C52.6768 14.4756 51.6203 14.3571 50.5638 14.3966C49.1044 14.3966 47.6181 14.613 46.375 14.6939L36.5655 15.3965V12.3159C36.6348 11.5788 36.6348 10.8368 36.5655 10.1001C36.4508 9.6659 36.2167 9.27292 35.89 8.96506C35.8091 8.97501 35.7275 8.97501 35.6466 8.96506C35.607 8.76553 35.5026 8.58506 35.3495 8.45158C34.2955 6.93825 33.3227 5.34367 32.2148 3.8845C31.709 3.21709 31.1582 2.58506 30.5663 1.99283C29.9743 1.36937 29.3125 0.816097 28.5936 0.344355C28.0318 -0.0204371 27.3315 -0.100305 26.702 0.128243C26.2073 0.359831 25.7657 0.691184 25.4048 1.10102C24.9184 1.64158 24.432 2.39824 24.0536 2.80366C23.1889 3.85741 22.351 4.91144 21.5943 6.01936C20.4593 7.64075 19.4595 9.34339 18.4057 11.0728C18.1401 11.4465 18.2244 11.9644 18.5948 12.2346C18.7017 12.2581 18.8122 12.2581 18.9192 12.2346V29.8812C18.9192 32.5834 18.9192 35.2859 18.7028 37.7991V43.9334C18.6514 44.4997 18.6514 45.0695 18.7028 45.6358C18.8139 46.2684 19.2428 46.7995 19.8378 47.0411C21.3727 47.6626 22.9963 48.0365 24.6481 48.149C28.1341 48.4193 31.8635 47.8248 35.1063 47.8787L62.6973 47.4736C62.8136 47.8395 63.1511 48.0898 63.5349 48.0951C64.0578 48.0661 64.4574 47.6178 64.4267 47.0952C64.4267 42.9336 64.8592 38.7719 64.9673 34.6102V31.3945C65.035 29.4481 64.9991 27.5001 64.8592 25.5576ZM46.5373 17.7748C47.7532 17.7748 49.2395 17.6126 50.6177 17.5855C51.397 17.5623 52.1766 17.6255 52.9419 17.7748C53.329 17.869 53.6955 18.034 54.0227 18.2612C54.5362 18.5853 54.9955 18.9366 55.4009 19.2069C56.3197 19.8554 57.2205 20.531 58.1034 21.2337L58.8059 21.8013H56.8871H52.6174C49.3475 21.8013 46.0777 22.0445 42.8349 22.0984L36.9167 22.4767L36.7277 17.9099V17.3694L46.5373 17.7748ZM22.9996 8.28936C24.0807 7.10047 25.1886 5.96547 26.3775 4.85728L27.7557 3.18199C28.1073 3.50616 28.4856 4.01964 28.5936 4.12769C29.3586 4.73485 30.081 5.39396 30.7553 6.10033C31.5661 6.96533 32.3499 7.88394 33.1336 8.80283L30.6473 9.10019L21.2973 10.262L22.9996 8.28936ZM35.1334 44.8523C32.4309 44.8523 29.2423 45.1226 26.2424 45.0413C24.8089 45.0239 23.3832 44.8241 21.9998 44.4469C21.9884 44.2758 21.9884 44.1045 21.9998 43.9334V37.9072C21.9998 35.2049 21.9998 32.5024 21.8107 29.8002C21.4863 23.8549 20.946 17.9367 20.8109 11.9917L30.9988 11.5863H33.4578C33.4578 11.9105 33.4578 12.2888 33.593 12.5591V17.9638L34.0793 26.0708L34.2416 34.6373L34.836 43.5822C34.8208 44.1001 35.2367 44.5281 35.7549 44.5279C36.2772 44.5431 36.713 44.1316 36.7277 43.6093V34.286L37.106 25.7466V24.0172H42.8891L56.7791 24.7738L61.3733 24.9628H61.5352C61.6924 25.5109 61.8008 26.0716 61.8596 26.6384C62.0487 28.3408 62.0216 30.1785 62.1028 31.4216C62.1841 32.6647 62.3189 34.4754 62.3189 36.0155C62.3189 39.1773 62.3189 42.312 62.4812 45.4468C57.9953 45.4468 44.4834 45.3658 35.1334 44.8523Z" fill="#27588D"/>
<path fill-rule="evenodd" clip-rule="evenodd" d="M31.0528 18.613C30.3124 18.3154 29.5425 18.0979 28.7557 17.9644C28.4238 17.9249 28.088 17.9249 27.7559 17.9644C27.4273 17.9677 27.1003 18.0131 26.7831 18.0996C26.0488 18.3499 25.335 18.6573 24.6482 19.0185C24.1872 19.0602 23.8551 19.4789 23.9186 19.9371C23.975 20.3936 24.3788 20.7261 24.8375 20.6937C25.5942 20.8289 26.2425 21.0453 27.0534 21.1533H27.9181H28.8099C29.5124 21.0182 30.1339 20.775 30.8367 20.6937C31.3557 20.7421 31.8205 20.3726 31.8904 19.8561C32.0869 19.2672 31.6724 18.652 31.0528 18.613Z" fill="#27588D"/>
<path fill-rule="evenodd" clip-rule="evenodd" d="M30.9709 28.6917C30.2342 28.4612 29.4855 28.2717 28.728 28.1241H27.755C27.4264 28.1274 27.0995 28.1727 26.7822 28.2592C26.0106 28.4668 25.2666 28.7663 24.5664 29.151C24.1015 29.2071 23.7729 29.633 23.8368 30.0967C23.9061 30.5505 24.3279 30.8639 24.7825 30.7995C25.5391 30.7995 26.1607 31.2049 26.9444 31.2859C27.2409 31.3127 27.5394 31.3127 27.8362 31.2859H28.7548C29.5115 31.1508 30.1601 30.9346 30.9168 30.7724C31.6555 30.6481 31.9821 29.7706 31.5051 29.1933C31.3562 29.0131 31.1473 28.8926 30.9168 28.8537L30.9709 28.6917Z" fill="#27588D"/>
<path fill-rule="evenodd" clip-rule="evenodd" d="M13.8382 9.2623C13.2034 9.26976 12.5703 9.33305 11.9465 9.4516C10.8116 9.55975 9.6766 9.72188 8.54151 9.93799C7.43359 10.127 6.37984 10.3705 5.32581 10.6405C5.21914 10.6153 5.10804 10.6153 5.00165 10.6405C4.53847 10.6695 4.18694 11.0694 4.2179 11.5323C4.2179 15.8562 3.92054 20.1259 3.86665 24.4495C3.86665 27.3411 3.86665 30.2326 4.02859 33.097C4.24498 37.5832 4.75845 42.0148 5.40679 46.4468H4.75845C4.03937 46.6825 3.30896 46.8809 2.56942 47.0412C2.06728 47.1084 1.55823 47.1084 1.05609 47.0412C0.432072 46.8749 -0.138053 47.4464 0.0296957 48.0701C0.107629 48.3597 0.333966 48.5855 0.623588 48.6629C1.63837 49.1051 2.73275 49.335 3.83956 49.3383H6.73109C7.70387 49.3383 9.29818 48.9871 10.5683 48.7709C11.1722 48.6684 11.7683 48.5239 12.3519 48.3384C13.0696 48.2135 13.383 47.3588 12.9163 46.7997C12.6993 46.5402 12.3608 46.4158 12.0278 46.4739C10.5534 46.4294 9.0829 46.3031 7.6229 46.0955H7.3797C7.1904 42.15 7.1904 38.2318 7.13651 34.2862C7.13651 31.4218 7.13651 28.5573 7.00137 25.6929C7.00137 23.828 6.78498 21.9905 6.64984 20.1259L11.163 20.6123C11.3521 20.6123 12.5412 21.0177 13.0276 21.0987C13.5911 21.2128 14.1698 20.992 14.5139 20.5313C14.6551 20.3368 14.756 20.1165 14.811 19.8827C14.811 19.4773 14.811 18.5584 15.0003 18.3423L15.4057 14.5319C15.5146 13.6354 15.5687 12.7328 15.5676 11.8297C15.5715 11.1728 15.3938 10.5275 15.0544 9.96508C14.7825 9.5522 14.3318 9.29187 13.8382 9.2623ZM12.0007 18.1262V18.2613L11.5414 18.1262H6.56887L5.97442 12.289C6.89331 12.289 7.81193 12.127 8.67665 12.127H11.9197L12.5951 12.2619C12.5951 12.9647 12.1629 13.9104 12.1358 14.2348L12.0007 18.1262Z" fill="#27588D"/>
</svg>
