<svg width="71" height="47" viewBox="0 0 71 47" fill="none" xmlns="http://www.w3.org/2000/svg">
<path fill-rule="evenodd" clip-rule="evenodd" d="M37.5327 36.4715C37.2709 34.981 36.6542 33.5963 35.7472 32.4622C35.1019 31.7539 34.3123 31.2298 33.4459 30.9347C32.5794 30.6396 31.6618 30.5821 30.771 30.7672C29.908 30.9322 29.0891 31.3107 28.3749 31.8748C27.6606 32.4389 27.069 33.1743 26.6438 34.0268C26.1238 35.351 25.8739 36.7871 25.912 38.2317C25.9097 39.2227 26.0279 40.2096 26.2633 41.1653C26.2633 41.8824 28.4879 42.1432 28.5172 41.1653C28.4586 40.5368 28.4586 39.9033 28.5172 39.2748C28.6074 38.1146 28.9489 36.9961 29.5124 36.0151C29.738 35.6601 30.0252 35.359 30.357 35.1294C30.6888 34.8999 31.0585 34.7467 31.4443 34.6787C31.8055 34.5719 32.1841 34.5604 32.55 34.6453C32.9159 34.7302 33.259 34.9091 33.5518 35.1676C34.1693 35.7736 34.6335 36.549 34.8983 37.4168C35.3081 38.6228 34.8983 39.6985 34.8983 41.0023C34.8983 42.3062 36.6546 42.241 37.0058 41.3283C37.0058 39.7311 37.8254 37.9057 37.5327 36.4715Z" fill="#27588D"/>
<path fill-rule="evenodd" clip-rule="evenodd" d="M69.4092 42.7299H63.555L57.7007 42.5669C57.8763 41.2305 58.0812 39.9267 58.169 38.5576V35.298C58.1394 34.7406 58.0808 34.1855 57.9934 33.6356C57.7885 32.56 57.4958 31.5821 57.2323 30.5716C57.3882 30.5855 57.5448 30.5855 57.7007 30.5716C59.2835 29.7455 60.6361 28.458 61.6152 26.8455C62.5943 25.233 63.1634 23.3555 63.2622 21.4121C63.2801 19.7871 63.1129 18.1661 62.7646 16.5879C62.2683 14.3559 61.6024 12.175 60.7742 10.0687C60.2328 8.54919 59.6072 7.06864 58.9008 5.63561C58.2302 4.1718 57.4774 2.7565 56.6469 1.39813C56.5729 1.27061 56.4768 1.16083 56.3643 1.0752C56.2517 0.989575 56.1249 0.929833 55.9913 0.899475C55.8577 0.869117 55.72 0.868755 55.5863 0.898409C55.4526 0.928062 55.3256 0.987135 55.2126 1.07217C55.0028 1.22616 54.8476 1.45664 54.7736 1.72409C54.6905 1.50329 54.5328 1.32769 54.3345 1.23515C54.2293 1.17449 54.1141 1.13816 53.996 1.12836C53.8778 1.11856 53.7591 1.13549 53.647 1.17812C53.5349 1.22076 53.4316 1.28822 53.3435 1.37645C53.2555 1.46467 53.1843 1.57184 53.1344 1.69149C52.3217 3.35434 51.6079 5.07476 50.9976 6.84167C50.3932 8.61285 49.8753 10.4191 49.4462 12.2526C48.6637 15.4352 48.3377 18.7355 48.4802 22.0314C48.5876 24.4487 49.2971 26.7851 50.5292 28.7788C51.0624 29.5506 51.744 30.1796 52.5241 30.6195C53.3042 31.0595 54.1628 31.2993 55.037 31.3213C54.8488 32.2881 54.7217 33.2684 54.6565 34.2549V37.5146C54.6939 38.0621 54.7623 38.6064 54.8614 39.1444C55.0663 40.4482 55.359 41.6217 55.5932 42.8929C53.7198 42.8929 51.7294 42.1758 49.7389 42.1432C47.7485 42.1106 45.5531 42.1432 43.4749 42.3062C43.4749 41.3609 43.7383 39.3725 43.7383 38.4272V36.1781C43.6956 35.4119 43.6076 34.6497 43.4749 33.8964C43.315 32.8967 43.1098 31.9067 42.8602 30.9302C43.5919 31.4843 44.3823 31.9732 45.0848 32.5926C45.2812 32.8037 45.5436 32.9216 45.8166 32.9216C46.0896 32.9216 46.3519 32.8037 46.5483 32.5926C46.6368 32.4758 46.7034 32.3405 46.744 32.1946C46.7846 32.0487 46.7985 31.8952 46.7849 31.7432C46.7712 31.5912 46.7303 31.4438 46.6645 31.3097C46.5988 31.1756 46.5095 31.0577 46.402 30.9627C45.0909 29.4403 43.6927 28.014 42.2162 26.6927C39.9038 24.8347 37.4743 23.1723 35.1618 21.5425C34.3448 20.8761 33.5629 20.1578 32.8201 19.3912C32.294 18.9418 31.7123 18.5795 31.0931 18.3155C30.6219 18.1148 30.1008 18.1148 29.6296 18.3155C29.3076 18.5111 28.6929 19.163 28.5172 19.2934L25.9414 21.8033C24.9169 22.8137 23.9217 23.8568 23.0142 25.0629C20.7604 27.4424 18.6236 29.9523 16.3989 32.5274C16.314 32.6213 16.2465 32.733 16.2005 32.8561C16.1545 32.9792 16.1308 33.1112 16.1308 33.2445C16.1308 33.3778 16.1545 33.5098 16.2005 33.6329C16.2465 33.7559 16.314 33.8677 16.3989 33.9616C16.4833 34.0562 16.5836 34.1313 16.6941 34.1825C16.8047 34.2338 16.9232 34.2602 17.0429 34.2602C17.1626 34.2602 17.2812 34.2338 17.3917 34.1825C17.5022 34.1313 17.6025 34.0562 17.6869 33.9616L20.0286 31.8754C19.8156 32.9509 19.6592 34.0393 19.5602 35.135C19.5164 35.8078 19.5164 36.4832 19.5602 37.156C19.5156 37.8287 19.5156 38.5042 19.5602 39.177C19.7066 40.3504 19.9408 41.4913 20.1164 42.6321L13.4425 43.447L9.54946 43.9686C9.69195 43.0844 9.78968 42.1921 9.84217 41.2957C9.88623 40.7318 9.88623 40.1646 9.84217 39.6007C9.81677 39.0411 9.74822 38.4849 9.63728 37.9383C9.51226 37.2669 9.35593 36.6032 9.16893 35.9499C9.26608 35.9643 9.3645 35.9643 9.46165 35.9499C11.0444 35.1239 12.397 33.8364 13.3761 32.2238C14.3552 30.6113 14.9244 28.7339 15.0232 26.7905C15.0553 25.1647 14.8879 23.5416 14.5256 21.9662C14.0253 19.7396 13.3696 17.5599 12.5644 15.447C11.979 13.915 11.3643 12.4156 10.691 11.014C10.0093 9.55701 9.25688 8.14242 8.43715 6.77648C8.28241 6.52677 8.04883 6.35119 7.783 6.28473C7.51717 6.21828 7.23861 6.26583 7.00286 6.41792C6.79982 6.60093 6.65594 6.8527 6.59306 7.13503C6.54507 7.03258 6.47876 6.94213 6.39822 6.86926C6.31768 6.79639 6.22461 6.74263 6.12472 6.71128C5.91864 6.59685 5.68045 6.57715 5.46145 6.65641C5.24245 6.73567 5.06017 6.90755 4.95387 7.13503C4.16162 8.81561 3.45792 10.5461 2.84634 12.3178C2.2189 14.0831 1.69099 15.8902 1.26569 17.7288C0.474591 20.8542 0.138586 24.1007 0.270471 27.3446C0.363745 29.7649 1.0745 32.1054 2.31946 34.092C2.83105 34.8139 3.47923 35.4014 4.21788 35.8127C4.95652 36.2239 5.76748 36.4489 6.59306 36.4715C6.49597 37.0755 6.42758 37.6848 6.38816 38.2969C6.34432 38.8499 6.34432 39.4062 6.38816 39.9593C6.41357 40.5189 6.48212 41.0751 6.59306 41.6217C6.73942 42.5343 6.91505 43.447 7.11995 44.3271H6.56379C5.09245 44.4211 3.6164 44.3005 2.1731 43.9686C2.05778 43.9341 1.93749 43.9253 1.81911 43.9427C1.70074 43.9602 1.58662 44.0034 1.48328 44.07C1.37995 44.1367 1.28944 44.2253 1.21694 44.331C1.14444 44.4366 1.09138 44.5572 1.06079 44.6857C0.964303 44.8288 0.904909 44.9986 0.889081 45.1766C0.873253 45.3547 0.901598 45.5342 0.971029 45.6955C1.04046 45.8569 1.14832 45.9939 1.28285 46.0917C1.41739 46.1896 1.57345 46.2444 1.73403 46.2503C3.32544 46.7457 4.96992 46.9979 6.62234 47C8.96404 47 11.3643 46.7718 13.6767 46.6415L29.8345 45.8591C29.8345 45.8591 59.1057 45.8591 63.7013 45.5658C65.6332 45.5658 67.5944 45.3702 69.5556 45.142C69.6901 45.1313 69.8214 45.0912 69.942 45.024C70.0627 44.9568 70.1702 44.8638 70.2586 44.7503C70.3469 44.6368 70.4143 44.505 70.4569 44.3625C70.4995 44.22 70.5165 44.0695 70.5069 43.9197C70.4973 43.7699 70.4612 43.6236 70.4009 43.4893C70.3405 43.355 70.257 43.2352 70.1551 43.1368C70.0531 43.0385 69.9348 42.9634 69.8068 42.916C69.6789 42.8685 69.5437 42.8496 69.4092 42.8603V42.7299ZM5.01242 31.6799C4.1132 30.3037 3.56683 28.6813 3.43177 26.986C3.14664 24.0967 3.23536 21.1767 3.69521 18.3155C3.97262 16.554 4.34404 14.8124 4.80752 13.1001C5.28635 11.3813 5.85319 9.69438 6.50525 8.04772C6.50525 8.04772 6.50525 8.04772 6.50525 8.2433C7.20776 9.5906 7.85173 10.9596 8.43715 12.3504C8.99331 13.752 9.52019 15.2189 9.95926 16.6857C10.5992 18.7018 11.0887 20.7732 11.4228 22.8789C11.7529 24.1187 11.9398 25.4003 11.979 26.6927C11.867 27.7487 11.5464 28.764 11.0403 29.6657C10.5342 30.5674 9.85517 31.3332 9.05185 31.908C8.78185 32.1885 8.46393 32.4056 8.11702 32.5463C7.77011 32.6871 7.4013 32.7486 7.03258 32.7274C6.66385 32.7061 6.30274 32.6023 5.97077 32.4224C5.63879 32.2424 5.34273 31.9899 5.10023 31.6799H5.01242ZM30.9468 42.3062C28.8604 42.1742 26.769 42.1742 24.6827 42.3062L22.4874 42.5669C22.4874 41.4913 22.7215 40.383 22.7801 39.3073C22.8239 38.6455 22.8239 37.9809 22.7801 37.319V35.298C22.5752 33.7008 22.1946 32.0384 21.9605 30.6042V30.2782L28.1367 24.7369L30.7419 22.4226L33.669 24.7043C36.04 26.0082 38.4987 27.3772 40.8404 28.9092C40.8404 30.6042 40.6063 32.1688 40.577 33.929V36.1781C40.577 36.9278 40.577 37.6449 40.8112 38.3946C41.0453 39.1444 41.0161 41.2305 41.1624 42.1106C38.1475 42.2736 40.899 41.6869 31.0346 42.3062H30.9468ZM53.2515 26.0081C52.3614 24.6293 51.8251 23.0067 51.7001 21.3143C51.4015 18.4256 51.4903 15.5034 51.9635 12.6438C52.2409 10.8822 52.6124 9.14071 53.0758 7.4284C53.5416 5.70463 54.1088 4.01685 54.7736 2.37601V2.57159C55.4812 3.91349 56.126 5.29523 56.7055 6.71128C57.2877 8.11531 57.8055 9.55139 58.2568 11.014C58.8968 13.0301 59.3863 15.1015 59.7204 17.2072C59.9455 18.517 60.0144 19.8541 59.9253 21.1839C59.8264 22.225 59.5267 23.2299 59.0468 24.13C58.5668 25.0302 57.918 25.8042 57.1445 26.3993C56.5919 26.8996 55.8866 27.1417 55.177 27.0749C54.4673 27.008 53.8086 26.6373 53.3393 26.0407L53.2515 26.0081Z" fill="#27588D"/>
<path fill-rule="evenodd" clip-rule="evenodd" d="M32.9664 14.6647C33.105 14.6877 33.2463 14.6796 33.382 14.6411C33.5177 14.6025 33.6452 14.5341 33.757 14.4401C33.8687 14.346 33.9625 14.228 34.0328 14.0931C34.1031 13.9582 34.1486 13.809 34.1665 13.6542L34.7227 11.8941C35.0447 10.8836 35.4837 9.9383 35.835 8.92782C36.1862 7.91734 36.2741 7.59138 36.4204 6.93946C36.8595 5.14668 37.0351 3.41908 37.5035 1.6589C37.5617 1.45754 37.5617 1.24093 37.5035 1.03957C37.4319 1.2608 37.4319 1.50287 37.5035 1.72409C38.018 2.78021 38.4774 3.86856 38.8792 4.9837C39.5867 6.74259 40.1929 8.5499 40.694 10.3946C41.0745 11.4377 41.4258 12.6438 41.8649 13.8824C42.3039 15.1211 42.6845 16.1967 42.9772 17.3702C43.2456 18.3579 43.4222 19.3737 43.5041 20.4016C43.4961 20.5344 43.5118 20.6676 43.5502 20.7936C43.5886 20.9196 43.649 21.0359 43.7278 21.1358C43.8067 21.2358 43.9025 21.3174 44.0098 21.376C44.1171 21.4346 44.2337 21.469 44.3529 21.4773C44.4721 21.4861 44.5918 21.4687 44.7049 21.4259C44.818 21.3831 44.9225 21.3159 45.0122 21.2281C45.102 21.1403 45.1753 21.0336 45.2279 20.9141C45.2805 20.7947 45.3114 20.6648 45.3189 20.532C45.5968 18.5666 45.5968 16.5649 45.3189 14.5995C45.2152 13.6313 45.0489 12.6727 44.8213 11.7311C44.5871 10.7532 44.2651 9.84051 44.0017 8.99301C43.7382 8.14551 42.9772 6.6135 42.421 5.47263C41.5537 3.75513 40.5754 2.11012 39.4939 0.550631C39.3887 0.356879 39.2341 0.202359 39.0498 0.10674C38.8656 0.0111203 38.6599 -0.0212744 38.459 0.0136776C38.2581 0.0486295 38.0711 0.149348 37.9218 0.303014C37.7725 0.45668 37.6676 0.656343 37.6205 0.876591C37.5319 0.652088 37.3769 0.468075 37.1815 0.355055C37.0741 0.293773 36.9568 0.256961 36.8365 0.246773C36.7161 0.236585 36.5952 0.253224 36.4807 0.295718C36.3662 0.338212 36.2605 0.405709 36.1697 0.494255C36.079 0.582801 36.005 0.690619 35.9521 0.811399C34.9014 2.34827 33.9895 3.99694 33.2298 5.7334C32.9768 6.4435 32.7714 7.17347 32.6151 7.91734C32.4341 9.05906 32.3265 10.2137 32.2932 11.3725V13.3609C32.2443 13.6322 32.2857 13.914 32.4095 14.1538C32.5334 14.3937 32.7313 14.5753 32.9664 14.6647Z" fill="#27588D"/>
</svg>
